<?xml version="1.0" standalone="no"?>
<!DOCTYPE svg PUBLIC "-//W3C//DTD SVG 1.1//EN" "http://www.w3.org/Graphics/SVG/1.1/DTD/svg11.dtd" >
<svg xmlns="http://www.w3.org/2000/svg" xmlns:xlink="http://www.w3.org/1999/xlink" version="1.1">
<metadata>
Created by FontForge 20170731 at Mon May 31 19:56:04 2021
 By Aleksey,,,
Copyright (c) 1995 ParaGraph Intl., (c) 1998 ParaType Inc., ParaType Ltd. All rights reserved.
</metadata>
<defs>
<font id="FuturaPT-LightObl" horiz-adv-x="1024" >
  <font-face 
    font-family="Futura PT Light Italic"
    font-weight="400"
    font-style="italic"
    font-stretch="normal"
    units-per-em="2048"
    panose-1="2 11 4 2 2 2 4 9 3 3"
    ascent="1563"
    descent="-485"
    x-height="836"
    cap-height="1366"
    bbox="-565 -512 2259 1843"
    underline-thickness="102"
    underline-position="-307"
    slope="-7"
    unicode-range="U+0020-FB02"
  />
<missing-glyph horiz-adv-x="477" 
 />
    <glyph glyph-name="afii10017.var.accented" unicode="&#x410;`" horiz-adv-x="1200" 
d="M1077 0l-127 449h-581l-238 -449h-102l747 1407l395 -1407h-94zM412 530h516l-176 648zM950 1749l97 -51l-308 -258l-59 37z" />
    <glyph glyph-name="afii10022.var.accented" unicode="&#x415;`" horiz-adv-x="950" 
d="M1008 1366l-11 -82h-565l-61 -496h553l-11 -81h-553l-75 -625h565l-10 -82h-570h-86l168 1366h656zM825 1749l97 -51l-308 -258l-59 37z" />
    <glyph glyph-name="afii10026.var.accented" unicode="&#x418;`" horiz-adv-x="1433" 
d="M1159 0l139 1139l-1118 -1174l172 1401h90l-143 -1159l1120 1173l-170 -1380h-90zM1067 1749l96 -51l-307 -258l-59 37z" />
    <glyph glyph-name="afii10032.var.accented" unicode="&#x41e;`" horiz-adv-x="1648" 
d="M981 1384q289 0 473 -188q168 -174 168 -440q0 -344 -229 -568q-117 -114 -251.5 -162.5t-295.5 -48.5q-142 0 -255 40t-210 135q-186 181 -186 454q0 145 59 292t174 263q221 223 553 223zM834 59q298 0 491 189q98 98 151.5 234t53.5 270q0 121 -42.5 221.5
t-113.5 171.5q-72 72 -174.5 115t-226.5 43q-280 0 -475 -191q-103 -102 -156 -233.5t-53 -264.5q0 -231 149 -391q156 -164 396 -164zM1174 1749l96 -51l-307 -258l-60 37z" />
    <glyph glyph-name="afii10037.var.accented" unicode="&#x423;`" horiz-adv-x="1126" 
d="M197 1366h98l364 -885l508 885h99l-793 -1366h-94l221 381zM913 1749l97 -51l-308 -258l-59 37z" />
    <glyph glyph-name="afii10045.var.accented" unicode="&#x42b;`" horiz-adv-x="1413" 
d="M1307 1366h90l-168 -1366h-90zM184 0l168 1366h90l-71 -588h233q218 0 326 -92q106 -90 106 -258q0 -94 -28.5 -171.5t-75.5 -127.5q-122 -129 -430 -129h-318zM360 696l-75 -614h233q247 0 344 106q39 42 59.5 109t20.5 129q0 140 -100 211q-83 59 -279 59h-203z
M1057 1749l96 -51l-307 -258l-60 37z" />
    <glyph glyph-name="afii10047.var.accented" unicode="&#x42d;`" horiz-adv-x="1392" 
d="M129 147l14 119q72 -89 185 -149q116 -58 264 -58q300 0 477 172q78 76 132 189t65 244h-910l11 81h905q3 79 -13.5 150.5t-46.5 123.5t-55.5 84.5t-54.5 59.5q-74 68 -173 104t-202 36q-135 0 -258 -56q-50 -23 -113 -68t-112 -92l14 119q91 73 188 117q135 61 291 61
q272 0 441 -161q188 -175 188 -463q0 -346 -211 -567q-113 -117 -246.5 -166.5t-308.5 -49.5q-182 0 -305 58q-87 43 -166 112zM952 1749l97 -51l-308 -258l-59 37z" />
    <glyph glyph-name="afii10048.var.accented" unicode="&#x42e;`" horiz-adv-x="1974" 
d="M369 762h206q45 240 203 405q92 96 226 156.5t299 60.5q140 0 262 -47.5t207 -132.5q176 -173 176 -452q0 -342 -230 -564q-216 -211 -522 -211q-273 0 -451 175q-62 62 -104 138.5t-57 143t-21.5 134t0.5 112.5h-205l-84 -680h-90l168 1366h90zM1206 59q260 0 445 185
q99 99 151.5 232.5t52.5 264.5q0 121 -41.5 227t-111.5 177q-72 74 -175.5 116t-223.5 42q-264 0 -445 -181q-101 -101 -153 -232t-52 -257q0 -113 44.5 -228.5t119.5 -191.5q65 -67 163.5 -110.5t225.5 -43.5zM1337 1749l97 -51l-308 -258l-59 37z" />
    <glyph glyph-name="afii10049.var.accented" unicode="&#x42f;`" horiz-adv-x="962" 
d="M70 0l489 612q-69 3 -135 30.5t-109 70.5q-88 88 -88 237q0 183 121 301q66 65 155.5 90t209.5 25h233l-168 -1366h-90l76 612h-98l-486 -612h-110zM846 1284h-107q-55 0 -90.5 -2.5t-82 -11t-84.5 -29.5t-70 -55q-88 -88 -88 -228q0 -123 75 -194q77 -70 222 -70h153z
M831 1749l97 -51l-307 -258l-60 37z" />
    <glyph glyph-name="afii10023.var.accented" unicode="&#x401;`" horiz-adv-x="950" 
d="M1008 1366l-11 -82h-565l-61 -496h553l-11 -81h-553l-75 -625h565l-10 -82h-656l168 1366h656zM844 1587q0 38 26 64q24 24 58 24q33 0 53 -20q18 -22 18 -49q0 -36 -26 -62q-24 -24 -64 -24q-29 0 -47 18q-18 16 -18 49zM387 1587q0 37 27 64q24 24 57 24t53 -20
q19 -23 19 -49q0 -35 -27 -62q-24 -24 -63 -24q-29 0 -47 18q-19 17 -19 49zM776 1749l96 -51l-307 -258l-59 37z" />
    <glyph glyph-name="afii10065.var.accented" unicode="&#x430;`" horiz-adv-x="1060" 
d="M913 672l21 164h82l-103 -836h-82l17 129q-54 -74 -123 -109q-84 -43 -193 -43q-164 0 -266 97q-121 112 -121 303q0 105 36.5 200.5t105.5 161.5q119 115 309 115q122 0 203 -55q72 -49 114 -127zM580 776q-144 0 -236 -92q-52 -52 -82.5 -132.5t-30.5 -168.5
q0 -76 27 -142t70 -108q83 -78 213 -78q113 0 198 62q44 32 75.5 77t47 92t22.5 88t7 79q0 153 -86 239q-79 84 -225 84zM799 1270l82 -51l-248 -263l-58 33z" />
    <glyph glyph-name="afii10070.var.accented" unicode="&#x435;`" horiz-adv-x="997" 
d="M948 408h-712q-13 -78 12 -151.5t71 -119.5q82 -82 211 -82q116 0 199 60q70 51 109 131l63 -41q-62 -109 -149 -166q-92 -62 -224 -62q-175 0 -278 111q-105 111 -105 285q0 220 140 360q121 121 299 121q163 0 262 -96q120 -115 102 -350zM248 485h618
q-1 63 -24.5 119.5t-59.5 93.5q-74 78 -198 78q-145 0 -240 -100q-75 -78 -96 -191zM766 1270l82 -51l-248 -263l-57 33z" />
    <glyph glyph-name="afii10074.var.accented" unicode="&#x438;`" horiz-adv-x="970" 
d="M250 836h82l-82 -674l682 721l-109 -883h-82l82 670l-682 -721zM754 1270l82 -51l-248 -263l-58 33z" />
    <glyph glyph-name="afii10080.var.accented" unicode="&#x43e;`" horiz-adv-x="1073" 
d="M614 854q89 0 173 -31t139 -86q104 -104 104 -288q0 -219 -137 -349q-133 -123 -342 -123q-185 0 -295 115q-51 53 -81 128.5t-30 162.5q0 97 37.5 190t102.5 156q64 61 151 93t178 32zM563 55q152 0 258 95q123 115 123 290q0 142 -88 238q-94 98 -250 98
q-150 0 -254 -94q-58 -53 -89.5 -129.5t-31.5 -157.5q0 -72 25.5 -137.5t69.5 -110.5q88 -92 237 -92zM805 1270l82 -51l-248 -263l-57 33z" />
    <glyph glyph-name="afii10085.var.accented" unicode="&#x443;`" horiz-adv-x="876" 
d="M160 -471l252 457l-293 850h90l260 -744l395 744h99l-709 -1307h-94zM707 1270l81 -51l-247 -263l-58 33z" />
    <glyph glyph-name="afii10093.var.accented" unicode="&#x44b;`" 
d="M897 836h82l-102 -836h-82zM248 836h84l-43 -349h176q137 0 207 -65q61 -59 61 -162q0 -115 -63 -178q-82 -82 -273 -82h-250zM240 78h188q108 0 164 45q55 47 55 131q0 80 -47 117q-47 39 -145 39h-174zM780 1270l82 -51l-248 -263l-57 33z" />
    <glyph glyph-name="afii10095.var.accented" unicode="&#x44d;`" horiz-adv-x="837" 
d="M80 31l10 86q91 -62 221 -62q151 0 248 72q55 41 95.5 108.5t50.5 153.5h-494l10 78h490q-3 133 -82 215q-90 94 -260 94q-114 0 -205 -49l10 82q95 45 213 45q182 0 295 -104q113 -109 113 -287q0 -89 -32 -188.5t-110 -176.5q-121 -121 -334 -121q-136 0 -239 54z
M604 1270l82 -51l-248 -263l-57 33z" />
    <glyph glyph-name="afii10096.var.accented" unicode="&#x44e;`" horiz-adv-x="1314" 
d="M287 467h139q20 155 131 266q124 121 313 121q186 0 297 -111q105 -107 105 -292q0 -220 -137 -353q-124 -121 -316 -121q-178 0 -289 111q-51 52 -81.5 132t-30.5 169h-142l-47 -389h-82l103 836h82zM831 55q138 0 240 99q115 111 115 286q0 147 -88 242q-86 94 -230 94
q-147 0 -245 -94q-56 -53 -87.5 -130.5t-31.5 -156.5q0 -72 25 -137.5t69 -110.5q88 -92 233 -92zM926 1270l82 -51l-248 -263l-58 33z" />
    <glyph glyph-name="afii10097.var.accented" unicode="&#x44f;`" horiz-adv-x="790" 
d="M57 0l312 365q-95 11 -152 65t-57 148q0 115 69 184q74 74 242 74h274l-102 -836h-82l45 360h-139l-307 -360h-103zM614 438l39 320h-196q-109 0 -160 -49q-47 -41 -47 -127q0 -75 51 -111q46 -33 152 -33h161zM664 1270l81 -51l-247 -263l-58 33z" />
    <glyph glyph-name="afii10071.var.accented" unicode="&#x451;`" horiz-adv-x="997" 
d="M948 408h-712q-13 -78 12 -151.5t71 -119.5q82 -82 211 -82q116 0 199 60q70 51 109 131l63 -41q-62 -109 -149 -166q-92 -62 -224 -62q-175 0 -278 111q-105 114 -105 283q0 225 140 362q121 121 303 121q159 0 258 -96q120 -117 102 -350zM248 485h618
q-1 63 -24.5 119.5t-59.5 93.5q-74 78 -198 78q-145 0 -240 -100q-75 -78 -96 -191zM713 1071q0 31 24 55q25 25 60 25q31 0 49 -21q16 -20 16 -45q0 -33 -22 -55q-24 -26 -62 -26q-27 0 -45 18q-20 20 -20 49zM336 1071q0 31 24 55q25 25 60 25q32 0 49 -21q16 -20 16 -45
q0 -33 -22 -55q-24 -26 -62 -26q-27 0 -45 18q-20 20 -20 49zM700 1270l70 -51l-248 -263l-45 33z" />
    <glyph glyph-name="fi" unicode="fi" horiz-adv-x="905" 
d="M530 758h-208l-93 -758h-82l93 758h-95l11 78h94l41 333q5 41 9.5 68t15.5 64.5t30 70t47 60.5q86 86 228 86q141 0 221 -74q67 -62 67 -178q0 -57 -12 -131h-82q10 67 10 116q0 89 -51 138q-55 51 -156 51q-108 0 -172 -64q-56 -58 -73 -207l-41 -333h209zM778 836h82
l-102 -836h-82z" />
    <glyph glyph-name="fl" unicode="fl" horiz-adv-x="905" 
d="M530 758h-208l-93 -758h-82l93 758h-95l11 78h94l41 333q5 41 9.5 68t15.5 64.5t30 70t47 60.5q86 86 228 86q141 0 221 -74q67 -62 67 -178q0 -39 -8 -97l-143 -1169h-82l143 1169q6 75 6 82q0 89 -51 138q-55 51 -156 51q-108 0 -172 -64q-56 -58 -73 -207l-41 -333
h209z" />
    <glyph glyph-name=".notdef" horiz-adv-x="477" 
 />
    <glyph glyph-name=".null" horiz-adv-x="0" 
 />
    <glyph glyph-name="nonmarkingreturn" horiz-adv-x="682" 
 />
    <glyph glyph-name="space" unicode=" " horiz-adv-x="477" 
 />
    <glyph glyph-name="exclam" unicode="!" horiz-adv-x="532" 
d="M342 244h-90l137 1122h90zM199 51q0 41 26 64q26 22 58 22q28 0 47 -16q20 -17 20 -49q0 -38 -24 -62t-62 -24q-24 0 -45 16q-20 17 -20 49z" />
    <glyph glyph-name="quotedbl" unicode="&#x22;" horiz-adv-x="573" 
d="M381 1366l-82 -551h-61l53 551h90zM618 1366l-81 -551h-62l53 551h90z" />
    <glyph glyph-name="numbersign" unicode="#" horiz-adv-x="1228" 
d="M768 0h-82l123 453h-336l-123 -453h-82l123 453h-241l22 77h242l90 330h-242l21 78h241l119 428h82l-119 -428h336l119 428h82l-119 -428h242l-21 -78h-241l-91 -330h242l-22 -77h-242zM831 530l91 330h-336l-90 -330h335z" />
    <glyph glyph-name="dollar" unicode="$" horiz-adv-x="1122" 
d="M1053 1208l-72 -55q-26 64 -76 100q-47 38 -117 47l-67 -550l61 -33q106 -58 158 -113q86 -89 86 -209q0 -86 -34 -169.5t-91 -137.5q-108 -104 -274 -104l-25 -203h-82l25 196q-168 4 -260 101q-33 35 -62.5 87t-44.5 105l82 37q24 -107 90 -170q35 -34 89 -56t116 -22
l78 635l-49 27q-112 61 -160 113q-72 78 -72 196q0 153 90 250q52 54 124.5 80t150.5 24l22 183h82l-22 -185q89 -13 155 -59q58 -41 99 -115zM709 653l-72 -587q122 6 201 81q40 40 66 107.5t26 124.5q0 98 -72 176q-44 46 -121 84zM643 791l64 512q-120 7 -195 -78
q-63 -73 -63 -185q0 -98 63 -161q47 -47 131 -88z" />
    <glyph glyph-name="percent" unicode="%" horiz-adv-x="1245" 
d="M188 2l979 1395l58 -33l-979 -1395zM944 524q53 0 107 -20t92 -58q67 -67 67 -167q0 -131 -80 -211q-78 -80 -219 -80q-121 0 -188 65q-72 72 -72 176q0 59 22.5 114.5t57.5 92.5q40 42 97.5 65t115.5 23zM918 61q88 0 147 56q61 61 61 159q0 76 -43 121q-50 54 -137 54
q-91 0 -151 -60t-60 -151q0 -76 47 -127q49 -52 136 -52zM498 1378q52 0 106 -20t92 -58q68 -68 68 -167q0 -131 -80 -211q-78 -80 -219 -80q-122 0 -189 65q-71 71 -71 176q0 59 22.5 114.5t57.5 92.5q40 42 97.5 65t115.5 23zM471 915q88 0 147 56q62 62 62 159
q0 76 -43 121q-50 54 -137 54q-92 0 -152 -60q-59 -59 -59 -151q0 -76 47 -127q49 -52 135 -52z" />
    <glyph glyph-name="ampersand" unicode="&#x26;" horiz-adv-x="1263" 
d="M1227 545l53 -64q-62 -74 -193 -198l175 -283h-115l-131 215l-55 -57q-64 -67 -164 -121q-72 -37 -132.5 -50.5t-134.5 -13.5q-83 0 -145.5 20.5t-114.5 74.5q-94 97 -94 249q0 159 121 277q12 12 26 23.5t25 20.5t29 21t27.5 18.5t31 19.5t29 17.5t32.5 19t31 18.5
l119 71l-43 86q-59 120 -59 205q0 119 80 199q75 78 196 78q122 0 189 -70q57 -61 57 -160q0 -52 -15.5 -95.5t-33 -66.5t-45.5 -51q-42 -42 -113 -90l-90 -59l274 -445q91 82 183 191zM973 287l-285 467l-131 -76q-130 -79 -186 -133q-101 -101 -101 -232q0 -112 72 -184
q74 -74 209 -74q113 0 211 56q105 65 149 112zM682 954l45 -86l94 60q69 42 109 94q47 58 47 139q0 68 -47 107q-45 37 -113 37q-74 0 -125 -48q-55 -55 -55 -145q0 -74 45 -158z" />
    <glyph glyph-name="quotesingle" unicode="'" horiz-adv-x="335" 
d="M381 1366l-82 -551h-61l53 551h90z" />
    <glyph glyph-name="parenleft" unicode="(" horiz-adv-x="577" 
d="M543 1516l71 -48q-97 -248 -143 -436q-121 -462 -121 -827q0 -257 45 -486l-86 -47q-55 261 -55 551q0 402 131 856q67 228 158 437z" />
    <glyph glyph-name="parenright" unicode=")" horiz-adv-x="577" 
d="M324 1468l84 48q57 -286 57 -553q0 -402 -111 -816q-68 -250 -172 -475l-78 47q82 193 144 414q123 439 123 825q0 265 -47 510z" />
    <glyph glyph-name="asterisk" unicode="*" horiz-adv-x="1122" 
d="M428 1311l244 -90l28 272h91l-41 -272l268 90l18 -84l-272 -78l139 -217l-78 -51l-129 225l-182 -225l-65 51l192 217l-252 78z" />
    <glyph glyph-name="plus" unicode="+" 
d="M145 635v78h404v372h82v-372h403v-78h-403v-373h-82v373h-404z" />
    <glyph glyph-name="comma" unicode="," horiz-adv-x="466" 
d="M43 -281l174 414l80 -24l-203 -410z" />
    <glyph glyph-name="hyphen" unicode="-" horiz-adv-x="614" 
d="M150 377l10 94h409l-10 -94h-409z" />
    <glyph glyph-name="period" unicode="." horiz-adv-x="413" 
d="M139 51q0 40 27 64q26 22 57 22q28 0 47 -16q21 -18 21 -49q0 -37 -25 -62q-24 -24 -61 -24q-24 0 -45 16q-21 18 -21 49z" />
    <glyph glyph-name="slash" unicode="/" horiz-adv-x="1179" 
d="M2 -324l1258 1846l61 -33l-1258 -1845z" />
    <glyph glyph-name="zero" unicode="0" horiz-adv-x="1122" 
d="M719 1384q163 0 268 -110q57 -59 93 -146.5t48.5 -165.5t12.5 -157q0 -75 -11.5 -157.5t-37 -178t-76.5 -189t-121 -161.5q-142 -142 -340 -142q-155 0 -258 103q-75 75 -118.5 201.5t-43.5 273.5q0 185 61 368t179 306q148 155 344 155zM557 59q152 0 264 109
q61 60 107 145.5t71 175t36.5 171t11.5 153.5q0 120 -32.5 226.5t-94.5 174.5q-83 89 -209 89q-148 0 -262 -117q-104 -107 -163 -280t-59 -349q0 -285 133 -418q80 -80 197 -80z" />
    <glyph glyph-name="one" unicode="1" horiz-adv-x="1122" 
d="M557 0l158 1284h-213l51 82h262l-168 -1366h-90z" />
    <glyph glyph-name="two" unicode="2" horiz-adv-x="1122" 
d="M965 0h-842l596 578q153 153 199 217q83 117 83 241q0 112 -73 185q-82 82 -221 82q-148 0 -236 -91q-42 -43 -68 -104.5t-30 -128.5h-90q8 80 41 158t82 129q115 118 305 118q84 0 157.5 -26t122.5 -70q48 -44 76.5 -107t28.5 -134q0 -150 -99 -285q-47 -70 -223 -242
l-450 -438h651z" />
    <glyph glyph-name="three" unicode="3" horiz-adv-x="1122" 
d="M193 332h90q4 -57 26.5 -111t55.5 -88q71 -74 196 -74q145 0 232 97q44 49 68 118t24 138q0 58 -20.5 110.5t-57.5 85.5q-34 32 -86.5 47.5t-106.5 12.5l11 82q70 0 132.5 24.5t102.5 63.5q86 83 86 221q0 114 -69 178q-70 66 -183 66q-123 0 -198 -80q-63 -70 -80 -183
h-86q8 68 37 134t73 110q100 100 265 100q155 0 249 -94q88 -88 88 -225q0 -136 -71 -225q-34 -42 -84 -75.5t-103 -51.5q91 -30 146 -111q51 -76 51 -180q0 -91 -30.5 -175t-86.5 -145q-118 -125 -309 -125q-159 0 -254 97q-93 96 -108 258z" />
    <glyph glyph-name="four" unicode="4" horiz-adv-x="1122" 
d="M1024 1411l-131 -1069h190l-10 -82h-190l-33 -260h-90l33 260h-736zM231 342h572l98 799z" />
    <glyph glyph-name="five" unicode="5" horiz-adv-x="1122" 
d="M1130 1366l-10 -82h-458l-160 -369q57 13 104 13q186 0 295 -105q117 -110 117 -303q0 -124 -40.5 -227t-111.5 -174q-140 -142 -385 -142q-145 0 -250 68q-90 60 -145 158l84 33q47 -83 121 -127q80 -50 213 -50q181 0 297 119q121 128 121 324q0 157 -91 248
q-92 96 -245 96q-121 0 -226 -60l248 580h522z" />
    <glyph glyph-name="six" unicode="6" horiz-adv-x="1122" 
d="M782 1384l64 -53l-357 -430q67 33 158 33q100 0 185.5 -33t144.5 -90q125 -122 125 -311q0 -107 -41.5 -211.5t-108.5 -173.5q-136 -138 -366 -138q-211 0 -336 125q-129 129 -129 326q0 138 61 248q7 13 15 26.5t18.5 28t18.5 25.5t22 28.5t21 26t25 29.5t24.5 28.5
t28 32t28.5 31.5zM590 59q178 0 289 109q62 62 94.5 148.5t32.5 175.5q0 159 -107 262q-105 98 -276 98q-169 0 -279 -104q-127 -118 -127 -314q0 -167 105 -272q103 -103 268 -103z" />
    <glyph glyph-name="seven" unicode="7" horiz-adv-x="1122" 
d="M115 29l968 1255h-825l10 82h989l-1077 -1389z" />
    <glyph glyph-name="eight" unicode="8" horiz-adv-x="1122" 
d="M817 705q79 -32 129 -99q58 -80 58 -200q0 -191 -117 -312q-112 -117 -309 -117q-175 0 -275 103q-98 102 -98 244q0 144 80 254q74 100 188 131q-71 46 -111 112q-45 70 -45 158q0 176 105 287q112 118 291 118q146 0 241 -88q95 -90 95 -237q0 -132 -68 -228
q-60 -84 -164 -126zM659 748q126 0 205 79q90 87 90 230q0 119 -75 184q-71 62 -179 62q-122 0 -196 -74q-42 -41 -66 -105.5t-24 -134.5q0 -107 67 -174q70 -67 178 -67zM573 59q158 0 248 97q42 45 65 111t23 136q0 123 -78 195q-77 72 -202 72q-143 0 -230 -84
q-98 -95 -98 -250q0 -116 72 -195q73 -82 200 -82z" />
    <glyph glyph-name="nine" unicode="9" horiz-adv-x="1122" 
d="M498 -23l-64 54l350 424q-96 -29 -166 -29q-86 0 -171 32.5t-146 94.5q-123 123 -123 309q0 107 39 206t113 173q146 143 364 143q204 0 328 -112q63 -57 100 -138t37 -178q0 -111 -43 -208q-41 -95 -135 -203zM692 1303q-172 0 -291 -113q-129 -124 -129 -318
q0 -152 97 -258q57 -61 123 -83.5t149 -22.5q90 0 160.5 27t132.5 88q129 129 129 323q0 157 -100 254q-103 103 -271 103z" />
    <glyph glyph-name="colon" unicode=":" horiz-adv-x="413" 
d="M139 43q0 39 27 63q28 23 57 23q28 0 47 -16q21 -18 21 -50q0 -36 -25 -61t-61 -25q-22 0 -45 17q-21 18 -21 49zM227 768q0 39 27 63q28 23 57 23q28 0 47 -16q21 -18 21 -50q0 -36 -25 -61t-61 -25q-22 0 -45 17q-21 17 -21 49z" />
    <glyph glyph-name="semicolon" unicode=";" horiz-adv-x="466" 
d="M43 -281l174 414l80 -24l-203 -410zM231 768q0 39 27 63q28 23 57 23q28 0 47 -16q21 -18 21 -47q0 -39 -25 -64t-61 -25q-22 0 -45 17q-21 17 -21 49z" />
    <glyph glyph-name="less" unicode="&#x3c;" 
d="M174 711l889 393v-84l-799 -348l799 -348v-84l-889 393v78z" />
    <glyph glyph-name="equal" unicode="=" 
d="M145 780v78h889v-78h-889zM145 489v78h889v-78h-889z" />
    <glyph glyph-name="greater" unicode="&#x3e;" 
d="M1016 633l-889 -393v84l799 348l-799 348v84l889 -393v-78z" />
    <glyph glyph-name="question" unicode="?" horiz-adv-x="962" 
d="M745 547h82q-12 -177 -106 -244q-75 -55 -195 -55q-126 0 -202 76q-70 74 -70 174q0 123 86 209q28 27 69.5 47.5t73.5 30.5t105 30q133 35 186 88q70 73 70 197q0 102 -60 162q-55 55 -161 55q-120 0 -183 -70q-31 -32 -49 -87t-18 -116q0 -33 6 -63h-90q-6 34 -6 70
q0 73 24.5 140t69.5 114q89 94 254 94q140 0 223 -76q86 -81 86 -219q0 -158 -100 -254q-76 -73 -201 -105l-61 -16q-130 -35 -177 -82q-55 -55 -55 -147q0 -74 47 -125q49 -49 142 -49q81 0 131 39q74 58 79 182zM416 43q0 40 26 63q28 23 58 23q28 0 47 -16q20 -17 20 -50
q0 -37 -24 -61q-25 -25 -62 -25q-22 0 -45 17q-20 17 -20 49z" />
    <glyph glyph-name="at" unicode="@" horiz-adv-x="1511" 
d="M1112 846l49 160h66l-144 -455q-26 -86 -26 -125t22 -61q23 -23 66 -23q87 0 160 64q72 65 113.5 186.5t41.5 232.5q0 101 -34 187.5t-91 146.5q-74 77 -186.5 118.5t-239.5 41.5q-144 0 -272.5 -51.5t-220.5 -147.5q-90 -93 -143.5 -233.5t-53.5 -292.5q0 -234 146 -391
q158 -168 450 -168q135 0 277 37q99 25 192 78l16 -60q-111 -60 -219 -84q-139 -33 -276 -33q-159 0 -288.5 52t-211.5 141q-68 73 -111.5 183t-43.5 249q0 169 61.5 320t163.5 253q209 209 545 209q288 0 456 -168q148 -151 148 -383q0 -117 -40.5 -245t-129.5 -213
q-89 -86 -211 -86q-73 0 -107 34q-43 43 -32 115q-40 -64 -101 -106q-66 -47 -162 -47q-113 0 -184 71q-78 75 -78 215q0 105 44 204t110 163q56 54 116 76t136 22q99 0 157 -51q63 -55 70 -135zM745 346q106 0 189 86q65 69 96 165t31 169q0 92 -51 147q-49 54 -140 54
q-110 0 -192 -82q-62 -62 -94.5 -151.5t-32.5 -160.5q0 -108 53 -167q50 -60 141 -60z" />
    <glyph glyph-name="A" unicode="A" horiz-adv-x="1200" 
d="M1077 0l-127 449h-581l-238 -449h-102l747 1407l395 -1407h-94zM412 530h516l-176 648z" />
    <glyph glyph-name="B" unicode="B" horiz-adv-x="1097" 
d="M184 0l168 1366h262q199 0 293 -92q82 -79 82 -215q0 -171 -104 -271q-40 -40 -97 -63q98 -26 164 -92q82 -84 82 -223q0 -89 -31 -166t-83 -129q-72 -70 -174 -92.5t-242 -22.5h-238h-82zM432 1284l-65 -536h196q36 0 57.5 1.5t60 8t72 24.5t62.5 47q80 80 80 220
q0 113 -72 176q-71 59 -223 59h-168zM356 666l-71 -584h229q125 0 205 19.5t137 78.5q82 85 82 226q0 109 -70 176q-89 84 -299 84h-213z" />
    <glyph glyph-name="C" unicode="C" horiz-adv-x="1396" 
d="M1434 1206l-15 -119q-79 101 -182 156q-116 60 -254 60q-128 0 -256 -50t-229 -151q-99 -99 -152 -230.5t-53 -261.5q0 -112 42.5 -215t115.5 -178q73 -74 174.5 -116t214.5 -42q139 0 264 58q121 55 215 149l-14 -119q-92 -78 -197 -122q-117 -48 -270 -48
q-276 0 -455 179q-188 188 -188 458q0 145 58.5 290t182.5 263q227 217 549 217q146 0 279 -55q98 -48 170 -123z" />
    <glyph glyph-name="D" unicode="D" horiz-adv-x="1269" 
d="M455 0h-185h-86l168 1366h252q330 0 498 -190q141 -159 141 -426q0 -354 -213 -557q-205 -193 -575 -193zM432 1284l-147 -1202h178q320 0 498 178q190 188 190 500q0 220 -133 364q-151 160 -428 160h-158z" />
    <glyph glyph-name="E" unicode="E" horiz-adv-x="950" 
d="M1008 1366l-11 -82h-565l-61 -496h553l-11 -81h-553l-75 -625h565l-10 -82h-570h-86l168 1366h656z" />
    <glyph glyph-name="F" unicode="F" horiz-adv-x="831" 
d="M905 1366l-10 -82h-463l-61 -496h450l-10 -81h-451l-86 -707h-90l168 1366h553z" />
    <glyph glyph-name="G" unicode="G" horiz-adv-x="1583" 
d="M969 573l10 82h573q-12 -122 -61 -251.5t-152 -231.5q-197 -195 -489 -195q-288 0 -471 183q-184 181 -184 450q0 173 62 314t165 241q223 219 559 219q201 0 360 -100q130 -86 207 -219l-80 -57q-73 129 -172 198q-139 97 -319 97q-140 0 -268.5 -52.5t-219.5 -140.5
q-96 -95 -149 -225.5t-53 -263.5q0 -119 42.5 -221t112.5 -175q76 -79 178 -122.5t216 -43.5q130 0 247.5 48.5t202.5 136.5q131 135 164 329h-481z" />
    <glyph glyph-name="H" unicode="H" horiz-adv-x="1376" 
d="M442 1366l-71 -580h827l72 580h90l-168 -1366h-90l86 705h-828l-86 -705h-90l168 1366h90z" />
    <glyph glyph-name="I" unicode="I" horiz-adv-x="458" 
d="M352 1366h90l-168 -1366h-90z" />
    <glyph glyph-name="J" unicode="J" horiz-adv-x="548" 
d="M442 1366h90l-133 -1081q-11 -89 -28.5 -146.5t-57.5 -97.5q-66 -64 -180 -64q-87 0 -145 48q-48 36 -74 100l70 49q19 -55 53 -82q37 -33 102 -33q70 0 109 41q46 46 59 166z" />
    <glyph glyph-name="K" unicode="K" horiz-adv-x="1105" 
d="M442 1366l-80 -643l725 643h119l-745 -655l612 -711h-119l-563 651l-41 -35l-76 -616h-90l168 1366h90z" />
    <glyph glyph-name="L" unicode="L" horiz-adv-x="684" 
d="M352 1366h90l-157 -1284h381l-11 -82h-471z" />
    <glyph glyph-name="M" unicode="M" horiz-adv-x="1835" 
d="M260 0h-90l330 1413l436 -1263l747 1263l-18 -1413h-90l14 1098l-678 -1147l-395 1147z" />
    <glyph glyph-name="N" unicode="N" horiz-adv-x="1605" 
d="M274 0h-90l170 1380l1000 -1204l145 1190h90l-172 -1401l-999 1204z" />
    <glyph glyph-name="O" unicode="O" horiz-adv-x="1648" 
d="M981 1384q289 0 473 -188q168 -174 168 -440q0 -344 -229 -568q-117 -114 -251.5 -162.5t-295.5 -48.5q-142 0 -255 40t-210 135q-186 181 -186 454q0 145 59 292t174 263q221 223 553 223zM834 59q298 0 491 189q98 98 151.5 234t53.5 270q0 121 -42.5 221.5
t-113.5 171.5q-72 72 -174.5 115t-226.5 43q-280 0 -475 -191q-103 -102 -156 -233.5t-53 -264.5q0 -231 149 -391q156 -164 396 -164z" />
    <glyph glyph-name="P" unicode="P" horiz-adv-x="917" 
d="M530 649h-176l-80 -649h-90l168 1366h264q183 0 277 -96q84 -84 84 -230q0 -84 -27 -156.5t-73 -119.5q-111 -115 -347 -115zM432 1284l-67 -553h180q167 0 252 80q82 78 82 225q0 103 -60 168q-34 37 -80.5 56t-77 21.5t-83.5 2.5h-146z" />
    <glyph glyph-name="Q" unicode="Q" horiz-adv-x="1648" 
d="M1505 0h-110l-101 125q-185 -148 -446 -148q-286 0 -471 189q-89 90 -135.5 208.5t-46.5 248.5q0 158 61.5 298.5t165.5 241.5q105 102 252.5 161.5t308.5 59.5q139 0 257 -48.5t204 -131.5q178 -174 178 -444q0 -176 -80 -346q-67 -144 -184 -236zM1055 559l252 -309
q102 99 153 201q70 134 70 297q0 239 -156 395q-162 162 -413 162q-137 0 -259 -52.5t-210 -138.5q-91 -89 -147 -216t-56 -257q0 -118 48.5 -234t127.5 -194q158 -154 387 -154q204 0 387 134l-295 366h111z" />
    <glyph glyph-name="R" unicode="R" horiz-adv-x="962" 
d="M860 0h-102l-363 645h-41l-80 -645h-90l168 1366h213q191 0 289 -94q84 -82 84 -228q0 -181 -109 -286q-64 -61 -155.5 -87t-179.5 -26zM432 1284l-67 -557h131q179 0 266 82q37 35 59.5 94t22.5 129q0 118 -74 185t-225 67h-113z" />
    <glyph glyph-name="S" unicode="S" horiz-adv-x="1052" 
d="M1018 1190l-72 -55q-21 57 -57.5 94.5t-77.5 51.5t-64.5 18t-44.5 4q-128 0 -210 -82q-80 -80 -80 -193q0 -83 57 -143q16 -17 37.5 -33t37.5 -25t45 -25t44 -24l67 -37q18 -10 58.5 -32t59.5 -32.5t45.5 -30t45.5 -38.5q82 -82 82 -207q0 -184 -127 -305
q-72 -70 -155.5 -94.5t-184.5 -24.5q-173 0 -274 101q-76 76 -107 192l82 37q30 -104 90 -164q84 -84 213 -84q77 0 149.5 23t121.5 68q94 89 94 237q0 100 -66 166q-18 18 -44 36t-44 28t-52 28t-44 23l-94 51q-101 56 -154 112q-78 81 -78 193q0 145 105 250
q114 110 285 110q104 0 188 -48.5t123 -145.5z" />
    <glyph glyph-name="T" unicode="T" horiz-adv-x="856" 
d="M985 1284h-354l-158 -1284h-90l158 1284h-355l11 82h798z" />
    <glyph glyph-name="U" unicode="U" horiz-adv-x="1296" 
d="M350 1366h90l-104 -854q-16 -131 -10 -187q11 -109 82 -178q90 -88 254 -88q189 0 296 107q44 44 71.5 106.5t36.5 109.5t19 130l105 854h90l-104 -854q-6 -52 -9.5 -79t-15.5 -79.5t-27 -88t-43 -80.5t-65 -81q-77 -75 -164.5 -101t-192.5 -26q-212 0 -325 113
q-52 53 -76 122t-22.5 141.5t10.5 158.5z" />
    <glyph glyph-name="V" unicode="V" horiz-adv-x="1044" 
d="M197 1366h98l258 -1163l532 1163h99l-662 -1421z" />
    <glyph glyph-name="W" unicode="W" horiz-adv-x="2015" 
d="M197 1366h94l233 -1159l645 1233l312 -1233l571 1159h102l-700 -1417l-311 1241l-660 -1241z" />
    <glyph glyph-name="X" unicode="X" horiz-adv-x="962" 
d="M47 0l461 696l-277 670h95l237 -584l383 584h103l-439 -670l289 -696h-94l-254 614l-401 -614h-103z" />
    <glyph glyph-name="Y" unicode="Y" horiz-adv-x="1056" 
d="M477 0l72 584l-352 782h98l309 -690l486 690h106l-557 -782l-72 -584h-90z" />
    <glyph glyph-name="Z" unicode="Z" horiz-adv-x="1134" 
d="M1227 1366l-989 -1284h809l-11 -82h-960l989 1284h-752l11 82h903z" />
    <glyph glyph-name="bracketleft" unicode="[" horiz-adv-x="569" 
d="M662 1411h-218l-204 -1657h217l-11 -82h-210h-97l226 1821h307z" />
    <glyph glyph-name="backslash" unicode="\" horiz-adv-x="1179" 
d="M1100 -324l-70 -32l-807 1845l70 33z" />
    <glyph glyph-name="bracketright" unicode="]" horiz-adv-x="569" 
d="M51 -246h217l205 1657h-217l10 82h307l-225 -1821h-92h-215z" />
    <glyph glyph-name="asciicircum" unicode="^" 
d="M608 1303l-342 -521h-94l381 584h111l380 -584h-94z" />
    <glyph glyph-name="underscore" unicode="_" 
d="M0 -238v78h1024v-78h-1024z" />
    <glyph glyph-name="grave" unicode="`" 
d="M625 956l-183 263l95 51l153 -281z" />
    <glyph glyph-name="a" unicode="a" horiz-adv-x="1060" 
d="M913 672l21 164h82l-103 -836h-82l17 129q-54 -74 -123 -109q-84 -43 -193 -43q-164 0 -266 97q-121 112 -121 303q0 105 36.5 200.5t105.5 161.5q119 115 309 115q122 0 203 -55q72 -49 114 -127zM580 776q-144 0 -236 -92q-52 -52 -82.5 -132.5t-30.5 -168.5
q0 -76 27 -142t70 -108q83 -78 213 -78q113 0 198 62q44 32 75.5 77t47 92t22.5 88t7 79q0 153 -86 239q-79 84 -225 84z" />
    <glyph glyph-name="b" unicode="b" horiz-adv-x="1060" 
d="M332 1493h82l-99 -795q49 69 117 107q85 49 195 49q176 0 282 -106q109 -109 109 -283q0 -109 -37 -205.5t-104 -163.5q-123 -119 -299 -119q-120 0 -205 60q-74 51 -121 139l-23 -176h-82zM590 55q137 0 225 88q53 52 85 140.5t32 181.5q0 133 -86 223q-42 42 -99.5 65
t-117.5 23q-66 0 -129.5 -25t-110.5 -71q-54 -52 -84.5 -130.5t-30.5 -160.5q0 -155 95 -250q84 -84 221 -84z" />
    <glyph glyph-name="c" unicode="c" horiz-adv-x="909" 
d="M913 748l-14 -109q-52 59 -115 94q-77 43 -166 43q-55 0 -103.5 -11.5t-82.5 -30.5t-54.5 -34.5t-35.5 -31.5q-55 -55 -83 -133t-28 -154q0 -63 22.5 -126t63.5 -108q85 -92 236 -92q98 0 172 39q76 41 131 111l-14 -119q-63 -51 -119 -76q-77 -33 -174 -33
q-184 0 -295 111q-109 113 -109 293q0 108 39 198t101 150q128 125 331 125q90 0 183 -37q52 -22 114 -69z" />
    <glyph glyph-name="d" unicode="d" horiz-adv-x="1062" 
d="M915 668l103 825h82l-185 -1493h-81l14 119q-58 -69 -131 -105q-75 -37 -174 -37q-188 0 -291 111q-107 115 -107 303q0 206 138 344q122 119 307 119q120 0 209 -57q73 -48 116 -129zM584 776q-135 0 -230 -92q-54 -52 -86 -130.5t-32 -164.5q0 -68 23.5 -134t68.5 -114
q80 -86 215 -86q140 0 237 92q57 55 85 139.5t28 172.5q0 147 -90 233q-84 84 -219 84z" />
    <glyph glyph-name="e" unicode="e" horiz-adv-x="997" 
d="M948 408h-712q-13 -78 12 -151.5t71 -119.5q82 -82 211 -82q116 0 199 60q70 51 109 131l63 -41q-62 -109 -149 -166q-92 -62 -224 -62q-175 0 -278 111q-105 111 -105 285q0 220 140 360q121 121 299 121q163 0 262 -96q120 -115 102 -350zM248 485h618
q-1 63 -24.5 119.5t-59.5 93.5q-74 78 -198 78q-145 0 -240 -100q-75 -78 -96 -191z" />
    <glyph glyph-name="f" unicode="f" horiz-adv-x="438" 
d="M530 758h-208l-93 -758h-82l93 758h-95l11 78h94l49 397q19 164 82 227q58 58 154 58q38 0 88 -13l-9 -75q-35 10 -71 10q-66 0 -105 -39q-42 -42 -59 -184l-47 -381h209z" />
    <glyph glyph-name="g" unicode="g" horiz-adv-x="1064" 
d="M938 836h82l-98 -811q-9 -74 -19.5 -127t-41.5 -124.5t-77 -119.5q-56 -59 -140 -92t-187 -33q-179 0 -277 98q-45 43 -74 111.5t-30 148.5h86q4 -123 74 -196q80 -84 231 -84q160 0 252 92q91 91 121 326l14 118q-52 -76 -135 -118q-93 -48 -195 -48q-178 0 -280 107
q-107 114 -107 293q0 99 34 191.5t101 160.5q66 69 143.5 97t172.5 28q136 0 227 -57q64 -45 105 -107zM590 776q-144 0 -244 -92q-55 -52 -87 -134.5t-32 -172.5q0 -137 88 -234q82 -88 230 -88q145 0 239 97q52 55 81.5 136.5t29.5 170.5q0 151 -88 235q-38 38 -96 60
t-121 22z" />
    <glyph glyph-name="h" unicode="h" horiz-adv-x="905" 
d="M147 0l185 1493h82l-99 -788q37 61 93 100q69 49 167 49q119 0 185 -63q39 -36 55 -90.5t15 -88t-7 -86.5l-65 -526h-82l65 526q10 49 1.5 107t-44.5 94q-49 49 -133 49q-105 0 -176 -71q-85 -85 -106 -271l-54 -434h-82z" />
    <glyph glyph-name="i" unicode="i" horiz-adv-x="376" 
d="M250 836h82l-103 -836h-82zM315 1038q-28 0 -47 19q-16 16 -16 45q0 41 27 65q23 23 55 23q28 0 47 -19q18 -18 18 -47q0 -37 -24 -61q-25 -25 -60 -25z" />
    <glyph glyph-name="j" unicode="j" horiz-adv-x="376" 
d="M250 836h82l-162 -1307h-82zM315 1038q-28 0 -47 19q-16 16 -16 45q0 41 27 65q23 23 55 23q28 0 47 -19q18 -18 18 -47q0 -37 -24 -61q-25 -25 -60 -25z" />
    <glyph glyph-name="k" unicode="k" horiz-adv-x="804" 
d="M332 1493h82l-125 -1016l387 359h106l-399 -367l405 -469h-104l-360 414l-50 -43l-45 -371h-82z" />
    <glyph glyph-name="l" unicode="l" horiz-adv-x="376" 
d="M332 1493h82l-185 -1493h-82z" />
    <glyph glyph-name="m" unicode="m" horiz-adv-x="1337" 
d="M147 0l103 836h82l-13 -105q33 57 82 86q59 37 138 37q96 0 153 -43q54 -37 74 -109q28 67 88 107q64 45 160 45q118 0 186 -68q57 -60 57 -155q0 -53 -10 -139l-59 -492h-82l59 485q11 88 11 117q0 78 -46 127q-45 47 -129 47q-90 0 -145 -53q-39 -38 -58 -97t-30 -143
l-59 -483h-82l59 481q10 82 10 119q0 86 -43 129q-47 47 -129 47q-91 0 -147 -59q-71 -74 -90 -248l-58 -469h-82z" />
    <glyph glyph-name="n" unicode="n" horiz-adv-x="905" 
d="M147 0l103 836h82l-17 -131q36 66 97 104q67 45 166 45q122 0 188 -66q63 -63 63 -165q0 -10 -12 -148l-59 -475h-82l59 487q10 95 10 111q0 80 -45 127q-47 51 -141 51q-104 0 -172 -65q-79 -76 -104 -277l-54 -434h-82z" />
    <glyph glyph-name="o" unicode="o" horiz-adv-x="1073" 
d="M614 854q89 0 173 -31t139 -86q104 -104 104 -288q0 -219 -137 -349q-133 -123 -342 -123q-185 0 -295 115q-51 53 -81 128.5t-30 162.5q0 97 37.5 190t102.5 156q64 61 151 93t178 32zM563 55q152 0 258 95q123 115 123 290q0 142 -88 238q-94 98 -250 98
q-150 0 -254 -94q-58 -53 -89.5 -129.5t-31.5 -157.5q0 -72 25.5 -137.5t69.5 -110.5q88 -92 237 -92z" />
    <glyph glyph-name="p" unicode="p" horiz-adv-x="1060" 
d="M248 150l-74 -621h-82l158 1307h82l-19 -146q46 67 125 113q91 51 209 51q169 0 271 -102q100 -104 100 -279q0 -237 -141 -375q-121 -121 -304 -121q-121 0 -215 60q-68 46 -110 113zM571 55q150 0 240 82q55 51 88 135.5t33 186.5q0 150 -92 239q-78 78 -201 78
q-150 0 -250 -100q-53 -53 -84 -132.5t-31 -172.5q0 -145 93 -238q81 -78 204 -78z" />
    <glyph glyph-name="q" unicode="q" horiz-adv-x="1060" 
d="M856 -471h-82l76 621q-60 -90 -145 -132q-84 -41 -195 -41q-167 0 -264 105q-101 105 -101 278q0 116 40 211.5t106 161.5q124 121 319 121q114 0 195 -51q61 -38 110 -113l19 146h82zM598 776q-154 0 -256 -106q-111 -117 -111 -303q0 -149 93 -238q77 -74 202 -74
q140 0 238 86q57 52 92 138.5t35 185.5q0 145 -86 231q-77 80 -207 80z" />
    <glyph glyph-name="r" unicode="r" horiz-adv-x="532" 
d="M147 0l103 836h82l-13 -109q29 57 80 90q53 37 123 37q43 0 82 -20l-49 -74q-21 16 -59 16q-65 0 -115 -53q-32 -33 -53 -90.5t-29 -101.5t-16 -111l-54 -420h-82z" />
    <glyph glyph-name="s" unicode="s" horiz-adv-x="700" 
d="M678 719l-74 -37q-15 45 -47 68q-39 26 -92 26q-72 0 -117 -45q-37 -37 -37 -92q0 -44 33 -80q24 -24 86 -51l64 -27q83 -34 122 -73q56 -58 56 -148q0 -115 -74 -194q-85 -89 -229 -89q-121 0 -193 72q-57 57 -74 150l82 24q12 -73 56 -117q51 -51 131 -51q96 0 153 54
q60 60 60 141q0 61 -39 100q-27 27 -101 60l-49 20q-77 32 -121 76q-49 49 -49 121q0 91 62 153q71 74 184 74q81 0 135 -37q54 -36 72 -98z" />
    <glyph glyph-name="t" unicode="t" horiz-adv-x="397" 
d="M473 758h-145l-92 -758h-82l92 758h-92l10 78h92l37 299h82l-37 -299h145z" />
    <glyph glyph-name="u" unicode="u" horiz-adv-x="894" 
d="M248 836h82l-62 -504q-20 -162 51 -228q55 -49 144 -49q107 0 170 66q57 61 74 211l61 504h82l-70 -527q-8 -57 -14.5 -89.5t-24 -77t-45.5 -76.5q-80 -89 -237 -89q-135 0 -209 76q-30 31 -46.5 68.5t-20 78.5t-2.5 66.5t5 61.5z" />
    <glyph glyph-name="v" unicode="v" horiz-adv-x="798" 
d="M119 836h86l209 -695l377 695h94l-490 -887z" />
    <glyph glyph-name="w" unicode="w" horiz-adv-x="1376" 
d="M119 836h86l205 -691l378 742l199 -742l381 691h94l-495 -887l-199 741l-379 -741z" />
    <glyph glyph-name="x" unicode="x" horiz-adv-x="815" 
d="M16 0l392 438l-261 398h97l221 -344l303 344h100l-352 -398l283 -438h-97l-245 385l-340 -385h-101z" />
    <glyph glyph-name="y" unicode="y" horiz-adv-x="876" 
d="M160 -471l252 457l-293 850h90l260 -744l395 744h99l-709 -1307h-94z" />
    <glyph glyph-name="z" unicode="z" horiz-adv-x="925" 
d="M991 836l-768 -758h672l-10 -78h-848l776 758h-577l10 78h745z" />
    <glyph glyph-name="braceleft" unicode="{" horiz-adv-x="569" 
d="M150 553l8 59q55 14 88 47q46 46 59 160l47 395q18 141 76 203q41 46 98 61t136 15h14l-10 -82h-4q-35 0 -54.5 -1t-55.5 -12.5t-58 -33.5q-9 -9 -16 -19.5t-12.5 -23.5t-9 -22t-6.5 -25.5t-4 -22.5t-3.5 -24t-2.5 -19l-49 -393q-5 -39 -8.5 -59.5t-17 -58t-35.5 -60.5
q-38 -41 -97 -55q45 -18 74 -62q44 -66 29 -176l-45 -346q-6 -44 -6 -96q0 -83 32 -115q33 -33 125 -33h19l-10 -82h-19q-132 0 -186 56q-51 51 -51 170q0 2 8 102l43 348q5 42 6 60.5t-6.5 52t-28.5 55.5q-29 29 -67 37z" />
    <glyph glyph-name="bar" unicode="|" 
d="M471 -512v2048h82v-2048h-82z" />
    <glyph glyph-name="braceright" unicode="}" horiz-adv-x="569" 
d="M563 612l-8 -59q-49 -12 -84 -47q-49 -51 -61 -158l-45 -360q-20 -179 -91 -248q-70 -68 -219 -68h-18l10 82h14q105 0 152 47q43 43 61 185l45 358q18 126 74 184q36 36 86 54q-40 16 -67 43q-41 41 -41 114q0 23 10 105l37 311q10 90 10 119q0 73 -39 106
q-36 31 -131 31h-6l10 82h12q142 0 201 -61q47 -47 47 -136q0 -16 -14 -145l-35 -281q-10 -76 -10 -114q0 -72 35 -109q27 -27 65 -35z" />
    <glyph glyph-name="asciitilde" unicode="~" 
d="M229 399l-51 33q60 91 111 137q82 72 180 72q38 0 79 -13t66 -25.5t78 -41.5q9 -5 33 -19t31.5 -17.5t26.5 -13.5t28 -12.5t24.5 -7.5t29 -6.5t28.5 -1.5q90 0 156 66q35 35 73 94l54 -33q-42 -69 -91 -118q-83 -86 -198 -86q-56 0 -102 15.5t-142 70.5q-121 71 -186 71
q-80 0 -140 -55q-39 -36 -88 -109z" />
    <glyph glyph-name="uni00A0" unicode="&#xa0;" horiz-adv-x="477" 
 />
    <glyph glyph-name="exclamdown" unicode="&#xa1;" horiz-adv-x="532" 
d="M319 651h91l-140 -1122h-90zM311 823q0 40 27 64q26 22 57 22q28 0 47 -16q21 -18 21 -49q0 -37 -25 -62q-24 -24 -61 -24q-24 0 -45 16q-21 18 -21 49z" />
    <glyph glyph-name="cent" unicode="&#xa2;" horiz-adv-x="1122" 
d="M819 1341l-24 -208q78 -6 145 -35q58 -26 107 -70l-15 -108q-45 66 -106 98q-63 34 -142 37l-88 -721q84 -3 160 31q74 31 131 104l-14 -111q-51 -48 -127 -75q-82 -28 -158 -25l-29 -231h-77l28 233q-136 21 -223 111q-49 49 -78.5 124t-29.5 164q0 100 35 193t98 156
q122 122 305 122l24 211h78zM618 338l89 715q-135 -2 -230 -97q-51 -51 -80.5 -133.5t-29.5 -167.5q0 -141 82 -229q69 -74 169 -88z" />
    <glyph glyph-name="sterling" unicode="&#xa3;" horiz-adv-x="1122" 
d="M266 559l8 82h201l-33 72q-4 9 -18 39t-19.5 42t-16.5 38.5t-16 43t-11 39.5t-8.5 44t-2.5 42q0 70 28.5 143.5t84.5 129.5q106 106 272 106q72 0 142 -25t114 -71q76 -79 76 -209q0 -44 -6 -74h-90q6 30 6 58q0 101 -59 166q-65 73 -181 73q-121 0 -200 -79
q-43 -41 -67 -99t-24 -119q0 -70 33 -145q10 -26 34.5 -73.5t33.5 -67.5l35 -74h247l-8 -82h-219q23 -71 23 -145q0 -140 -125 -271l127 -45q6 -2 22.5 -8t21.5 -7.5t17 -5.5t17.5 -5t15.5 -3.5t16.5 -3.5t16 -1.5t18.5 -0.5q18 0 38 5t49 18t61 43.5t59 75.5l70 -45
q-42 -79 -116 -133t-165 -54q-26 0 -57 6.5t-50.5 13t-61 21.5t-58.5 21q-109 39 -158 39q-85 0 -197 -94l-41 65q121 117 258 117q129 122 129 256q0 73 -30 141h-236z" />
    <glyph glyph-name="currency" unicode="&#xa4;" horiz-adv-x="1122" 
d="M172 184l-49 52l184 182q-114 124 -114 299q0 172 108 293l-184 184l49 49l184 -182q62 58 143.5 86.5t157.5 28.5q74 0 153.5 -28t147.5 -87l185 182l49 -49l-185 -184q111 -121 111 -295q0 -170 -113 -293l187 -186l-49 -50l-187 187q-118 -113 -295 -113
q-178 0 -299 109zM1034 715q0 77 -31 151.5t-79 122.5q-51 52 -125 82.5t-148 30.5q-155 0 -266 -111q-115 -115 -115 -274q0 -77 30 -147.5t81 -123.5q108 -112 270 -112t271 112q112 112 112 269z" />
    <glyph glyph-name="yen" unicode="&#xa5;" horiz-adv-x="1122" 
d="M1122 801h-297l-151 -211h422l-11 -82h-423l-62 -508h-90l61 508h-409l10 82h406l-95 211h-284l10 82h237l-215 483h101l305 -686l481 686h109l-344 -483h250z" />
    <glyph glyph-name="brokenbar" unicode="&#xa6;" 
d="M471 799v737h82v-737h-82zM471 -512v737h82v-737h-82z" />
    <glyph glyph-name="section" unicode="&#xa7;" horiz-adv-x="1114" 
d="M233 27h91q-2 -10 -2 -43q0 -115 55 -170q58 -60 168 -60q123 0 186 70q29 32 45.5 82t16.5 96q0 93 -76 160q-18 16 -43 30t-42.5 21t-50.5 19l-44 16q-122 43 -183 106q-86 92 -86 230t72 225q70 90 188 117q-60 31 -104 96q-47 71 -47 156q0 149 94 243q95 95 254 95
q156 0 238 -82q28 -28 45.5 -60.5t24 -72t8 -62.5t1.5 -65v-11h-90v15q0 139 -59 198q-58 58 -174 58q-112 0 -178 -66q-68 -68 -68 -174q0 -84 62 -143q49 -47 180 -99q51 -21 75 -32t60 -33.5t61 -48.5q78 -81 78 -217q0 -129 -63 -213q-34 -46 -87.5 -81.5t-113.5 -52.5
q71 -35 115 -94q49 -69 49 -170q0 -146 -84 -237q-94 -101 -260 -101q-158 0 -236 78q-78 74 -78 223q0 36 2 54zM637 862q-115 0 -195 -76q-80 -80 -80 -206q0 -111 70 -177q33 -33 84.5 -51t104.5 -18q121 0 196 78q76 79 76 206q0 112 -76 181q-72 63 -180 63z" />
    <glyph glyph-name="dieresis" unicode="&#xa8;" 
d="M739 1071q0 30 25 55t59 25q31 0 49 -21q17 -21 17 -45q0 -32 -23 -55q-24 -26 -61 -26q-27 0 -45 18q-21 21 -21 49zM399 1071q0 30 25 55t59 25q31 0 49 -21q17 -21 17 -45q0 -32 -23 -55q-24 -26 -61 -26q-27 0 -45 18q-21 21 -21 49z" />
    <glyph glyph-name="copyright" unicode="&#xa9;" horiz-adv-x="1515" 
d="M1135 971v-109q-105 139 -265 139q-143 0 -231 -92q-94 -97 -94 -237q0 -135 94 -232q89 -92 231 -92q160 0 265 133v-106q-124 -101 -265 -101q-175 0 -288 113q-115 111 -115 281q0 183 119 299q111 108 282 108q156 0 267 -104zM1544 684q0 -134 -55 -270.5
t-158 -237.5q-92 -91 -217.5 -143.5t-271.5 -52.5q-147 0 -272.5 53t-217.5 143q-103 101 -158 237.5t-55 270.5q0 132 55.5 268.5t157.5 237.5q92 90 217.5 143t272.5 53q146 0 271.5 -52.5t217.5 -143.5q102 -101 157.5 -237.5t55.5 -268.5zM842 1325q-118 0 -229.5 -43.5
t-200.5 -128.5q-93 -89 -148 -214.5t-55 -254.5q0 -131 55 -256.5t148 -214.5q89 -85 200.5 -128.5t229.5 -43.5t229.5 43.5t200.5 128.5q93 89 148 214.5t55 256.5q0 129 -55 254.5t-148 214.5q-89 85 -200.5 128.5t-229.5 43.5z" />
    <glyph glyph-name="ordfeminine" unicode="&#xaa;" horiz-adv-x="696" 
d="M705 1253l10 101h53l-68 -549h-53l10 88q-33 -44 -84 -72q-50 -28 -127 -28q-110 0 -178 65q-73 70 -73 195q0 139 84 227q82 86 215 86q73 0 133 -35q53 -33 78 -78zM487 1317q-104 0 -165 -68q-32 -35 -50 -88.5t-18 -103.5q0 -101 59 -160q55 -55 146 -55
q104 0 162 67q67 70 67 195q0 97 -55 156q-53 57 -146 57zM160 666h522l-10 -70h-522z" />
    <glyph glyph-name="guillemotleft" unicode="&#xab;" horiz-adv-x="712" 
d="M215 424l191 -258l-60 -49l-229 307l305 307l47 -49zM432 424l191 -258l-60 -49l-229 307l305 307l47 -49z" />
    <glyph glyph-name="logicalnot" unicode="&#xac;" 
d="M983 0h-82v469h-807v78h889v-547z" />
    <glyph glyph-name="uni00AD" unicode="&#xad;" horiz-adv-x="614" 
d="M150 377l10 94h409l-10 -94h-409z" />
    <glyph glyph-name="registered" unicode="&#xae;" horiz-adv-x="1515" 
d="M1098 276h-82l-240 351h-14v-351h-70v758h146q110 0 168 -53q55 -55 55 -145q0 -97 -55 -150q-58 -58 -150 -61zM762 971v-281h74q81 0 118 39q35 35 35 102q0 73 -35 105q-35 35 -114 35h-78zM1544 684q0 -134 -55 -270.5t-158 -237.5q-92 -91 -217.5 -143.5
t-271.5 -52.5q-147 0 -272.5 53t-217.5 143q-103 101 -158 237.5t-55 270.5q0 132 55.5 268.5t157.5 237.5q92 90 217.5 143t272.5 53q146 0 271.5 -52.5t217.5 -143.5q102 -101 157.5 -237.5t55.5 -268.5zM842 1325q-118 0 -229.5 -43.5t-200.5 -128.5q-93 -89 -148 -214.5
t-55 -254.5q0 -131 55 -256.5t148 -214.5q89 -85 200.5 -128.5t229.5 -43.5t229.5 43.5t200.5 128.5q93 89 148 214.5t55 256.5q0 129 -55 254.5t-148 214.5q-89 85 -200.5 128.5t-229.5 43.5z" />
    <glyph glyph-name="macron" unicode="&#xaf;" 
d="M360 1010l9 80h553l-9 -80h-553z" />
    <glyph glyph-name="degree" unicode="&#xb0;" horiz-adv-x="1028" 
d="M668 1366q120 0 198 -78q64 -67 64 -164q0 -129 -80 -209q-86 -86 -217 -86q-121 0 -195 78q-65 69 -65 170q0 120 80 203q86 86 215 86zM641 903q90 0 145 51q62 56 62 160q0 82 -49 131q-50 47 -137 47q-91 0 -144 -53q-63 -60 -63 -162q0 -74 49 -123q51 -51 137 -51z
" />
    <glyph glyph-name="plusminus" unicode="&#xb1;" 
d="M123 694v78h403v371h82v-371h404v-78h-404v-370h-82v370h-403zM123 156v77h889v-77h-889z" />
    <glyph glyph-name="twosuperior" unicode="&#xb2;" horiz-adv-x="677" 
d="M647 545h-504l342 346q80 80 113 131q45 64 45 135q0 63 -37 100q-43 43 -121 43q-80 0 -120 -40q-23 -23 -39 -58.5t-19 -68.5h-74q15 106 78 172q67 69 181 69q115 0 180 -65q55 -55 55 -146q0 -82 -47 -153q-23 -39 -107 -125l-258 -267h340z" />
    <glyph glyph-name="threesuperior" unicode="&#xb3;" horiz-adv-x="677" 
d="M190 748h74q0 -62 37 -99q39 -39 109 -39t118 41q54 50 54 140q0 70 -45 108q-44 37 -125 37h-11l11 74q113 0 166 53q40 46 40 113q0 58 -32 90q-37 37 -99 37q-64 0 -102 -46q-29 -37 -39 -86h-74q14 90 72 148q57 57 145 57q94 0 154 -57q57 -57 57 -143
q0 -89 -57 -146q-41 -41 -98 -55q50 -17 80 -55q37 -47 37 -121q0 -121 -72 -193q-66 -69 -182 -69q-105 0 -164 63q-54 57 -54 148z" />
    <glyph glyph-name="acute" unicode="&#xb4;" 
d="M780 1270l82 -51l-248 -263l-57 33z" />
    <glyph glyph-name="mu" unicode="&#xb5;" horiz-adv-x="1021" 
d="M170 -471h-82l160 1307h82l-45 -381q-13 -107 -13 -144q0 -118 68 -186q70 -70 184 -70q125 0 203 78q54 53 79.5 127.5t39.5 185.5l49 390h82l-103 -836h-81l18 152q-45 -79 -111 -125q-74 -50 -182 -50q-114 0 -184 56q-59 47 -86 127z" />
    <glyph glyph-name="mu" unicode="&#x3bc;" horiz-adv-x="1021" 
d="M170 -471h-82l160 1307h82l-45 -381q-13 -107 -13 -144q0 -118 68 -186q70 -70 184 -70q125 0 203 78q54 53 79.5 127.5t39.5 185.5l49 390h82l-103 -836h-81l18 152q-45 -79 -111 -125q-74 -50 -182 -50q-114 0 -184 56q-59 47 -86 127z" />
    <glyph glyph-name="paragraph" unicode="&#xb6;" horiz-adv-x="1091" 
d="M506 -195h-74l103 832h-7q-167 0 -266 86q-102 89 -102 240q0 89 29.5 164t78.5 124q67 67 162.5 91t216.5 24h473l-8 -68h-108l-187 -1493h-74l187 1493h-240z" />
    <glyph glyph-name="periodcentered" unicode="&#xb7;" horiz-adv-x="409" 
d="M193 680q0 49 30 82q33 33 80 33q39 0 64 -25q22 -22 22 -57q0 -44 -31 -80q-32 -35 -79 -35q-39 0 -64 25q-22 22 -22 57z" />
    <glyph glyph-name="cedilla" unicode="&#xb8;" 
d="M539 -102l90 -41l-244 -254l-53 32z" />
    <glyph glyph-name="onesuperior" unicode="&#xb9;" horiz-adv-x="675" 
d="M379 547l90 745h-127l35 74h180l-100 -819h-78z" />
    <glyph glyph-name="ordmasculine" unicode="&#xba;" horiz-adv-x="702" 
d="M502 1366q121 0 196 -68q76 -68 76 -192q0 -139 -86 -225q-88 -88 -229 -88q-116 0 -191 71t-75 193q0 139 92 227q88 82 217 82zM160 666h547l-11 -70h-546zM498 1317q-103 0 -174 -68q-74 -71 -74 -192q0 -92 57 -154q58 -61 158 -61q111 0 180 69q72 68 72 191
q0 95 -58 153q-62 62 -161 62z" />
    <glyph glyph-name="guillemotright" unicode="&#xbb;" horiz-adv-x="712" 
d="M383 424l-188 258l59 49l227 -307l-303 -307l-47 49zM600 424l-188 258l59 49l227 -307l-303 -307l-47 49z" />
    <glyph glyph-name="onequarter" unicode="&#xbc;" horiz-adv-x="1556" 
d="M379 547l90 745h-127l35 74h180l-100 -819h-78zM385 2l979 1395l57 -33l-979 -1395zM1497 846l-76 -617h115l-10 -73h-115l-18 -156h-78l18 156h-418zM1069 229h274l48 389z" />
    <glyph glyph-name="onehalf" unicode="&#xbd;" horiz-adv-x="1558" 
d="M379 547l90 745h-127l35 74h180l-100 -819h-78zM324 2l979 1395l57 -33l-979 -1395zM1460 0h-504l342 346q80 80 113 131q45 64 45 135q0 64 -37 101q-43 43 -121 43q-79 0 -120 -41q-23 -23 -39 -58.5t-19 -68.5h-73q15 107 77 172q67 69 181 69q115 0 180 -65
q55 -55 55 -146q0 -82 -47 -153q-23 -39 -107 -125l-258 -266h340z" />
    <glyph glyph-name="threequarters" unicode="&#xbe;" horiz-adv-x="1556" 
d="M190 748h74q0 -62 37 -99q39 -39 109 -39t118 41q54 50 54 140q0 70 -45 108q-44 37 -125 37h-11l11 74q113 0 166 53q40 46 40 113q0 58 -32 90q-37 37 -99 37q-64 0 -102 -46q-29 -37 -39 -86h-74q14 90 72 148q57 57 145 57q94 0 154 -57q57 -57 57 -143
q0 -89 -57 -146q-41 -41 -98 -55q50 -17 80 -55q37 -47 37 -121q0 -121 -72 -193q-66 -69 -182 -69q-105 0 -164 63q-54 57 -54 148zM426 2l979 1395l57 -33l-979 -1395zM1497 846l-76 -617h115l-10 -73h-115l-18 -156h-78l18 156h-418zM1069 229h274l48 389z" />
    <glyph glyph-name="questiondown" unicode="&#xbf;" horiz-adv-x="960" 
d="M346 356h-82q0 59 20.5 117t55.5 96q81 86 223 86q130 0 203 -75q68 -71 68 -181q0 -126 -82 -202q-61 -57 -199 -95l-78 -22q-117 -34 -174 -103q-55 -68 -55 -174q0 -100 61 -161q58 -56 158 -56q118 0 186 68q68 71 68 194q0 36 -6 74h90q4 -36 4 -67q0 -171 -92 -263
q-88 -88 -246 -88q-152 0 -236 84q-81 81 -81 213q0 128 77 224q76 93 222 133l88 24q3 1 21.5 6t25.5 7.5t24 8.5t27 11.5t23.5 14t23.5 18.5q59 54 59 153q0 80 -47 127q-54 50 -139 50q-103 0 -156 -60q-26 -28 -40.5 -73t-14.5 -89zM524 823q0 40 27 64q26 22 57 22
q28 0 47 -16q21 -18 21 -49q0 -37 -25 -62q-24 -24 -61 -24q-24 0 -45 16q-21 18 -21 49z" />
    <glyph glyph-name="Agrave" unicode="&#xc0;" horiz-adv-x="1200" 
d="M1077 0l-127 449h-581l-238 -449h-102l747 1407l395 -1407h-94zM412 530h516l-176 648zM813 1440l-242 258l109 51l205 -272z" />
    <glyph glyph-name="Aacute" unicode="&#xc1;" horiz-adv-x="1200" 
d="M1077 0l-127 449h-581l-238 -449h-102l747 1407l395 -1407h-94zM412 530h516l-176 648zM950 1749l97 -51l-308 -258l-59 37z" />
    <glyph glyph-name="Acircumflex" unicode="&#xc2;" horiz-adv-x="1200" 
d="M1077 0l-127 449h-581l-238 -449h-102l747 1407l395 -1407h-94zM412 530h516l-176 648zM799 1610l-213 -131l-64 55l289 184l244 -184l-76 -55z" />
    <glyph glyph-name="Atilde" unicode="&#xc3;" horiz-adv-x="1200" 
d="M1077 0l-127 449h-581l-238 -449h-102l747 1407l395 -1407h-94zM412 530h516l-176 648zM573 1468l-53 45q25 48 55 78q45 45 109 45q42 0 100 -26l50 -23q50 -22 84 -22q29 0 51 22q20 15 39 55l55 -45q-25 -49 -62 -81q-46 -41 -98 -41q-41 0 -106 28l-43 19
q-62 24 -84 24q-33 0 -60 -24q-21 -18 -37 -54z" />
    <glyph glyph-name="Adieresis" unicode="&#xc4;" horiz-adv-x="1200" 
d="M1077 0l-127 449h-581l-238 -449h-102l747 1407l395 -1407h-94zM412 530h516l-176 648zM909 1587q0 37 27 64q24 24 57 24q34 0 54 -20q18 -22 18 -49q0 -35 -27 -62q-24 -24 -63 -24q-29 0 -47 18q-19 17 -19 49zM528 1587q0 37 27 64q24 24 57 24q34 0 54 -20
q18 -22 18 -49q0 -35 -27 -62q-24 -24 -63 -24q-29 0 -47 18q-19 17 -19 49z" />
    <glyph glyph-name="Aring" unicode="&#xc5;" horiz-adv-x="1200" 
d="M1077 0l-127 449h-581l-238 -449h-102l747 1407l395 -1407h-94zM412 530h516l-176 648zM633 1595q0 76 51 127q25 25 59.5 39.5t67.5 14.5q69 0 113 -47q41 -45 41 -107q0 -71 -52 -123q-51 -51 -127 -51q-69 0 -110 41q-43 43 -43 106zM715 1604q0 -34 20 -54
q22 -22 60 -22q42 0 65 26q23 23 23 62q0 36 -23 59q-25 21 -57 21q-37 0 -62 -25q-26 -26 -26 -67z" />
    <glyph glyph-name="AE" unicode="&#xc6;" horiz-adv-x="1744" 
d="M1071 0l-127 449h-584l-233 -449h-98l719 1366h591l25 -82h-563l141 -496h549l25 -81h-549l178 -625h559l27 -82h-660zM403 530h517l-183 644z" />
    <glyph glyph-name="Ccedilla" unicode="&#xc7;" horiz-adv-x="1396" 
d="M1434 1206l-15 -119q-79 101 -182 156q-116 60 -254 60q-128 0 -256 -50t-229 -151q-99 -99 -152 -230.5t-53 -261.5q0 -112 42.5 -215t115.5 -178q73 -74 174.5 -116t214.5 -42q139 0 264 58q121 55 215 149l-14 -119q-92 -78 -197 -122q-117 -48 -270 -48
q-276 0 -455 179q-188 188 -188 458q0 145 58.5 290t182.5 263q227 217 549 217q146 0 279 -55q98 -48 170 -123zM797 -102l90 -58l-264 -254l-58 41z" />
    <glyph glyph-name="Egrave" unicode="&#xc8;" horiz-adv-x="950" 
d="M1008 1366l-11 -82h-565l-61 -496h553l-11 -81h-553l-75 -625h565l-10 -82h-570h-86l168 1366h656zM745 1440l-241 258l108 51l205 -272z" />
    <glyph glyph-name="Eacute" unicode="&#xc9;" horiz-adv-x="950" 
d="M1008 1366l-11 -82h-565l-61 -496h553l-11 -81h-553l-75 -625h565l-10 -82h-570h-86l168 1366h656zM862 1749l96 -51l-307 -258l-59 37z" />
    <glyph glyph-name="Ecircumflex" unicode="&#xca;" horiz-adv-x="950" 
d="M1008 1366l-11 -82h-565l-61 -496h553l-11 -81h-553l-75 -625h565l-10 -82h-570h-86l168 1366h656zM711 1610l-213 -131l-64 55l289 184l244 -184l-76 -55z" />
    <glyph glyph-name="Edieresis" unicode="&#xcb;" horiz-adv-x="950" 
d="M1008 1366l-11 -82h-565l-61 -496h553l-11 -81h-553l-75 -625h565l-10 -82h-570h-86l168 1366h656zM821 1587q0 37 27 64q24 24 57 24t53 -20q19 -23 19 -49q0 -35 -27 -62q-24 -24 -63 -24q-29 0 -47 18q-19 17 -19 49zM440 1587q0 37 27 64q24 24 57 24q34 0 54 -20
q18 -22 18 -49q0 -35 -27 -62q-24 -24 -63 -24q-29 0 -47 18q-19 17 -19 49z" />
    <glyph glyph-name="Igrave" unicode="&#xcc;" horiz-adv-x="458" 
d="M352 1366h90l-168 -1366h-90zM401 1440l-180 274l119 35l149 -279z" />
    <glyph glyph-name="Iacute" unicode="&#xcd;" horiz-adv-x="458" 
d="M352 1366h90l-168 -1366h-90zM547 1749l112 -35l-251 -274l-78 30z" />
    <glyph glyph-name="Icircumflex" unicode="&#xce;" horiz-adv-x="458" 
d="M352 1366h90l-168 -1366h-90zM426 1602l-178 -123l-66 57l258 182l213 -182l-78 -55z" />
    <glyph glyph-name="Idieresis" unicode="&#xcf;" horiz-adv-x="458" 
d="M352 1366h90l-168 -1366h-90zM479 1587q0 37 27 64q24 24 57 24t53 -20q19 -23 19 -49q0 -35 -27 -62q-24 -24 -63 -24q-29 0 -47 18q-19 17 -19 49zM217 1587q0 37 27 64q24 24 57 24t53 -20q19 -23 19 -49q0 -35 -27 -62q-24 -24 -63 -24q-29 0 -47 18q-19 17 -19 49z
" />
    <glyph glyph-name="Eth" unicode="&#xd0;" horiz-adv-x="1269" 
d="M453 0h-179h-92l88 707h-184l10 81h185l69 578h252q330 0 498 -190q141 -159 141 -426q0 -62 -8.5 -125t-28.5 -137.5t-62 -148.5t-102 -134q-205 -205 -587 -205zM430 1284l-59 -496h278l-10 -81h-279l-77 -625h178q315 0 497 178q62 60 103.5 136t58.5 149t23 122t6 93
q0 220 -133 364q-151 160 -428 160h-158z" />
    <glyph glyph-name="Ntilde" unicode="&#xd1;" horiz-adv-x="1605" 
d="M274 0h-90l170 1380l1000 -1204l145 1190h90l-172 -1401l-999 1204zM776 1468l-53 45q25 48 55 78q45 45 109 45q42 0 100 -26l49 -23q50 -22 84 -22q29 0 51 22q20 15 39 55l56 -45q-25 -49 -62 -81q-46 -41 -98 -41q-42 0 -107 28l-43 19q-62 24 -84 24q-32 0 -59 -24
q-21 -18 -37 -54z" />
    <glyph glyph-name="Ograve" unicode="&#xd2;" horiz-adv-x="1648" 
d="M981 1384q289 0 473 -188q168 -174 168 -440q0 -344 -229 -568q-117 -114 -251.5 -162.5t-295.5 -48.5q-142 0 -255 40t-210 135q-186 181 -186 454q0 145 59 292t174 263q221 223 553 223zM834 59q298 0 491 189q98 98 151.5 234t53.5 270q0 121 -42.5 221.5
t-113.5 171.5q-72 72 -174.5 115t-226.5 43q-280 0 -475 -191q-103 -102 -156 -233.5t-53 -264.5q0 -231 149 -391q156 -164 396 -164zM1032 1440l-241 258l108 51l205 -272z" />
    <glyph glyph-name="Oacute" unicode="&#xd3;" horiz-adv-x="1648" 
d="M981 1384q289 0 473 -188q168 -174 168 -440q0 -344 -229 -568q-117 -114 -251.5 -162.5t-295.5 -48.5q-142 0 -255 40t-210 135q-186 181 -186 454q0 145 59 292t174 263q221 223 553 223zM834 59q298 0 491 189q98 98 151.5 234t53.5 270q0 121 -42.5 221.5
t-113.5 171.5q-72 72 -174.5 115t-226.5 43q-280 0 -475 -191q-103 -102 -156 -233.5t-53 -264.5q0 -231 149 -391q156 -164 396 -164zM1169 1749l97 -51l-308 -258l-59 37z" />
    <glyph glyph-name="Ocircumflex" unicode="&#xd4;" horiz-adv-x="1648" 
d="M981 1384q289 0 473 -188q168 -174 168 -440q0 -344 -229 -568q-117 -114 -251.5 -162.5t-295.5 -48.5q-142 0 -255 40t-210 135q-186 181 -186 454q0 145 59 292t174 263q221 223 553 223zM834 59q298 0 491 189q98 98 151.5 234t53.5 270q0 121 -42.5 221.5
t-113.5 171.5q-72 72 -174.5 115t-226.5 43q-280 0 -475 -191q-103 -102 -156 -233.5t-53 -264.5q0 -231 149 -391q156 -164 396 -164zM1018 1610l-213 -131l-64 55l289 184l244 -184l-76 -55z" />
    <glyph glyph-name="Otilde" unicode="&#xd5;" horiz-adv-x="1648" 
d="M981 1384q289 0 473 -188q168 -174 168 -440q0 -344 -229 -568q-117 -114 -251.5 -162.5t-295.5 -48.5q-142 0 -255 40t-210 135q-186 181 -186 454q0 145 59 292t174 263q221 223 553 223zM834 59q298 0 491 189q98 98 151.5 234t53.5 270q0 121 -42.5 221.5
t-113.5 171.5q-72 72 -174.5 115t-226.5 43q-280 0 -475 -191q-103 -102 -156 -233.5t-53 -264.5q0 -231 149 -391q156 -164 396 -164zM793 1468l-54 45q24 46 56 78q45 45 108 45q43 0 101 -26l49 -23q50 -22 84 -22q29 0 51 22q20 15 39 55l55 -45q-26 -51 -61 -81
q-46 -41 -99 -41q-41 0 -106 28l-43 19q-62 24 -84 24q-33 0 -60 -24q-19 -17 -36 -54z" />
    <glyph glyph-name="Odieresis" unicode="&#xd6;" horiz-adv-x="1648" 
d="M981 1384q289 0 473 -188q168 -174 168 -440q0 -344 -229 -568q-117 -114 -251.5 -162.5t-295.5 -48.5q-142 0 -255 40t-210 135q-186 181 -186 454q0 145 59 292t174 263q221 223 553 223zM834 59q298 0 491 189q98 98 151.5 234t53.5 270q0 121 -42.5 221.5
t-113.5 171.5q-72 72 -174.5 115t-226.5 43q-280 0 -475 -191q-103 -102 -156 -233.5t-53 -264.5q0 -231 149 -391q156 -164 396 -164zM1128 1587q0 37 27 64q24 24 57 24q34 0 54 -20q18 -22 18 -49q0 -35 -27 -62q-24 -24 -63 -24q-29 0 -47 18q-19 17 -19 49zM748 1587
q0 38 26 64q24 24 57 24q34 0 54 -20q18 -22 18 -49q0 -36 -26 -62q-24 -24 -64 -24q-29 0 -47 18q-18 16 -18 49z" />
    <glyph glyph-name="multiply" unicode="&#xd7;" 
d="M221 354l320 320l-320 319l55 56l320 -320l319 320l56 -56l-320 -319l320 -320l-56 -55l-319 319l-320 -319z" />
    <glyph glyph-name="Oslash" unicode="&#xd8;" horiz-adv-x="1648" 
d="M969 1384q151 0 262 -44.5t203 -129.5l186 168l51 -63l-182 -164q70 -92 99.5 -187t29.5 -208q0 -344 -229 -568q-117 -114 -251.5 -162.5t-295.5 -48.5q-149 0 -259.5 41t-209.5 138l-187 -166l-49 61l185 164q-132 176 -132 391q0 144 59.5 291.5t174.5 263.5
q220 223 545 223zM834 59q154 0 277.5 51.5t209.5 137.5q98 98 151.5 234t53.5 270q0 184 -109 335l-977 -870q78 -78 172 -118t222 -40zM391 279l973 870q-165 154 -395 154q-280 0 -475 -191q-103 -102 -156 -233.5t-53 -264.5q0 -188 106 -335z" />
    <glyph glyph-name="Ugrave" unicode="&#xd9;" horiz-adv-x="1296" 
d="M350 1366h90l-104 -854q-16 -131 -10 -187q11 -109 82 -178q90 -88 254 -88q189 0 296 107q44 44 71.5 106.5t36.5 109.5t19 130l105 854h90l-104 -854q-6 -52 -9.5 -79t-15.5 -79.5t-27 -88t-43 -80.5t-65 -81q-77 -75 -164.5 -101t-192.5 -26q-212 0 -325 113
q-52 53 -76 122t-22.5 141.5t10.5 158.5zM862 1440l-241 258l108 51l205 -272z" />
    <glyph glyph-name="Uacute" unicode="&#xda;" horiz-adv-x="1296" 
d="M350 1366h90l-104 -854q-16 -131 -10 -187q11 -109 82 -178q90 -88 254 -88q189 0 296 107q44 44 71.5 106.5t36.5 109.5t19 130l105 854h90l-104 -854q-6 -52 -9.5 -79t-15.5 -79.5t-27 -88t-43 -80.5t-65 -81q-77 -75 -164.5 -101t-192.5 -26q-212 0 -325 113
q-52 53 -76 122t-22.5 141.5t10.5 158.5zM999 1749l97 -51l-308 -258l-59 37z" />
    <glyph glyph-name="Ucircumflex" unicode="&#xdb;" horiz-adv-x="1296" 
d="M350 1366h90l-104 -854q-16 -131 -10 -187q11 -109 82 -178q90 -88 254 -88q189 0 296 107q44 44 71.5 106.5t36.5 109.5t19 130l105 854h90l-104 -854q-6 -52 -9.5 -79t-15.5 -79.5t-27 -88t-43 -80.5t-65 -81q-77 -75 -164.5 -101t-192.5 -26q-212 0 -325 113
q-52 53 -76 122t-22.5 141.5t10.5 158.5zM848 1610l-213 -131l-64 55l289 184l244 -184l-76 -55z" />
    <glyph glyph-name="Udieresis" unicode="&#xdc;" horiz-adv-x="1296" 
d="M350 1366h90l-104 -854q-16 -131 -10 -187q11 -109 82 -178q90 -88 254 -88q189 0 296 107q44 44 71.5 106.5t36.5 109.5t19 130l105 854h90l-104 -854q-6 -52 -9.5 -79t-15.5 -79.5t-27 -88t-43 -80.5t-65 -81q-77 -75 -164.5 -101t-192.5 -26q-212 0 -325 113
q-52 53 -76 122t-22.5 141.5t10.5 158.5zM958 1587q0 37 27 64q24 24 57 24q34 0 54 -20q18 -22 18 -49q0 -35 -27 -62q-24 -24 -63 -24q-29 0 -47 18q-19 17 -19 49zM578 1587q0 38 26 64q24 24 58 24q33 0 53 -20q18 -22 18 -49q0 -36 -26 -62q-24 -24 -64 -24
q-29 0 -47 18q-18 16 -18 49z" />
    <glyph glyph-name="Yacute" unicode="&#xdd;" horiz-adv-x="1056" 
d="M477 0l72 584l-352 782h98l309 -690l486 690h106l-557 -782l-72 -584h-90zM879 1749l96 -51l-307 -258l-60 37z" />
    <glyph glyph-name="Thorn" unicode="&#xde;" horiz-adv-x="917" 
d="M184 0l168 1366h90l-30 -246h174q182 0 276 -96q84 -84 84 -229q0 -84 -27 -157t-73 -120q-111 -115 -346 -115h-176l-50 -403h-90zM401 1038l-67 -553h180q167 0 252 80q82 78 82 226q0 102 -60 167q-34 37 -80.5 56t-77 21.5t-83.5 2.5h-146z" />
    <glyph glyph-name="germandbls" unicode="&#xdf;" horiz-adv-x="1007" 
d="M233 0h-81l92 758h-142l11 78h141l41 335q11 87 36 155t81 118q84 74 209 74q128 0 202 -78q72 -75 72 -211q0 -119 -51 -197q-54 -84 -148 -119q107 -31 181 -112q98 -109 98 -277q0 -218 -150 -368q-148 -148 -395 -166l10 82q90 6 181 45t151 100q113 119 113 295
q0 165 -99 260q-50 49 -118.5 71.5t-128.5 26.5l8 72q53 1 103 20.5t83 49.5q74 69 74 202q0 113 -51 168q-51 58 -140 58q-90 0 -151 -56q-68 -64 -86 -200z" />
    <glyph glyph-name="agrave" unicode="&#xe0;" horiz-adv-x="1060" 
d="M913 672l21 164h82l-103 -836h-82l17 129q-54 -74 -123 -109q-84 -43 -193 -43q-164 0 -266 97q-121 112 -121 303q0 105 36.5 200.5t105.5 161.5q119 115 309 115q122 0 203 -55q72 -49 114 -127zM580 776q-144 0 -236 -92q-52 -52 -82.5 -132.5t-30.5 -168.5
q0 -76 27 -142t70 -108q83 -78 213 -78q113 0 198 62q44 32 75.5 77t47 92t22.5 88t7 79q0 153 -86 239q-79 84 -225 84zM666 956l-183 263l95 51l153 -281z" />
    <glyph glyph-name="aacute" unicode="&#xe1;" horiz-adv-x="1060" 
d="M913 672l21 164h82l-103 -836h-82l17 129q-54 -74 -123 -109q-84 -43 -193 -43q-164 0 -266 97q-121 112 -121 303q0 105 36.5 200.5t105.5 161.5q119 115 309 115q122 0 203 -55q72 -49 114 -127zM580 776q-144 0 -236 -92q-52 -52 -82.5 -132.5t-30.5 -168.5
q0 -76 27 -142t70 -108q83 -78 213 -78q113 0 198 62q44 32 75.5 77t47 92t22.5 88t7 79q0 153 -86 239q-79 84 -225 84zM797 1270l82 -51l-248 -263l-58 33z" />
    <glyph glyph-name="acircumflex" unicode="&#xe2;" horiz-adv-x="1060" 
d="M913 672l21 164h82l-103 -836h-82l17 129q-54 -74 -123 -109q-84 -43 -193 -43q-164 0 -266 97q-121 112 -121 303q0 105 36.5 200.5t105.5 161.5q119 115 309 115q122 0 203 -55q72 -49 114 -127zM580 776q-144 0 -236 -92q-52 -52 -82.5 -132.5t-30.5 -168.5
q0 -76 27 -142t70 -108q83 -78 213 -78q113 0 198 62q44 32 75.5 77t47 92t22.5 88t7 79q0 153 -86 239q-79 84 -225 84zM627 1096l-203 -140l-59 52l274 192l225 -192l-71 -52z" />
    <glyph glyph-name="atilde" unicode="&#xe3;" horiz-adv-x="1060" 
d="M913 672l21 164h82l-103 -836h-82l17 129q-54 -74 -123 -109q-84 -43 -193 -43q-164 0 -266 97q-121 112 -121 303q0 105 36.5 200.5t105.5 161.5q119 115 309 115q122 0 203 -55q72 -49 114 -127zM580 776q-144 0 -236 -92q-52 -52 -82.5 -132.5t-30.5 -168.5
q0 -76 27 -142t70 -108q83 -78 213 -78q113 0 198 62q44 32 75.5 77t47 92t22.5 88t7 79q0 153 -86 239q-79 84 -225 84zM428 997l-49 39q19 40 55 76q44 41 103 41q10 0 20.5 -1.5t18 -3t17.5 -5t14.5 -5t15 -6.5t14.5 -6l49 -22q48 -23 80 -23q36 0 61 25q11 11 35 51
l47 -41q-23 -50 -65 -84q-40 -33 -92 -33q-39 0 -95 25l-49 23q-54 24 -88 24q-32 0 -57 -22q-21 -21 -35 -52z" />
    <glyph glyph-name="adieresis" unicode="&#xe4;" horiz-adv-x="1060" 
d="M913 672l21 164h82l-103 -836h-82l17 129q-54 -74 -123 -109q-84 -43 -193 -43q-164 0 -266 97q-121 112 -121 303q0 105 36.5 200.5t105.5 161.5q119 115 309 115q122 0 203 -55q72 -49 114 -127zM580 776q-144 0 -236 -92q-52 -52 -82.5 -132.5t-30.5 -168.5
q0 -76 27 -142t70 -108q83 -78 213 -78q113 0 198 62q44 32 75.5 77t47 92t22.5 88t7 79q0 153 -86 239q-79 84 -225 84zM739 1071q0 30 25 55t59 25q31 0 49 -21q17 -21 17 -45q0 -32 -23 -55q-24 -26 -61 -26q-27 0 -45 18q-21 21 -21 49zM399 1071q0 30 25 55t59 25
q31 0 49 -21q17 -21 17 -45q0 -32 -23 -55q-24 -26 -61 -26q-27 0 -45 18q-21 21 -21 49z" />
    <glyph glyph-name="aring" unicode="&#xe5;" horiz-adv-x="1060" 
d="M913 672l21 164h82l-103 -836h-82l17 129q-54 -74 -123 -109q-84 -43 -193 -43q-164 0 -266 97q-121 112 -121 303q0 105 36.5 200.5t105.5 161.5q119 115 309 115q122 0 203 -55q72 -49 114 -127zM580 776q-144 0 -236 -92q-52 -52 -82.5 -132.5t-30.5 -168.5
q0 -76 27 -142t70 -108q83 -78 213 -78q113 0 198 62q44 32 75.5 77t47 92t22.5 88t7 79q0 153 -86 239q-79 84 -225 84zM489 1108q0 69 52 121q53 53 127 53q60 0 102 -39q39 -37 39 -100q0 -74 -49 -127q-49 -49 -127 -49q-61 0 -103 39q-41 41 -41 102zM565 1112
q0 -30 19 -49q20 -23 57 -23q41 0 68 27q24 24 24 66q0 35 -18 53q-19 22 -58 22q-36 0 -63 -24q-29 -29 -29 -72z" />
    <glyph glyph-name="ae" unicode="&#xe6;" horiz-adv-x="1628" 
d="M238 696l10 88q132 70 266 70q160 0 248 -82q70 -70 84 -162q52 104 139 168q105 76 238 76q164 0 260 -92q64 -62 89.5 -158.5t12.5 -197.5h-715q-11 -71 9.5 -146.5t68.5 -124.5q76 -80 209 -80q116 0 199 62q30 21 57.5 52.5t39.5 49.5t17 29l62 -41q-32 -49 -77 -97
t-87 -75q-89 -58 -207 -58q-127 0 -217 56q-84 54 -123 141q-27 -62 -68 -100t-79 -56q-82 -41 -209 -41q-149 0 -238 58q-106 69 -106 190q0 131 106 207q97 70 258 70q187 0 293 -90q22 217 -65 299q-71 65 -209 65q-127 0 -266 -80zM483 422q-150 0 -221 -66
q-55 -52 -55 -118q0 -40 21 -79.5t61 -64.5q64 -39 176 -39q134 0 211 56q37 27 56.5 67.5t19.5 83.5q0 79 -84 125q-66 35 -185 35zM885 483h618q-2 64 -26 127.5t-64 100.5q-72 65 -186 65q-138 0 -232 -94q-81 -85 -110 -199z" />
    <glyph glyph-name="ccedilla" unicode="&#xe7;" horiz-adv-x="909" 
d="M913 748l-14 -109q-52 59 -115 94q-77 43 -166 43q-55 0 -103.5 -11.5t-82.5 -30.5t-54.5 -34.5t-35.5 -31.5q-55 -55 -83 -133t-28 -154q0 -63 22.5 -126t63.5 -108q85 -92 236 -92q98 0 172 39q76 41 131 111l-14 -119q-63 -51 -119 -76q-77 -33 -174 -33
q-184 0 -295 111q-109 113 -109 293q0 108 39 198t101 150q128 125 331 125q90 0 183 -37q52 -22 114 -69zM539 -102l90 -41l-244 -254l-53 32z" />
    <glyph glyph-name="egrave" unicode="&#xe8;" horiz-adv-x="997" 
d="M948 408h-712q-13 -78 12 -151.5t71 -119.5q82 -82 211 -82q116 0 199 60q70 51 109 131l63 -41q-62 -109 -149 -166q-92 -62 -224 -62q-175 0 -278 111q-105 111 -105 285q0 220 140 360q121 121 299 121q163 0 262 -96q120 -115 102 -350zM248 485h618
q-1 63 -24.5 119.5t-59.5 93.5q-74 78 -198 78q-145 0 -240 -100q-75 -78 -96 -191zM625 956l-183 263l95 51l153 -281z" />
    <glyph glyph-name="eacute" unicode="&#xe9;" horiz-adv-x="997" 
d="M948 408h-712q-13 -78 12 -151.5t71 -119.5q82 -82 211 -82q116 0 199 60q70 51 109 131l63 -41q-62 -109 -149 -166q-92 -62 -224 -62q-175 0 -278 111q-105 111 -105 285q0 220 140 360q121 121 299 121q163 0 262 -96q120 -115 102 -350zM248 485h618
q-1 63 -24.5 119.5t-59.5 93.5q-74 78 -198 78q-145 0 -240 -100q-75 -78 -96 -191zM766 1270l82 -51l-248 -263l-57 33z" />
    <glyph glyph-name="ecircumflex" unicode="&#xea;" horiz-adv-x="997" 
d="M948 408h-712q-13 -78 12 -151.5t71 -119.5q82 -82 211 -82q116 0 199 60q70 51 109 131l63 -41q-62 -109 -149 -166q-92 -62 -224 -62q-175 0 -278 111q-105 111 -105 285q0 220 140 360q121 121 299 121q163 0 262 -96q120 -115 102 -350zM248 485h618
q-1 63 -24.5 119.5t-59.5 93.5q-74 78 -198 78q-145 0 -240 -100q-75 -78 -96 -191zM606 1096l-203 -140l-59 52l274 192l226 -192l-72 -52z" />
    <glyph glyph-name="edieresis" unicode="&#xeb;" horiz-adv-x="997" 
d="M948 408h-712q-13 -78 12 -151.5t71 -119.5q82 -82 211 -82q116 0 199 60q70 51 109 131l63 -41q-62 -109 -149 -166q-92 -62 -224 -62q-175 0 -278 111q-105 111 -105 285q0 220 140 360q121 121 299 121q163 0 262 -96q120 -115 102 -350zM248 485h618
q-1 63 -24.5 119.5t-59.5 93.5q-74 78 -198 78q-145 0 -240 -100q-75 -78 -96 -191zM709 1071q0 31 24 55q25 25 60 25q31 0 49 -21q16 -20 16 -45q0 -33 -22 -55q-24 -26 -62 -26q-27 0 -45 18q-20 20 -20 49zM369 1071q0 31 24 55q25 25 60 25q31 0 49 -21q16 -20 16 -45
q0 -33 -22 -55q-24 -26 -62 -26q-27 0 -45 18q-20 20 -20 49z" />
    <glyph glyph-name="igrave" unicode="&#xec;" horiz-adv-x="376" 
d="M250 836h82l-103 -836h-82zM299 956l-182 263l94 51l154 -281z" />
    <glyph glyph-name="iacute" unicode="&#xed;" horiz-adv-x="376" 
d="M250 836h82l-103 -836h-82zM440 1270l82 -51l-248 -263l-57 33z" />
    <glyph glyph-name="icircumflex" unicode="&#xee;" horiz-adv-x="376" 
d="M250 836h82l-103 -836h-82zM322 1087l-158 -122l-55 53l227 176l182 -176l-67 -53z" />
    <glyph glyph-name="idieresis" unicode="&#xef;" horiz-adv-x="376" 
d="M250 836h82l-103 -836h-82zM403 1071q0 30 25 55t59 25q33 0 50 -21q16 -20 16 -45q0 -32 -23 -55q-24 -26 -61 -26q-27 0 -45 18q-21 21 -21 49zM63 1071q0 30 25 55t59 25q33 0 50 -21q16 -20 16 -45q0 -32 -23 -55q-24 -26 -61 -26q-27 0 -45 18q-21 21 -21 49z" />
    <glyph glyph-name="eth" unicode="&#xf0;" horiz-adv-x="1071" 
d="M379 1303l20 75q124 -15 224 -59q99 -44 170 -107l303 97l22 -68l-270 -86q87 -91 131 -209q55 -146 55 -332q0 -359 -172 -520q-122 -117 -313 -117q-180 0 -287 107q-115 111 -115 301q0 114 41 214.5t109 168.5q127 127 317 127q111 0 199 -49q71 -40 119 -111h4
q-11 119 -59 221q-45 99 -123 168l-371 -116l-16 75l325 97q-60 49 -149 84q-81 31 -164 39zM942 487q0 76 -27.5 141t-72.5 107q-86 82 -232 82q-152 0 -254 -102q-123 -119 -123 -320q0 -155 95 -250q86 -90 233 -90q146 0 248 99q61 61 97 153t36 180z" />
    <glyph glyph-name="ntilde" unicode="&#xf1;" horiz-adv-x="905" 
d="M147 0l103 836h82l-17 -131q36 66 97 104q67 45 166 45q122 0 188 -66q63 -63 63 -165q0 -10 -12 -148l-59 -475h-82l59 487q10 95 10 111q0 80 -45 127q-47 51 -141 51q-104 0 -172 -65q-79 -76 -104 -277l-54 -434h-82zM369 997l-50 39q18 38 56 76q44 41 102 41
q36 0 101 -27l49 -22q48 -23 80 -23q36 0 61 25q11 11 35 51l47 -41q-22 -49 -66 -84q-40 -33 -92 -33q-38 0 -94 25l-49 23q-54 24 -88 24q-33 0 -58 -22q-20 -20 -34 -52z" />
    <glyph glyph-name="ograve" unicode="&#xf2;" horiz-adv-x="1073" 
d="M614 854q89 0 173 -31t139 -86q104 -104 104 -288q0 -219 -137 -349q-133 -123 -342 -123q-185 0 -295 115q-51 53 -81 128.5t-30 162.5q0 97 37.5 190t102.5 156q64 61 151 93t178 32zM563 55q152 0 258 95q123 115 123 290q0 142 -88 238q-94 98 -250 98
q-150 0 -254 -94q-58 -53 -89.5 -129.5t-31.5 -157.5q0 -72 25.5 -137.5t69.5 -110.5q88 -92 237 -92zM686 956l-182 263l94 51l154 -281z" />
    <glyph glyph-name="oacute" unicode="&#xf3;" horiz-adv-x="1073" 
d="M614 854q89 0 173 -31t139 -86q104 -104 104 -288q0 -219 -137 -349q-133 -123 -342 -123q-185 0 -295 115q-51 53 -81 128.5t-30 162.5q0 97 37.5 190t102.5 156q64 61 151 93t178 32zM563 55q152 0 258 95q123 115 123 290q0 142 -88 238q-94 98 -250 98
q-150 0 -254 -94q-58 -53 -89.5 -129.5t-31.5 -157.5q0 -72 25.5 -137.5t69.5 -110.5q88 -92 237 -92zM780 1270l82 -51l-248 -263l-57 33z" />
    <glyph glyph-name="ocircumflex" unicode="&#xf4;" horiz-adv-x="1073" 
d="M614 854q89 0 173 -31t139 -86q104 -104 104 -288q0 -219 -137 -349q-133 -123 -342 -123q-185 0 -295 115q-51 53 -81 128.5t-30 162.5q0 97 37.5 190t102.5 156q64 61 151 93t178 32zM563 55q152 0 258 95q123 115 123 290q0 142 -88 238q-94 98 -250 98
q-150 0 -254 -94q-58 -53 -89.5 -129.5t-31.5 -157.5q0 -72 25.5 -137.5t69.5 -110.5q88 -92 237 -92zM647 1096l-203 -140l-59 52l274 192l226 -192l-72 -52z" />
    <glyph glyph-name="otilde" unicode="&#xf5;" horiz-adv-x="1073" 
d="M614 854q89 0 173 -31t139 -86q104 -104 104 -288q0 -219 -137 -349q-133 -123 -342 -123q-185 0 -295 115q-51 53 -81 128.5t-30 162.5q0 97 37.5 190t102.5 156q64 61 151 93t178 32zM563 55q152 0 258 95q123 115 123 290q0 142 -88 238q-94 98 -250 98
q-150 0 -254 -94q-58 -53 -89.5 -129.5t-31.5 -157.5q0 -72 25.5 -137.5t69.5 -110.5q88 -92 237 -92zM428 997l-49 39q19 40 55 76q44 41 103 41q10 0 20.5 -1.5t18 -3t17.5 -5t14.5 -5t15 -6.5t14.5 -6l49 -22q48 -23 80 -23q36 0 61 25q11 11 35 51l47 -41
q-23 -50 -65 -84q-40 -33 -92 -33q-39 0 -95 25l-49 23q-54 24 -88 24q-32 0 -57 -22q-21 -21 -35 -52z" />
    <glyph glyph-name="odieresis" unicode="&#xf6;" horiz-adv-x="1073" 
d="M614 854q89 0 173 -31t139 -86q104 -104 104 -288q0 -219 -137 -349q-133 -123 -342 -123q-185 0 -295 115q-51 53 -81 128.5t-30 162.5q0 97 37.5 190t102.5 156q64 61 151 93t178 32zM563 55q152 0 258 95q123 115 123 290q0 142 -88 238q-94 98 -250 98
q-150 0 -254 -94q-58 -53 -89.5 -129.5t-31.5 -157.5q0 -72 25.5 -137.5t69.5 -110.5q88 -92 237 -92zM739 1071q0 30 25 55t59 25q31 0 49 -21q17 -21 17 -45q0 -32 -23 -55q-24 -26 -61 -26q-27 0 -45 18q-21 21 -21 49zM399 1071q0 30 25 55t59 25q31 0 49 -21
q17 -21 17 -45q0 -32 -23 -55q-24 -26 -61 -26q-27 0 -45 18q-21 21 -21 49z" />
    <glyph glyph-name="divide" unicode="&#xf7;" 
d="M518 1061q0 29 21.5 50.5t50.5 21.5t50.5 -21.5t21.5 -50.5t-21.5 -50.5t-50.5 -21.5t-50.5 21.5t-21.5 50.5zM518 287q0 29 21.5 50t50.5 21t50.5 -21t21.5 -50t-21.5 -50.5t-50.5 -21.5t-50.5 21.5t-21.5 50.5zM145 635v78h889v-78h-889z" />
    <glyph glyph-name="oslash" unicode="&#xf8;" horiz-adv-x="1073" 
d="M606 854q166 0 295 -102l127 114l45 -51l-127 -113q76 -112 76 -253q0 -216 -137 -349q-129 -123 -342 -123q-90 0 -158.5 26t-130.5 83l-123 -109l-45 50l125 110q-74 119 -74 246q0 100 37 192t102 154q59 56 144 90.5t186 34.5zM555 55q152 0 258 95q123 115 123 290
q0 108 -59 201l-558 -496q97 -90 236 -90zM279 199l555 493q-98 84 -236 84q-150 0 -254 -94q-57 -53 -89 -130t-32 -157q0 -100 56 -196z" />
    <glyph glyph-name="ugrave" unicode="&#xf9;" horiz-adv-x="894" 
d="M248 836h82l-62 -504q-20 -162 51 -228q55 -49 144 -49q107 0 170 66q57 61 74 211l61 504h82l-70 -527q-8 -57 -14.5 -89.5t-24 -77t-45.5 -76.5q-80 -89 -237 -89q-135 0 -209 76q-30 31 -46.5 68.5t-20 78.5t-2.5 66.5t5 61.5zM584 956l-183 263l95 51l153 -281z" />
    <glyph glyph-name="uacute" unicode="&#xfa;" horiz-adv-x="894" 
d="M248 836h82l-62 -504q-20 -162 51 -228q55 -49 144 -49q107 0 170 66q57 61 74 211l61 504h82l-70 -527q-8 -57 -14.5 -89.5t-24 -77t-45.5 -76.5q-80 -89 -237 -89q-135 0 -209 76q-30 31 -46.5 68.5t-20 78.5t-2.5 66.5t5 61.5zM717 1270l82 -51l-248 -263l-57 33z" />
    <glyph glyph-name="ucircumflex" unicode="&#xfb;" horiz-adv-x="894" 
d="M248 836h82l-62 -504q-20 -162 51 -228q55 -49 144 -49q107 0 170 66q57 61 74 211l61 504h82l-70 -527q-8 -57 -14.5 -89.5t-24 -77t-45.5 -76.5q-80 -89 -237 -89q-135 0 -209 76q-30 31 -46.5 68.5t-20 78.5t-2.5 66.5t5 61.5zM584 1096l-203 -140l-59 52l274 192
l225 -192l-71 -52z" />
    <glyph glyph-name="udieresis" unicode="&#xfc;" horiz-adv-x="894" 
d="M248 836h82l-62 -504q-20 -162 51 -228q55 -49 144 -49q107 0 170 66q57 61 74 211l61 504h82l-70 -527q-8 -57 -14.5 -89.5t-24 -77t-45.5 -76.5q-80 -89 -237 -89q-135 0 -209 76q-30 31 -46.5 68.5t-20 78.5t-2.5 66.5t5 61.5zM676 1071q0 31 24 55q25 25 60 25
q32 0 49 -21q16 -20 16 -45q0 -33 -22 -55q-24 -26 -62 -26q-27 0 -45 18q-20 20 -20 49zM336 1071q0 31 24 55q25 25 60 25q32 0 49 -21q16 -20 16 -45q0 -33 -22 -55q-24 -26 -62 -26q-27 0 -45 18q-20 20 -20 49z" />
    <glyph glyph-name="yacute" unicode="&#xfd;" horiz-adv-x="876" 
d="M160 -471l252 457l-293 850h90l260 -744l395 744h99l-709 -1307h-94zM707 1270l81 -51l-247 -263l-58 33z" />
    <glyph glyph-name="thorn" unicode="&#xfe;" horiz-adv-x="1060" 
d="M248 150l-76 -621h-82l244 1964h82l-103 -803q46 67 125 113q91 51 209 51q169 0 271 -102q100 -104 100 -279q0 -237 -141 -375q-121 -121 -304 -121q-121 0 -215 60q-68 46 -110 113zM571 55q150 0 240 82q55 51 88 135.5t33 186.5q0 150 -92 239q-78 78 -201 78
q-150 0 -250 -100q-53 -53 -84 -132.5t-31 -172.5q0 -145 93 -238q81 -78 204 -78z" />
    <glyph glyph-name="ydieresis" unicode="&#xff;" horiz-adv-x="876" 
d="M160 -471l252 457l-293 850h90l260 -744l395 744h99l-709 -1307h-94zM666 1071q0 31 24 55q25 25 60 25q32 0 49 -21q16 -20 16 -45q0 -33 -22 -55q-24 -26 -62 -26q-27 0 -45 18q-20 20 -20 49zM326 1071q0 31 24 55q25 25 60 25q32 0 49 -21q16 -20 16 -45
q0 -33 -22 -55q-24 -26 -62 -26q-27 0 -45 18q-20 20 -20 49z" />
    <glyph glyph-name="Amacron" unicode="&#x100;" horiz-adv-x="1200" 
d="M1077 0l-127 449h-581l-238 -449h-102l747 1407l395 -1407h-94zM412 530h516l-176 648zM512 1536l10 90h553l-10 -90h-553z" />
    <glyph glyph-name="amacron" unicode="&#x101;" horiz-adv-x="1060" 
d="M913 672l21 164h82l-103 -836h-82l17 129q-54 -74 -123 -109q-84 -43 -193 -43q-164 0 -266 97q-121 112 -121 303q0 105 36.5 200.5t105.5 161.5q119 115 309 115q122 0 203 -55q72 -49 114 -127zM580 776q-144 0 -236 -92q-52 -52 -82.5 -132.5t-30.5 -168.5
q0 -76 27 -142t70 -108q83 -78 213 -78q113 0 198 62q44 32 75.5 77t47 92t22.5 88t7 79q0 153 -86 239q-79 84 -225 84zM373 1010l8 80h553l-8 -80h-553z" />
    <glyph glyph-name="Abreve" unicode="&#x102;" horiz-adv-x="1200" 
d="M1077 0l-127 449h-581l-238 -449h-102l747 1407l395 -1407h-94zM412 530h516l-176 648zM530 1692h82q11 -45 47 -74q42 -33 119 -33q78 0 129 33q45 31 62 74h82q-27 -93 -99 -142q-74 -51 -182 -51q-100 0 -168 53q-62 53 -72 140z" />
    <glyph glyph-name="abreve" unicode="&#x103;" horiz-adv-x="1060" 
d="M913 672l21 164h82l-103 -836h-82l17 129q-54 -74 -123 -109q-84 -43 -193 -43q-164 0 -266 97q-121 112 -121 303q0 105 36.5 200.5t105.5 161.5q119 115 309 115q122 0 203 -55q72 -49 114 -127zM580 776q-144 0 -236 -92q-52 -52 -82.5 -132.5t-30.5 -168.5
q0 -76 27 -142t70 -108q83 -78 213 -78q113 0 198 62q44 32 75.5 77t47 92t22.5 88t7 79q0 153 -86 239q-79 84 -225 84zM399 1174h78q9 -53 49 -82q44 -33 121 -33q76 0 125 33q47 32 62 82h77q-18 -70 -69 -119q-78 -74 -199 -74q-110 0 -176 57q-61 56 -68 136z" />
    <glyph glyph-name="Aogonek" unicode="&#x104;" horiz-adv-x="1200" 
d="M1073 0l-127 449h-581l-238 -449h-98l747 1407l395 -1407q-69 -56 -102 -96q-47 -55 -47 -115q0 -48 35 -70q30 -18 80 -18q59 0 104 23l-27 -80q-51 -17 -98 -17q-81 0 -129 37q-53 38 -53 107q0 76 53 141q38 45 94 88h-8zM408 530h516l-176 648z" />
    <glyph glyph-name="aogonek" unicode="&#x105;" horiz-adv-x="1060" 
d="M913 672l21 164h82l-103 -836q-49 -38 -90 -86q-59 -66 -59 -123q0 -50 41 -72q35 -18 80 -18q43 0 88 18l-27 -75q-43 -15 -84 -15q-77 0 -125 37q-51 40 -51 105q0 69 47 135q40 55 98 94l17 129q-54 -74 -123 -109q-84 -43 -193 -43q-164 0 -266 97q-121 112 -121 303
q0 105 36.5 200.5t105.5 161.5q119 115 309 115q122 0 203 -55q72 -49 114 -127zM580 776q-144 0 -236 -92q-52 -52 -82.5 -132.5t-30.5 -168.5q0 -76 27 -142t70 -108q83 -78 213 -78q113 0 198 62q44 32 75.5 77t47 92t22.5 88t7 79q0 153 -86 239q-79 84 -225 84z" />
    <glyph glyph-name="Cacute" unicode="&#x106;" horiz-adv-x="1396" 
d="M1434 1206l-15 -119q-79 101 -182 156q-116 60 -254 60q-128 0 -256 -50t-229 -151q-99 -99 -152 -230.5t-53 -261.5q0 -112 42.5 -215t115.5 -178q73 -74 174.5 -116t214.5 -42q139 0 264 58q121 55 215 149l-14 -119q-92 -78 -197 -122q-117 -48 -270 -48
q-276 0 -455 179q-188 188 -188 458q0 145 58.5 290t182.5 263q227 217 549 217q146 0 279 -55q98 -48 170 -123zM1210 1749l97 -51l-308 -258l-59 37z" />
    <glyph glyph-name="cacute" unicode="&#x107;" horiz-adv-x="909" 
d="M913 748l-14 -109q-52 59 -115 94q-77 43 -166 43q-55 0 -103.5 -11.5t-82.5 -30.5t-54.5 -34.5t-35.5 -31.5q-55 -55 -83 -133t-28 -154q0 -63 22.5 -126t63.5 -108q85 -92 236 -92q98 0 172 39q76 41 131 111l-14 -119q-63 -51 -119 -76q-77 -33 -174 -33
q-184 0 -295 111q-109 113 -109 293q0 108 39 198t101 150q128 125 331 125q90 0 183 -37q52 -22 114 -69zM780 1270l82 -51l-248 -263l-57 33z" />
    <glyph glyph-name="Ccircumflex" unicode="&#x108;" horiz-adv-x="1396" 
d="M1434 1206l-15 -119q-79 101 -182 156q-116 60 -254 60q-128 0 -256 -50t-229 -151q-99 -99 -152 -230.5t-53 -261.5q0 -112 42.5 -215t115.5 -178q73 -74 174.5 -116t214.5 -42q139 0 264 58q121 55 215 149l-14 -119q-92 -78 -197 -122q-117 -48 -270 -48
q-276 0 -455 179q-188 188 -188 458q0 145 58.5 290t182.5 263q227 217 549 217q146 0 279 -55q98 -48 170 -123zM1038 1610l-213 -131l-63 55l289 184l243 -184l-75 -55z" />
    <glyph glyph-name="ccircumflex" unicode="&#x109;" horiz-adv-x="909" 
d="M913 748l-14 -109q-52 59 -115 94q-77 43 -166 43q-55 0 -103.5 -11.5t-82.5 -30.5t-54.5 -34.5t-35.5 -31.5q-55 -55 -83 -133t-28 -154q0 -63 22.5 -126t63.5 -108q85 -92 236 -92q98 0 172 39q76 41 131 111l-14 -119q-63 -51 -119 -76q-77 -33 -174 -33
q-184 0 -295 111q-109 113 -109 293q0 108 39 198t101 150q128 125 331 125q90 0 183 -37q52 -22 114 -69zM647 1096l-203 -140l-59 52l274 192l226 -192l-72 -52z" />
    <glyph glyph-name="Cdotaccent" unicode="&#x10a;" horiz-adv-x="1396" 
d="M1434 1206l-15 -119q-79 101 -182 156q-116 60 -254 60q-128 0 -256 -50t-229 -151q-99 -99 -152 -230.5t-53 -261.5q0 -112 42.5 -215t115.5 -178q73 -74 174.5 -116t214.5 -42q139 0 264 58q121 55 215 149l-14 -119q-92 -78 -197 -122q-117 -48 -270 -48
q-276 0 -455 179q-188 188 -188 458q0 145 58.5 290t182.5 263q227 217 549 217q146 0 279 -55q98 -48 170 -123zM954 1587q0 43 25 68q22 28 70 28q33 0 53 -20t20 -51q0 -44 -24 -68q-24 -28 -68 -28q-35 0 -55 20q-21 21 -21 51z" />
    <glyph glyph-name="cdotaccent" unicode="&#x10b;" horiz-adv-x="909" 
d="M913 748l-14 -109q-52 59 -115 94q-77 43 -166 43q-55 0 -103.5 -11.5t-82.5 -30.5t-54.5 -34.5t-35.5 -31.5q-55 -55 -83 -133t-28 -154q0 -63 22.5 -126t63.5 -108q85 -92 236 -92q98 0 172 39q76 41 131 111l-14 -119q-63 -51 -119 -76q-77 -33 -174 -33
q-184 0 -295 111q-109 113 -109 293q0 108 39 198t101 150q128 125 331 125q90 0 183 -37q52 -22 114 -69zM582 1069q0 38 26 64t64 26q29 0 51 -18q20 -17 20 -51q0 -41 -28 -66q-25 -25 -62 -25q-28 0 -51 19q-20 20 -20 51z" />
    <glyph glyph-name="Ccaron" unicode="&#x10c;" horiz-adv-x="1396" 
d="M1434 1206l-15 -119q-79 101 -182 156q-116 60 -254 60q-128 0 -256 -50t-229 -151q-99 -99 -152 -230.5t-53 -261.5q0 -112 42.5 -215t115.5 -178q73 -74 174.5 -116t214.5 -42q139 0 264 58q121 55 215 149l-14 -119q-92 -78 -197 -122q-117 -48 -270 -48
q-276 0 -455 179q-188 188 -188 458q0 145 58.5 290t182.5 263q227 217 549 217q146 0 279 -55q98 -48 170 -123zM1014 1587l213 131l63 -55l-289 -184l-243 184l76 55z" />
    <glyph glyph-name="ccaron" unicode="&#x10d;" horiz-adv-x="909" 
d="M913 748l-14 -109q-52 59 -115 94q-77 43 -166 43q-55 0 -103.5 -11.5t-82.5 -30.5t-54.5 -34.5t-35.5 -31.5q-55 -55 -83 -133t-28 -154q0 -63 22.5 -126t63.5 -108q85 -92 236 -92q98 0 172 39q76 41 131 111l-14 -119q-63 -51 -119 -76q-77 -33 -174 -33
q-184 0 -295 111q-109 113 -109 293q0 108 39 198t101 150q128 125 331 125q90 0 183 -37q52 -22 114 -69zM641 1059l203 139l59 -53l-274 -193l-226 193l72 53z" />
    <glyph glyph-name="Dcaron" unicode="&#x10e;" horiz-adv-x="1269" 
d="M455 0h-185h-86l168 1366h252q330 0 498 -190q141 -159 141 -426q0 -354 -213 -557q-205 -193 -575 -193zM432 1284l-147 -1202h178q320 0 498 178q190 188 190 500q0 220 -133 364q-151 160 -428 160h-158zM686 1587l213 131l64 -55l-289 -184l-244 184l76 55z" />
    <glyph glyph-name="dcaron" unicode="&#x10f;" horiz-adv-x="1136" 
d="M915 668l103 825h82l-185 -1493h-81l14 119q-58 -69 -131 -105q-75 -37 -174 -37q-188 0 -291 111q-107 115 -107 303q0 206 138 344q122 119 307 119q120 0 209 -57q73 -48 116 -129zM584 776q-135 0 -230 -92q-54 -52 -86 -130.5t-32 -164.5q0 -68 23.5 -134t68.5 -114
q80 -86 215 -86q140 0 237 92q57 55 85 139.5t28 172.5q0 147 -90 233q-84 84 -219 84zM1116 1069l139 324l86 -33l-172 -316z" />
    <glyph glyph-name="Dcroat" unicode="&#x110;" horiz-adv-x="1269" 
d="M453 0h-179h-92l88 707h-184l10 81h185l69 578h252q330 0 498 -190q141 -159 141 -426q0 -62 -8.5 -125t-28.5 -137.5t-62 -148.5t-102 -134q-205 -205 -587 -205zM430 1284l-59 -496h278l-10 -81h-279l-77 -625h178q315 0 497 178q62 60 103.5 136t58.5 149t23 122t6 93
q0 220 -133 364q-151 160 -428 160h-158z" />
    <glyph glyph-name="dcroat" unicode="&#x111;" horiz-adv-x="1062" 
d="M915 668l60 483h-369l10 78h369l33 264h82l-33 -264h203l-10 -78h-203l-142 -1151h-81l14 119q-58 -69 -131 -105q-75 -37 -174 -37q-188 0 -291 111q-107 115 -107 301q0 212 138 346q122 119 303 119q121 0 213 -57q74 -47 116 -129zM582 776q-133 0 -228 -92
q-54 -52 -86 -130.5t-32 -164.5q0 -68 23.5 -134t68.5 -114q80 -86 215 -86q145 0 237 92q56 56 84.5 139.5t28.5 162.5q0 71 -24 136t-68 107q-40 40 -98 62t-121 22z" />
    <glyph glyph-name="Emacron" unicode="&#x112;" horiz-adv-x="950" 
d="M1008 1366l-11 -82h-565l-61 -496h553l-11 -81h-553l-75 -625h565l-10 -82h-570h-86l168 1366h656zM424 1536l10 90h553l-10 -90h-553z" />
    <glyph glyph-name="emacron" unicode="&#x113;" horiz-adv-x="997" 
d="M948 408h-712q-13 -78 12 -151.5t71 -119.5q82 -82 211 -82q116 0 199 60q70 51 109 131l63 -41q-62 -109 -149 -166q-92 -62 -224 -62q-175 0 -278 111q-105 111 -105 285q0 220 140 360q121 121 299 121q163 0 262 -96q120 -115 102 -350zM248 485h618
q-1 63 -24.5 119.5t-59.5 93.5q-74 78 -198 78q-145 0 -240 -100q-75 -78 -96 -191zM330 1010l8 80h553l-8 -80h-553z" />
    <glyph glyph-name="Edotaccent" unicode="&#x116;" horiz-adv-x="950" 
d="M1008 1366l-11 -82h-565l-61 -496h553l-11 -81h-553l-75 -625h565l-10 -82h-570h-86l168 1366h656zM625 1587q0 44 24 68q22 28 70 28q33 0 53 -20q21 -21 21 -51q0 -43 -25 -68q-24 -28 -68 -28q-35 0 -55 20t-20 51z" />
    <glyph glyph-name="edotaccent" unicode="&#x117;" horiz-adv-x="997" 
d="M948 408h-712q-13 -78 12 -151.5t71 -119.5q82 -82 211 -82q116 0 199 60q70 51 109 131l63 -41q-62 -109 -149 -166q-92 -62 -224 -62q-175 0 -278 111q-105 111 -105 285q0 220 140 360q121 121 299 121q163 0 262 -96q120 -115 102 -350zM248 485h618
q-1 63 -24.5 119.5t-59.5 93.5q-74 78 -198 78q-145 0 -240 -100q-75 -78 -96 -191zM532 1069q0 37 27 64q26 26 64 26q29 0 51 -18q20 -17 20 -51q0 -41 -28 -66q-25 -25 -62 -25q-28 0 -51 19q-21 21 -21 51z" />
    <glyph glyph-name="Eogonek" unicode="&#x118;" horiz-adv-x="950" 
d="M1008 1366l-11 -82h-565l-61 -496h553l-11 -81h-553l-75 -625h565l-10 -82h-103q-69 -56 -102 -96q-47 -58 -47 -113q0 -50 35 -72q28 -18 79 -18q54 0 105 23l-27 -80q-50 -17 -98 -17q-81 0 -129 37q-53 38 -53 111q0 69 53 137q38 45 94 88h-373h-90l168 1366h656z
" />
    <glyph glyph-name="eogonek" unicode="&#x119;" horiz-adv-x="997" 
d="M948 408h-712q-5 -40 -5 -50q0 -65 24.5 -123.5t63.5 -97.5q82 -82 211 -82q116 0 199 60q70 51 109 131l63 -41q-24 -40 -51 -72.5t-57.5 -58t-49.5 -39.5t-51 -35q-79 -50 -121 -96q-47 -55 -47 -111q0 -43 35 -69q33 -23 82 -23q36 0 92 18l-26 -75q-44 -15 -84 -15
q-78 0 -125 37q-52 40 -52 113q0 54 33 104q28 44 86 94q-109 0 -181.5 23t-133.5 88q-105 114 -105 285q0 220 140 360q121 121 299 121q163 0 258 -92q110 -102 110 -287q0 -27 -4 -67zM250 485h616q0 131 -82 213q-74 78 -196 78q-144 0 -240 -100q-71 -74 -98 -191z" />
    <glyph glyph-name="Ecaron" unicode="&#x11a;" horiz-adv-x="950" 
d="M1008 1366l-11 -82h-565l-61 -496h553l-11 -81h-553l-75 -625h565l-10 -82h-570h-86l168 1366h656zM707 1587l213 131l63 -55l-289 -184l-243 184l75 55z" />
    <glyph glyph-name="ecaron" unicode="&#x11b;" horiz-adv-x="997" 
d="M948 408h-712q-13 -78 12 -151.5t71 -119.5q82 -82 211 -82q116 0 199 60q70 51 109 131l63 -41q-62 -109 -149 -166q-92 -62 -224 -62q-175 0 -278 111q-105 111 -105 285q0 220 140 360q121 121 299 121q163 0 262 -96q120 -115 102 -350zM248 485h618
q-1 63 -24.5 119.5t-59.5 93.5q-74 78 -198 78q-145 0 -240 -100q-75 -78 -96 -191zM610 1059l203 139l59 -53l-274 -193l-225 193l71 53z" />
    <glyph glyph-name="Gcircumflex" unicode="&#x11c;" horiz-adv-x="1583" 
d="M969 573l10 82h573q-12 -122 -61 -251.5t-152 -231.5q-197 -195 -489 -195q-288 0 -471 183q-184 181 -184 450q0 173 62 314t165 241q223 219 559 219q201 0 360 -100q130 -86 207 -219l-80 -57q-73 129 -172 198q-139 97 -319 97q-140 0 -268.5 -52.5t-219.5 -140.5
q-96 -95 -149 -225.5t-53 -263.5q0 -119 42.5 -221t112.5 -175q76 -79 178 -122.5t216 -43.5q130 0 247.5 48.5t202.5 136.5q131 135 164 329h-481zM1010 1610l-213 -131l-64 55l289 184l244 -184l-76 -55z" />
    <glyph glyph-name="gcircumflex" unicode="&#x11d;" horiz-adv-x="1064" 
d="M938 836h82l-98 -811q-9 -74 -19.5 -127t-41.5 -124.5t-77 -119.5q-56 -59 -140 -92t-187 -33q-179 0 -277 98q-45 43 -74 111.5t-30 148.5h86q4 -123 74 -196q80 -84 231 -84q160 0 252 92q91 91 121 326l14 118q-52 -76 -135 -118q-93 -48 -195 -48q-178 0 -280 107
q-107 114 -107 293q0 99 34 191.5t101 160.5q66 69 143.5 97t172.5 28q136 0 227 -57q64 -45 105 -107zM590 776q-144 0 -244 -92q-55 -52 -87 -134.5t-32 -172.5q0 -137 88 -234q82 -88 230 -88q145 0 239 97q52 55 81.5 136.5t29.5 170.5q0 151 -88 235q-38 38 -96 60
t-121 22zM668 1096l-203 -140l-59 52l274 192l225 -192l-71 -52z" />
    <glyph glyph-name="Gbreve" unicode="&#x11e;" horiz-adv-x="1583" 
d="M969 573l10 82h573q-12 -122 -61 -251.5t-152 -231.5q-197 -195 -489 -195q-288 0 -471 183q-184 181 -184 450q0 173 62 314t165 241q223 219 559 219q201 0 360 -100q130 -86 207 -219l-80 -57q-73 129 -172 198q-139 97 -319 97q-140 0 -268.5 -52.5t-219.5 -140.5
q-96 -95 -149 -225.5t-53 -263.5q0 -119 42.5 -221t112.5 -175q76 -79 178 -122.5t216 -43.5q130 0 247.5 48.5t202.5 136.5q131 135 164 329h-481zM758 1692h82q11 -45 47 -74q42 -33 119 -33q78 0 129 33q44 30 61 74h82q-28 -93 -98 -142q-74 -51 -183 -51
q-100 0 -168 53q-61 52 -71 140z" />
    <glyph glyph-name="gbreve" unicode="&#x11f;" horiz-adv-x="1064" 
d="M938 836h82l-98 -811q-9 -74 -19.5 -127t-41.5 -124.5t-77 -119.5q-56 -59 -140 -92t-187 -33q-179 0 -277 98q-45 43 -74 111.5t-30 148.5h86q4 -123 74 -196q80 -84 231 -84q160 0 252 92q91 91 121 326l14 118q-52 -76 -135 -118q-93 -48 -195 -48q-178 0 -280 107
q-107 114 -107 293q0 99 34 191.5t101 160.5q66 69 143.5 97t172.5 28q136 0 227 -57q64 -45 105 -107zM590 776q-144 0 -244 -92q-55 -52 -87 -134.5t-32 -172.5q0 -137 88 -234q82 -88 230 -88q145 0 239 97q52 55 81.5 136.5t29.5 170.5q0 151 -88 235q-38 38 -96 60
t-121 22zM387 1174h78q9 -53 49 -82q44 -33 121 -33q76 0 125 33q46 31 61 82h78q-18 -69 -70 -119q-78 -74 -198 -74q-110 0 -176 57q-61 56 -68 136z" />
    <glyph glyph-name="Gdotaccent" unicode="&#x120;" horiz-adv-x="1583" 
d="M969 573l10 82h573q-12 -122 -61 -251.5t-152 -231.5q-197 -195 -489 -195q-288 0 -471 183q-184 181 -184 450q0 173 62 314t165 241q223 219 559 219q201 0 360 -100q130 -86 207 -219l-80 -57q-73 129 -172 198q-139 97 -319 97q-140 0 -268.5 -52.5t-219.5 -140.5
q-96 -95 -149 -225.5t-53 -263.5q0 -119 42.5 -221t112.5 -175q76 -79 178 -122.5t216 -43.5q130 0 247.5 48.5t202.5 136.5q131 135 164 329h-481zM905 1587q0 43 25 68q22 28 69 28q34 0 54 -20t20 -51q0 -44 -24 -68q-24 -28 -68 -28q-35 0 -55 20q-21 21 -21 51z" />
    <glyph glyph-name="gdotaccent" unicode="&#x121;" horiz-adv-x="1064" 
d="M938 836h82l-98 -811q-9 -74 -19.5 -127t-41.5 -124.5t-77 -119.5q-56 -59 -140 -92t-187 -33q-179 0 -277 98q-45 43 -74 111.5t-30 148.5h86q4 -123 74 -196q80 -84 231 -84q160 0 252 92q91 91 121 326l14 118q-52 -76 -135 -118q-93 -48 -195 -48q-178 0 -280 107
q-107 114 -107 293q0 99 34 191.5t101 160.5q66 69 143.5 97t172.5 28q136 0 227 -57q64 -45 105 -107zM590 776q-144 0 -244 -92q-55 -52 -87 -134.5t-32 -172.5q0 -137 88 -234q82 -88 230 -88q145 0 239 97q52 55 81.5 136.5t29.5 170.5q0 151 -88 235q-38 38 -96 60
t-121 22zM532 1069q0 37 27 64q26 26 64 26q29 0 51 -18q20 -17 20 -51q0 -41 -28 -66q-25 -25 -62 -25q-28 0 -51 19q-21 21 -21 51z" />
    <glyph glyph-name="Gcommaaccent" unicode="&#x122;" horiz-adv-x="1583" 
d="M969 573l10 82h573q-12 -122 -61 -251.5t-152 -231.5q-197 -195 -489 -195q-288 0 -471 183q-184 181 -184 450q0 173 62 314t165 241q223 219 559 219q201 0 360 -100q130 -86 207 -219l-80 -57q-73 129 -172 198q-139 97 -319 97q-140 0 -268.5 -52.5t-219.5 -140.5
q-96 -95 -149 -225.5t-53 -263.5q0 -119 42.5 -221t112.5 -175q76 -79 178 -122.5t216 -43.5q130 0 247.5 48.5t202.5 136.5q131 135 164 329h-481zM618 -385l132 283l86 -33l-164 -275z" />
    <glyph glyph-name="gcommaaccent" unicode="&#x123;" horiz-adv-x="1064" 
d="M938 836h82l-98 -811q-9 -74 -19.5 -127t-41.5 -124.5t-77 -119.5q-56 -59 -140 -92t-187 -33q-179 0 -277 98q-45 43 -74 111.5t-30 148.5h86q4 -123 74 -196q80 -84 231 -84q160 0 252 92q91 91 121 326l14 118q-52 -76 -135 -118q-93 -48 -195 -48q-178 0 -280 107
q-107 114 -107 293q0 99 34 191.5t101 160.5q66 69 143.5 97t172.5 28q136 0 227 -57q64 -45 105 -107zM590 776q-144 0 -244 -92q-55 -52 -87 -134.5t-32 -172.5q0 -137 88 -234q82 -88 230 -88q145 0 239 97q52 55 81.5 136.5t29.5 170.5q0 151 -88 235q-38 38 -96 60
t-121 22zM821 1292l-119 -282l-86 32l152 275z" />
    <glyph glyph-name="Hcircumflex" unicode="&#x124;" horiz-adv-x="1376" 
d="M442 1366l-71 -580h827l72 580h90l-168 -1366h-90l86 705h-828l-86 -705h-90l168 1366h90zM887 1610l-213 -131l-64 55l289 184l244 -184l-76 -55z" />
    <glyph glyph-name="hcircumflex" unicode="&#x125;" horiz-adv-x="905" 
d="M147 0l185 1493h82l-99 -788q37 61 93 100q69 49 167 49q119 0 185 -63q39 -36 55 -90.5t15 -88t-7 -86.5l-65 -526h-82l65 526q10 49 1.5 107t-44.5 94q-49 49 -133 49q-105 0 -176 -71q-85 -85 -106 -271l-54 -434h-82zM385 1628l-203 -139l-59 51l274 193l226 -193
l-72 -51z" />
    <glyph glyph-name="Hbar" unicode="&#x126;" horiz-adv-x="1376" 
d="M442 1366l-14 -111h827l15 111h90l-14 -111h110l-8 -69h-111l-145 -1186h-90l86 705h-828l-86 -705h-90l146 1186h-111l8 69h111l14 111h90zM1247 1186h-827l-49 -400h827z" />
    <glyph glyph-name="hbar" unicode="&#x127;" horiz-adv-x="905" 
d="M147 0l142 1151h-205l10 78h205l33 264h82l-33 -264h369l-11 -78h-368l-56 -446q104 149 275 149q88 0 140.5 -35t76.5 -82q34 -71 16 -211l-65 -526h-82l65 526q14 117 -12 168q-5 10 -13 20t-25.5 26t-47.5 26t-68 10q-140 0 -219 -117q-56 -85 -73 -225l-54 -434h-82z
" />
    <glyph glyph-name="Imacron" unicode="&#x12a;" horiz-adv-x="458" 
d="M352 1366h90l-168 -1366h-90zM209 1536l10 90h418l-10 -90h-418z" />
    <glyph glyph-name="imacron" unicode="&#x12b;" horiz-adv-x="376" 
d="M250 836h82l-103 -836h-82zM150 1010l8 80h327l-8 -80h-327z" />
    <glyph glyph-name="Iogonek" unicode="&#x12e;" horiz-adv-x="458" 
d="M352 1366h90l-168 -1366q-69 -56 -102 -96q-47 -55 -47 -115q0 -48 35 -70q30 -18 80 -18q59 0 104 23l-27 -80q-51 -17 -98 -17q-81 0 -129 37q-53 38 -53 107q0 76 53 141q38 45 94 88z" />
    <glyph glyph-name="iogonek" unicode="&#x12f;" horiz-adv-x="376" 
d="M250 836h82l-103 -836q-49 -38 -90 -86q-59 -66 -59 -123q0 -50 41 -72q35 -18 80 -18q43 0 88 18l-27 -75q-43 -15 -84 -15q-77 0 -125 37q-51 40 -51 105q0 69 47 135q40 55 98 94zM315 1038q-28 0 -47 19q-16 16 -16 45q0 41 27 65q23 23 55 23q28 0 47 -19
q18 -18 18 -47q0 -37 -24 -61q-25 -25 -60 -25z" />
    <glyph glyph-name="Idotaccent" unicode="&#x130;" horiz-adv-x="458" 
d="M352 1366h90l-168 -1366h-90zM322 1587q0 44 24 68q22 28 70 28q33 0 53 -20t20 -51q0 -44 -24 -68q-24 -28 -68 -28q-35 0 -55 20t-20 51z" />
    <glyph glyph-name="dotlessi" unicode="&#x131;" horiz-adv-x="376" 
d="M250 836h82l-103 -836h-82z" />
    <glyph glyph-name="Jcircumflex" unicode="&#x134;" horiz-adv-x="548" 
d="M442 1366h90l-133 -1081q-11 -89 -28.5 -146.5t-57.5 -97.5q-66 -64 -180 -64q-87 0 -145 48q-48 36 -74 100l70 49q19 -55 53 -82q37 -33 102 -33q70 0 109 41q46 46 59 166zM547 1610l-213 -131l-64 55l289 184l244 -184l-76 -55z" />
    <glyph glyph-name="jcircumflex" unicode="&#x135;" horiz-adv-x="376" 
d="M250 836h82l-160 -1307h-82zM322 1087l-158 -122l-55 53l227 176l182 -176l-67 -53z" />
    <glyph glyph-name="Kcommaaccent" unicode="&#x136;" horiz-adv-x="1105" 
d="M442 1366l-80 -643l725 643h119l-745 -655l612 -711h-119l-563 651l-41 -35l-76 -616h-90l168 1366h90zM389 -385l131 283l86 -33l-164 -275z" />
    <glyph glyph-name="kcommaaccent" unicode="&#x137;" horiz-adv-x="804" 
d="M332 1493h82l-125 -1016l387 359h106l-399 -367l405 -469h-104l-360 414l-50 -43l-45 -371h-82zM256 -385l119 283l86 -33l-152 -275z" />
    <glyph glyph-name="Lacute" unicode="&#x139;" horiz-adv-x="684" 
d="M352 1366h90l-157 -1284h381l-11 -82h-471zM692 1749l96 -51l-307 -258l-59 37z" />
    <glyph glyph-name="lacute" unicode="&#x13a;" horiz-adv-x="376" 
d="M332 1493h82l-185 -1493h-82zM457 1843l82 -51l-248 -262l-58 33z" />
    <glyph glyph-name="Lcommaaccent" unicode="&#x13b;" horiz-adv-x="684" 
d="M352 1366h90l-157 -1284h381l-11 -82h-471zM266 -385l131 283l86 -33l-164 -275z" />
    <glyph glyph-name="lcommaaccent" unicode="&#x13c;" horiz-adv-x="376" 
d="M332 1493h82l-185 -1493h-82zM25 -385l118 283l86 -33l-151 -275z" />
    <glyph glyph-name="Lcaron" unicode="&#x13d;" horiz-adv-x="684" 
d="M352 1366h90l-157 -1284h381l-11 -82h-471zM606 1069l139 324l86 -33l-172 -316z" />
    <glyph glyph-name="lcaron" unicode="&#x13e;" horiz-adv-x="458" 
d="M332 1493h82l-185 -1493h-82zM438 1069l140 324l86 -33l-172 -316z" />
    <glyph glyph-name="Ldot" unicode="&#x13f;" horiz-adv-x="716" 
d="M352 1366h90l-157 -1284h381l-11 -82h-471zM573 668q0 42 25 67q23 29 70 29q32 0 53 -21q20 -20 20 -51q0 -43 -24 -67q-25 -29 -68 -29q-35 0 -55 20q-21 21 -21 52z" />
    <glyph glyph-name="ldot" unicode="&#x140;" horiz-adv-x="749" 
d="M332 1493h82l-185 -1493h-82zM580 735q0 38 26 64t64 26q29 0 51 -18q20 -17 20 -51q0 -41 -28 -66q-24 -24 -62 -24q-29 0 -51 18q-20 20 -20 51z" />
    <glyph glyph-name="Lslash" unicode="&#x141;" horiz-adv-x="677" 
d="M352 1366h90l-71 -575l221 131l-10 -91l-222 -131l-75 -618h381l-11 -82h-385h-86l80 651l-198 -119l10 91l198 118z" />
    <glyph glyph-name="lslash" unicode="&#x142;" horiz-adv-x="376" 
d="M332 1493h82l-64 -510l162 115l-12 -90l-160 -115l-111 -893h-82l105 844l-162 -115l10 90l162 115z" />
    <glyph glyph-name="Nacute" unicode="&#x143;" horiz-adv-x="1605" 
d="M274 0h-90l170 1380l1000 -1204l145 1190h90l-172 -1401l-999 1204zM1153 1749l96 -51l-307 -258l-59 37z" />
    <glyph glyph-name="nacute" unicode="&#x144;" horiz-adv-x="905" 
d="M147 0l103 836h82l-17 -131q36 66 97 104q67 45 166 45q122 0 188 -66q63 -63 63 -165q0 -10 -12 -148l-59 -475h-82l59 487q10 95 10 111q0 80 -45 127q-47 51 -141 51q-104 0 -172 -65q-79 -76 -104 -277l-54 -434h-82zM721 1270l82 -51l-248 -263l-57 33z" />
    <glyph glyph-name="Ncommaaccent" unicode="&#x145;" horiz-adv-x="1605" 
d="M274 0h-90l170 1380l1000 -1204l145 1190h90l-172 -1401l-999 1204zM639 -385l131 283l86 -33l-164 -275z" />
    <glyph glyph-name="ncommaaccent" unicode="&#x146;" horiz-adv-x="905" 
d="M147 0l103 836h82l-17 -131q36 66 97 104q67 45 166 45q122 0 188 -66q63 -63 63 -165q0 -10 -12 -148l-59 -475h-82l59 487q10 95 10 111q0 80 -45 127q-47 51 -141 51q-104 0 -172 -65q-79 -76 -104 -277l-54 -434h-82zM289 -385l119 283l86 -33l-152 -275z" />
    <glyph glyph-name="Ncaron" unicode="&#x147;" horiz-adv-x="1605" 
d="M274 0h-90l170 1380l1000 -1204l145 1190h90l-172 -1401l-999 1204zM997 1587l213 131l64 -55l-289 -184l-244 184l76 55z" />
    <glyph glyph-name="ncaron" unicode="&#x148;" horiz-adv-x="905" 
d="M147 0l103 836h82l-17 -131q36 66 97 104q67 45 166 45q122 0 188 -66q63 -63 63 -165q0 -10 -12 -148l-59 -475h-82l59 487q10 95 10 111q0 80 -45 127q-47 51 -141 51q-104 0 -172 -65q-79 -76 -104 -277l-54 -434h-82zM600 1059l203 139l59 -53l-274 -193l-226 193
l72 53z" />
    <glyph glyph-name="Omacron" unicode="&#x14c;" horiz-adv-x="1648" 
d="M981 1384q289 0 473 -188q168 -174 168 -440q0 -344 -229 -568q-117 -114 -251.5 -162.5t-295.5 -48.5q-142 0 -255 40t-210 135q-186 181 -186 454q0 145 59 292t174 263q221 223 553 223zM834 59q298 0 491 189q98 98 151.5 234t53.5 270q0 121 -42.5 221.5
t-113.5 171.5q-72 72 -174.5 115t-226.5 43q-280 0 -475 -191q-103 -102 -156 -233.5t-53 -264.5q0 -231 149 -391q156 -164 396 -164zM731 1536l10 90h553l-10 -90h-553z" />
    <glyph glyph-name="omacron" unicode="&#x14d;" horiz-adv-x="1073" 
d="M614 854q89 0 173 -31t139 -86q104 -104 104 -288q0 -219 -137 -349q-133 -123 -342 -123q-185 0 -295 115q-51 53 -81 128.5t-30 162.5q0 97 37.5 190t102.5 156q64 61 151 93t178 32zM563 55q152 0 258 95q123 115 123 290q0 142 -88 238q-94 98 -250 98
q-150 0 -254 -94q-58 -53 -89.5 -129.5t-31.5 -157.5q0 -72 25.5 -137.5t69.5 -110.5q88 -92 237 -92zM362 1010l9 80h553l-9 -80h-553z" />
    <glyph glyph-name="Obreve" unicode="&#x14e;" horiz-adv-x="1648" 
d="M981 1384q289 0 473 -188q168 -174 168 -440q0 -344 -229 -568q-117 -114 -251.5 -162.5t-295.5 -48.5q-142 0 -255 40t-210 135q-186 181 -186 454q0 145 59 292t174 263q221 223 553 223zM834 59q298 0 491 189q98 98 151.5 234t53.5 270q0 121 -42.5 221.5
t-113.5 171.5q-72 72 -174.5 115t-226.5 43q-280 0 -475 -191q-103 -102 -156 -233.5t-53 -264.5q0 -231 149 -391q156 -164 396 -164zM766 1692h82q11 -45 47 -74q42 -33 119 -33q78 0 129 33q44 30 61 74h82q-28 -93 -98 -142q-74 -51 -182 -51q-100 0 -168 53
q-62 53 -72 140z" />
    <glyph glyph-name="obreve" unicode="&#x14f;" horiz-adv-x="1073" 
d="M614 854q89 0 173 -31t139 -86q104 -104 104 -288q0 -219 -137 -349q-133 -123 -342 -123q-185 0 -295 115q-51 53 -81 128.5t-30 162.5q0 97 37.5 190t102.5 156q64 61 151 93t178 32zM563 55q152 0 258 95q123 115 123 290q0 142 -88 238q-94 98 -250 98
q-150 0 -254 -94q-58 -53 -89.5 -129.5t-31.5 -157.5q0 -72 25.5 -137.5t69.5 -110.5q88 -92 237 -92zM401 1174h78q9 -53 49 -82q44 -33 121 -33q76 0 125 33q47 32 62 82h77q-18 -70 -69 -119q-78 -74 -199 -74q-110 0 -176 57q-61 56 -68 136z" />
    <glyph glyph-name="Ohungarumlaut" unicode="&#x150;" horiz-adv-x="1648" 
d="M981 1384q289 0 473 -188q168 -174 168 -440q0 -344 -229 -568q-117 -114 -251.5 -162.5t-295.5 -48.5q-142 0 -255 40t-210 135q-186 181 -186 454q0 145 59 292t174 263q221 223 553 223zM834 59q298 0 491 189q98 98 151.5 234t53.5 270q0 121 -42.5 221.5
t-113.5 171.5q-72 72 -174.5 115t-226.5 43q-280 0 -475 -191q-103 -102 -156 -233.5t-53 -264.5q0 -231 149 -391q156 -164 396 -164zM1014 1749l100 -53l-237 -256l-70 30zM1262 1749l100 -53l-238 -256l-69 30z" />
    <glyph glyph-name="ohungarumlaut" unicode="&#x151;" horiz-adv-x="1073" 
d="M614 854q89 0 173 -31t139 -86q104 -104 104 -288q0 -219 -137 -349q-133 -123 -342 -123q-185 0 -295 115q-51 53 -81 128.5t-30 162.5q0 97 37.5 190t102.5 156q64 61 151 93t178 32zM563 55q152 0 258 95q123 115 123 290q0 142 -88 238q-94 98 -250 98
q-150 0 -254 -94q-58 -53 -89.5 -129.5t-31.5 -157.5q0 -72 25.5 -137.5t69.5 -110.5q88 -92 237 -92zM666 1270l79 -51l-235 -263l-51 33zM893 1270l80 -51l-236 -263l-51 33z" />
    <glyph glyph-name="OE" unicode="&#x152;" horiz-adv-x="2201" 
d="M2259 1366l-10 -82h-563l-62 -496h549l-10 -81h-549l-76 -625h563l-10 -82h-653l39 317q-49 -73 -117 -139.5t-146 -111.5q-151 -89 -354 -89q-298 0 -479 181q-90 90 -139 214t-49 259q0 148 57 293t166 254q206 206 540 206q231 0 390 -106q150 -101 217 -268l43 356
h653zM946 1303q-286 0 -469 -183q-93 -94 -141.5 -220t-48.5 -257q0 -115 41 -228t118 -194q157 -162 416 -162q271 0 453 177q100 95 156.5 231t56.5 281q0 122 -46.5 229.5t-119.5 177.5q-156 148 -416 148z" />
    <glyph glyph-name="oe" unicode="&#x153;" horiz-adv-x="1787" 
d="M1741 412h-715q-11 -76 9.5 -152.5t68.5 -124.5q76 -80 209 -80q115 0 198 62q30 21 57.5 52t40 50t17.5 29l62 -41q-32 -49 -78 -97.5t-86 -74.5q-89 -58 -219 -58q-74 0 -138 24.5t-108 66.5q-7 6 -21.5 21.5t-38 54t-38.5 81.5q-63 -112 -175 -180t-249 -68
q-171 0 -275 107q-56 57 -86.5 133.5t-30.5 153.5q0 96 36 189.5t110 164.5q132 129 336 129q149 0 254 -80q83 -64 120 -166q47 101 140 170q105 76 235 76q166 0 262 -92q59 -57 87.5 -150.5t15.5 -199.5zM1042 489h617q-2 61 -26 123t-64 99q-72 65 -187 65
q-137 0 -231 -94q-80 -83 -109 -193zM621 776q-167 0 -271 -104q-54 -54 -85.5 -132t-31.5 -157q0 -71 26.5 -135.5t68.5 -106.5q86 -86 219 -86q161 0 274 111q63 61 93 140t30 159q0 61 -25 123.5t-67 103.5q-84 84 -231 84z" />
    <glyph glyph-name="Racute" unicode="&#x154;" horiz-adv-x="962" 
d="M860 0h-102l-363 645h-41l-80 -645h-90l168 1366h213q191 0 289 -94q84 -82 84 -228q0 -181 -109 -286q-64 -61 -155.5 -87t-179.5 -26zM432 1284l-67 -557h131q179 0 266 82q37 35 59.5 94t22.5 129q0 118 -74 185t-225 67h-113zM829 1749l97 -51l-308 -258l-59 37z" />
    <glyph glyph-name="racute" unicode="&#x155;" horiz-adv-x="532" 
d="M147 0l103 836h82l-13 -109q29 57 80 90q53 37 123 37q43 0 82 -20l-49 -74q-21 16 -59 16q-65 0 -115 -53q-32 -33 -53 -90.5t-29 -101.5t-16 -111l-54 -420h-82zM575 1270l82 -51l-247 -263l-58 33z" />
    <glyph glyph-name="Rcommaaccent" unicode="&#x156;" horiz-adv-x="962" 
d="M860 0h-102l-363 645h-41l-80 -645h-90l168 1366h213q191 0 289 -94q84 -82 84 -228q0 -181 -109 -286q-64 -61 -155.5 -87t-179.5 -26zM432 1284l-67 -557h131q179 0 266 82q37 35 59.5 94t22.5 129q0 118 -74 185t-225 67h-113zM315 -385l131 283l86 -33l-163 -275z
" />
    <glyph glyph-name="rcommaaccent" unicode="&#x157;" horiz-adv-x="532" 
d="M147 0l103 836h82l-13 -109q29 57 80 90q53 37 123 37q43 0 82 -20l-49 -74q-21 16 -59 16q-65 0 -115 -53q-32 -33 -53 -90.5t-29 -101.5t-16 -111l-54 -420h-82zM78 -385l119 283l86 -33l-152 -275z" />
    <glyph glyph-name="Rcaron" unicode="&#x158;" horiz-adv-x="962" 
d="M860 0h-102l-363 645h-41l-80 -645h-90l168 1366h213q191 0 289 -94q84 -82 84 -228q0 -181 -109 -286q-64 -61 -155.5 -87t-179.5 -26zM432 1284l-67 -557h131q179 0 266 82q37 35 59.5 94t22.5 129q0 118 -74 185t-225 67h-113zM625 1587l213 131l63 -55l-289 -184
l-243 184l75 55z" />
    <glyph glyph-name="rcaron" unicode="&#x159;" horiz-adv-x="532" 
d="M147 0l103 836h82l-13 -109q29 57 80 90q53 37 123 37q43 0 82 -20l-49 -74q-21 16 -59 16q-65 0 -115 -53q-32 -33 -53 -90.5t-29 -101.5t-16 -111l-54 -420h-82zM414 1059l202 139l60 -53l-275 -193l-225 193l72 53z" />
    <glyph glyph-name="Sacute" unicode="&#x15a;" horiz-adv-x="1052" 
d="M1018 1190l-72 -55q-21 57 -57.5 94.5t-77.5 51.5t-64.5 18t-44.5 4q-128 0 -210 -82q-80 -80 -80 -193q0 -83 57 -143q16 -17 37.5 -33t37.5 -25t45 -25t44 -24l67 -37q18 -10 58.5 -32t59.5 -32.5t45.5 -30t45.5 -38.5q82 -82 82 -207q0 -184 -127 -305
q-72 -70 -155.5 -94.5t-184.5 -24.5q-173 0 -274 101q-76 76 -107 192l82 37q30 -104 90 -164q84 -84 213 -84q77 0 149.5 23t121.5 68q94 89 94 237q0 100 -66 166q-18 18 -44 36t-44 28t-52 28t-44 23l-94 51q-101 56 -154 112q-78 81 -78 193q0 145 105 250
q114 110 285 110q104 0 188 -48.5t123 -145.5zM903 1749l96 -51l-307 -258l-59 37z" />
    <glyph glyph-name="sacute" unicode="&#x15b;" horiz-adv-x="700" 
d="M678 719l-74 -37q-15 45 -47 68q-39 26 -92 26q-72 0 -117 -45q-37 -37 -37 -92q0 -44 33 -80q24 -24 86 -51l64 -27q83 -34 122 -73q56 -58 56 -148q0 -115 -74 -194q-85 -89 -229 -89q-121 0 -193 72q-57 57 -74 150l82 24q12 -73 56 -117q51 -51 131 -51q96 0 153 54
q60 60 60 141q0 61 -39 100q-27 27 -101 60l-49 20q-77 32 -121 76q-49 49 -49 121q0 91 62 153q71 74 184 74q81 0 135 -37q54 -36 72 -98zM616 1270l82 -51l-247 -263l-58 33z" />
    <glyph glyph-name="Scircumflex" unicode="&#x15c;" horiz-adv-x="1052" 
d="M1018 1190l-72 -55q-21 57 -57.5 94.5t-77.5 51.5t-64.5 18t-44.5 4q-128 0 -210 -82q-80 -80 -80 -193q0 -83 57 -143q16 -17 37.5 -33t37.5 -25t45 -25t44 -24l67 -37q18 -10 58.5 -32t59.5 -32.5t45.5 -30t45.5 -38.5q82 -82 82 -207q0 -184 -127 -305
q-72 -70 -155.5 -94.5t-184.5 -24.5q-173 0 -274 101q-76 76 -107 192l82 37q30 -104 90 -164q84 -84 213 -84q77 0 149.5 23t121.5 68q94 89 94 237q0 100 -66 166q-18 18 -44 36t-44 28t-52 28t-44 23l-94 51q-101 56 -154 112q-78 81 -78 193q0 145 105 250
q114 110 285 110q104 0 188 -48.5t123 -145.5zM752 1610l-213 -131l-64 55l289 184l244 -184l-76 -55z" />
    <glyph glyph-name="scircumflex" unicode="&#x15d;" horiz-adv-x="700" 
d="M678 719l-74 -37q-15 45 -47 68q-39 26 -92 26q-72 0 -117 -45q-37 -37 -37 -92q0 -44 33 -80q24 -24 86 -51l64 -27q83 -34 122 -73q56 -58 56 -148q0 -115 -74 -194q-85 -89 -229 -89q-121 0 -193 72q-57 57 -74 150l82 24q12 -73 56 -117q51 -51 131 -51q96 0 153 54
q60 60 60 141q0 61 -39 100q-27 27 -101 60l-49 20q-77 32 -121 76q-49 49 -49 121q0 91 62 153q71 74 184 74q81 0 135 -37q54 -36 72 -98zM512 1096l-203 -140l-59 52l274 192l226 -192l-72 -52z" />
    <glyph glyph-name="Scedilla" unicode="&#x15e;" horiz-adv-x="1052" 
d="M1018 1190l-72 -55q-21 57 -57.5 94.5t-77.5 51.5t-64.5 18t-44.5 4q-128 0 -210 -82q-80 -80 -80 -193q0 -83 57 -143q16 -17 37.5 -33t37.5 -25t45 -25t44 -24l67 -37q18 -10 58.5 -32t59.5 -32.5t45.5 -30t45.5 -38.5q82 -82 82 -207q0 -184 -127 -305
q-72 -70 -155.5 -94.5t-184.5 -24.5q-173 0 -274 101q-76 76 -107 192l82 37q30 -104 90 -164q84 -84 213 -84q77 0 149.5 23t121.5 68q94 89 94 237q0 100 -66 166q-18 18 -44 36t-44 28t-52 28t-44 23l-94 51q-101 56 -154 112q-78 81 -78 193q0 145 105 250
q114 110 285 110q104 0 188 -48.5t123 -145.5zM510 -102l90 -58l-264 -254l-57 41z" />
    <glyph glyph-name="scedilla" unicode="&#x15f;" horiz-adv-x="700" 
d="M678 719l-74 -37q-15 45 -47 68q-39 26 -92 26q-72 0 -117 -45q-37 -37 -37 -92q0 -44 33 -80q24 -24 86 -51l64 -27q83 -34 122 -73q56 -58 56 -148q0 -115 -74 -194q-85 -89 -229 -89q-121 0 -193 72q-57 57 -74 150l82 24q12 -73 56 -117q51 -51 131 -51q96 0 153 54
q60 60 60 141q0 61 -39 100q-27 27 -101 60l-49 20q-77 32 -121 76q-49 49 -49 121q0 91 62 153q71 74 184 74q81 0 135 -37q54 -36 72 -98zM354 -102l90 -41l-243 -254l-54 32z" />
    <glyph glyph-name="Scaron" unicode="&#x160;" horiz-adv-x="1052" 
d="M1018 1190l-72 -55q-21 57 -57.5 94.5t-77.5 51.5t-64.5 18t-44.5 4q-128 0 -210 -82q-80 -80 -80 -193q0 -83 57 -143q16 -17 37.5 -33t37.5 -25t45 -25t44 -24l67 -37q18 -10 58.5 -32t59.5 -32.5t45.5 -30t45.5 -38.5q82 -82 82 -207q0 -184 -127 -305
q-72 -70 -155.5 -94.5t-184.5 -24.5q-173 0 -274 101q-76 76 -107 192l82 37q30 -104 90 -164q84 -84 213 -84q77 0 149.5 23t121.5 68q94 89 94 237q0 100 -66 166q-18 18 -44 36t-44 28t-52 28t-44 23l-94 51q-101 56 -154 112q-78 81 -78 193q0 145 105 250
q114 110 285 110q104 0 188 -48.5t123 -145.5zM731 1587l213 131l64 -55l-289 -184l-244 184l76 55z" />
    <glyph glyph-name="scaron" unicode="&#x161;" horiz-adv-x="700" 
d="M678 719l-74 -37q-15 45 -47 68q-39 26 -92 26q-72 0 -117 -45q-37 -37 -37 -92q0 -44 33 -80q24 -24 86 -51l64 -27q83 -34 122 -73q56 -58 56 -148q0 -115 -74 -194q-85 -89 -229 -89q-121 0 -193 72q-57 57 -74 150l82 24q12 -73 56 -117q51 -51 131 -51q96 0 153 54
q60 60 60 141q0 61 -39 100q-27 27 -101 60l-49 20q-77 32 -121 76q-49 49 -49 121q0 91 62 153q71 74 184 74q81 0 135 -37q54 -36 72 -98zM502 1059l203 139l59 -53l-275 -193l-225 193l72 53z" />
    <glyph glyph-name="Tcedilla" unicode="&#x162;" horiz-adv-x="856" 
d="M985 1284h-354l-158 -1284h-90l158 1284h-355l11 82h798zM428 -102l90 -58l-264 -254l-57 41z" />
    <glyph glyph-name="tcedilla" unicode="&#x163;" horiz-adv-x="397" 
d="M473 758h-145l-92 -758h-82l92 758h-92l10 78h92l37 299h82l-37 -299h145zM170 -102l90 -41l-244 -254l-53 32z" />
    <glyph glyph-name="Tcaron" unicode="&#x164;" horiz-adv-x="856" 
d="M985 1284h-354l-158 -1284h-90l158 1284h-355l11 82h798zM623 1587l213 131l63 -55l-289 -184l-243 184l75 55z" />
    <glyph glyph-name="tcaron" unicode="&#x165;" horiz-adv-x="450" 
d="M473 758h-145l-92 -758h-82l92 758h-92l10 78h92l37 299h82l-37 -299h145zM430 1069l139 324l86 -33l-172 -316z" />
    <glyph glyph-name="Utilde" unicode="&#x168;" horiz-adv-x="1296" 
d="M350 1366h90l-104 -854q-16 -131 -10 -187q11 -109 82 -178q90 -88 254 -88q189 0 296 107q44 44 71.5 106.5t36.5 109.5t19 130l105 854h90l-104 -854q-6 -52 -9.5 -79t-15.5 -79.5t-27 -88t-43 -80.5t-65 -81q-77 -75 -164.5 -101t-192.5 -26q-212 0 -325 113
q-52 53 -76 122t-22.5 141.5t10.5 158.5zM621 1468l-54 45q24 46 56 78q45 45 108 45q42 0 100 -26l50 -23q50 -22 84 -22q29 0 51 22q20 15 39 55l55 -45q-26 -51 -61 -81q-46 -41 -99 -41q-41 0 -106 28l-43 19q-62 24 -84 24q-33 0 -60 -24q-19 -17 -36 -54z" />
    <glyph glyph-name="utilde" unicode="&#x169;" horiz-adv-x="894" 
d="M248 836h82l-62 -504q-20 -162 51 -228q55 -49 144 -49q107 0 170 66q57 61 74 211l61 504h82l-70 -527q-8 -57 -14.5 -89.5t-24 -77t-45.5 -76.5q-80 -89 -237 -89q-135 0 -209 76q-30 31 -46.5 68.5t-20 78.5t-2.5 66.5t5 61.5zM362 997l-49 39q18 38 56 76
q44 41 102 41q10 0 20.5 -1.5t18 -3t17.5 -5t14.5 -5t15 -6.5t14.5 -6l50 -22q48 -23 79 -23q37 0 62 25q11 11 35 51l47 -41q-22 -49 -66 -84q-40 -33 -92 -33q-38 0 -94 25l-49 23q-54 24 -88 24q-33 0 -58 -22q-21 -21 -35 -52z" />
    <glyph glyph-name="Umacron" unicode="&#x16a;" horiz-adv-x="1296" 
d="M350 1366h90l-104 -854q-16 -131 -10 -187q11 -109 82 -178q90 -88 254 -88q189 0 296 107q44 44 71.5 106.5t36.5 109.5t19 130l105 854h90l-104 -854q-6 -52 -9.5 -79t-15.5 -79.5t-27 -88t-43 -80.5t-65 -81q-77 -75 -164.5 -101t-192.5 -26q-212 0 -325 113
q-52 53 -76 122t-22.5 141.5t10.5 158.5zM561 1536l10 90h553l-10 -90h-553z" />
    <glyph glyph-name="umacron" unicode="&#x16b;" horiz-adv-x="894" 
d="M248 836h82l-62 -504q-20 -162 51 -228q55 -49 144 -49q107 0 170 66q57 61 74 211l61 504h82l-70 -527q-8 -57 -14.5 -89.5t-24 -77t-45.5 -76.5q-80 -89 -237 -89q-135 0 -209 76q-30 31 -46.5 68.5t-20 78.5t-2.5 66.5t5 61.5zM297 1010l8 80h553l-8 -80h-553z" />
    <glyph glyph-name="Ubreve" unicode="&#x16c;" horiz-adv-x="1296" 
d="M350 1366h90l-104 -854q-16 -131 -10 -187q11 -109 82 -178q90 -88 254 -88q189 0 296 107q44 44 71.5 106.5t36.5 109.5t19 130l105 854h90l-104 -854q-6 -52 -9.5 -79t-15.5 -79.5t-27 -88t-43 -80.5t-65 -81q-77 -75 -164.5 -101t-192.5 -26q-212 0 -325 113
q-52 53 -76 122t-22.5 141.5t10.5 158.5zM596 1692h82q11 -45 47 -74q42 -33 119 -33q78 0 129 33q44 30 61 74h82q-28 -93 -98 -142q-74 -51 -182 -51q-100 0 -168 53q-62 53 -72 140z" />
    <glyph glyph-name="ubreve" unicode="&#x16d;" horiz-adv-x="894" 
d="M248 836h82l-62 -504q-20 -162 51 -228q55 -49 144 -49q107 0 170 66q57 61 74 211l61 504h82l-70 -527q-8 -57 -14.5 -89.5t-24 -77t-45.5 -76.5q-80 -89 -237 -89q-135 0 -209 76q-30 31 -46.5 68.5t-20 78.5t-2.5 66.5t5 61.5zM336 1174h78q9 -53 49 -82
q44 -33 121 -33q76 0 125 33q46 31 61 82h78q-18 -69 -70 -119q-78 -74 -198 -74q-111 0 -177 57q-60 55 -67 136z" />
    <glyph glyph-name="Uring" unicode="&#x16e;" horiz-adv-x="1296" 
d="M350 1366h90l-104 -854q-16 -131 -10 -187q11 -109 82 -178q90 -88 254 -88q189 0 296 107q44 44 71.5 106.5t36.5 109.5t19 130l105 854h90l-104 -854q-6 -52 -9.5 -79t-15.5 -79.5t-27 -88t-43 -80.5t-65 -81q-77 -75 -164.5 -101t-192.5 -26q-212 0 -325 113
q-52 53 -76 122t-22.5 141.5t10.5 158.5zM682 1595q0 76 51 127q25 25 59.5 39.5t67.5 14.5q69 0 113 -47q41 -45 41 -107q0 -72 -51 -123t-127 -51q-70 0 -111 41q-43 43 -43 106zM764 1604q0 -34 20 -54q22 -22 60 -22q42 0 65 26q23 23 23 62q0 36 -23 59q-25 21 -57 21
q-36 0 -61 -25q-27 -27 -27 -67z" />
    <glyph glyph-name="uring" unicode="&#x16f;" horiz-adv-x="894" 
d="M248 836h82l-62 -504q-20 -162 51 -228q55 -49 144 -49q107 0 170 66q57 61 74 211l61 504h82l-70 -527q-8 -57 -14.5 -89.5t-24 -77t-45.5 -76.5q-80 -89 -237 -89q-135 0 -209 76q-30 31 -46.5 68.5t-20 78.5t-2.5 66.5t5 61.5zM426 1108q0 70 51 121q53 53 127 53
q61 0 103 -39q38 -36 38 -100q0 -74 -49 -127q-49 -49 -127 -49q-60 0 -102 39q-41 41 -41 102zM502 1112q0 -31 18 -49q20 -23 58 -23q40 0 67 27q25 25 25 66q0 34 -19 53q-19 22 -57 22q-37 0 -64 -24q-28 -28 -28 -72z" />
    <glyph glyph-name="Uhungarumlaut" unicode="&#x170;" horiz-adv-x="1296" 
d="M350 1366h90l-104 -854q-16 -131 -10 -187q11 -109 82 -178q90 -88 254 -88q189 0 296 107q44 44 71.5 106.5t36.5 109.5t19 130l105 854h90l-104 -854q-6 -52 -9.5 -79t-15.5 -79.5t-27 -88t-43 -80.5t-65 -81q-77 -75 -164.5 -101t-192.5 -26q-212 0 -325 113
q-52 53 -76 122t-22.5 141.5t10.5 158.5zM844 1749l100 -53l-237 -256l-70 30zM1092 1749l100 -53l-238 -256l-69 30z" />
    <glyph glyph-name="uhungarumlaut" unicode="&#x171;" horiz-adv-x="894" 
d="M248 836h82l-62 -504q-20 -162 51 -228q55 -49 144 -49q107 0 170 66q57 61 74 211l61 504h82l-70 -527q-8 -57 -14.5 -89.5t-24 -77t-45.5 -76.5q-80 -89 -237 -89q-135 0 -209 76q-30 31 -46.5 68.5t-20 78.5t-2.5 66.5t5 61.5zM602 1270l80 -51l-236 -263l-51 33z
M829 1270l80 -51l-235 -263l-51 33z" />
    <glyph glyph-name="Uogonek" unicode="&#x172;" horiz-adv-x="1296" 
d="M350 1366h90l-104 -854q-12 -90 -12 -143q0 -140 84 -222q90 -88 254 -88q189 0 296 107q34 34 57.5 75.5t37 91t19 83t11.5 86.5q0 1 1 6q19 144 106 858h90l-109 -891q-16 -134 -43.5 -213t-101.5 -147q-29 -27 -63.5 -49.5t-58 -34.5t-70.5 -33q-110 -54 -150 -94
q-53 -53 -53 -115q0 -48 35 -70q30 -18 79 -18q51 0 105 23l-27 -80q-49 -17 -98 -17q-81 0 -129 37q-53 41 -53 107q0 61 41 125q33 48 84 84q-18 -3 -37 -3q-84 0 -165 32t-132 81q-98 95 -98 275q0 65 10 147z" />
    <glyph glyph-name="uogonek" unicode="&#x173;" horiz-adv-x="894" 
d="M248 836h82l-58 -469q-8 -58 -8 -103q0 -109 55 -160q55 -49 144 -49q107 0 170 66q57 61 74 211l61 504h82l-70 -527q-16 -121 -43 -174q-35 -71 -110 -131q-9 -8 -29 -24t-37.5 -31.5t-34.5 -34.5q-59 -63 -59 -123q0 -50 41 -72q34 -18 80 -18q43 0 88 18l-27 -75
q-44 -15 -84 -15q-77 0 -125 37q-51 38 -51 111q0 62 41 121q28 40 76 79q-86 -2 -148 13t-108 63q-70 70 -70 193q0 27 13 133z" />
    <glyph glyph-name="Ydieresis" unicode="&#x178;" horiz-adv-x="1056" 
d="M477 0l72 584l-352 782h98l309 -690l486 690h106l-557 -782l-72 -584h-90zM838 1587q0 38 26 64q24 24 58 24q33 0 53 -20q18 -22 18 -49q0 -36 -26 -62q-24 -24 -64 -24q-29 0 -47 18q-18 16 -18 49zM457 1587q0 38 26 64q24 24 58 24q33 0 53 -20q18 -22 18 -49
q0 -36 -26 -62q-24 -24 -64 -24q-29 0 -47 18q-18 16 -18 49z" />
    <glyph glyph-name="Zacute" unicode="&#x179;" horiz-adv-x="1134" 
d="M1227 1366l-989 -1284h809l-11 -82h-960l989 1284h-752l11 82h903zM944 1749l96 -51l-307 -258l-59 37z" />
    <glyph glyph-name="zacute" unicode="&#x17a;" horiz-adv-x="925" 
d="M991 836l-768 -758h672l-10 -78h-848l776 758h-577l10 78h745zM760 1270l82 -51l-248 -263l-57 33z" />
    <glyph glyph-name="Zdotaccent" unicode="&#x17b;" horiz-adv-x="1134" 
d="M1227 1366l-989 -1284h809l-11 -82h-960l989 1284h-752l11 82h903zM707 1587q0 44 24 68q22 28 70 28q33 0 53 -20t20 -51q0 -44 -24 -68q-24 -28 -68 -28q-35 0 -55 20t-20 51z" />
    <glyph glyph-name="zdotaccent" unicode="&#x17c;" horiz-adv-x="925" 
d="M991 836l-768 -758h672l-10 -78h-848l776 758h-577l10 78h745zM543 1069q0 38 26 64t64 26q29 0 51 -18q21 -17 21 -51q0 -40 -29 -66q-25 -25 -62 -25q-28 0 -51 19q-20 20 -20 51z" />
    <glyph glyph-name="Zcaron" unicode="&#x17d;" horiz-adv-x="1134" 
d="M1227 1366l-989 -1284h809l-11 -82h-960l989 1284h-752l11 82h903zM788 1587l213 131l64 -55l-289 -184l-244 184l76 55z" />
    <glyph glyph-name="zcaron" unicode="&#x17e;" horiz-adv-x="925" 
d="M991 836l-768 -758h672l-10 -78h-848l776 758h-577l10 78h745zM621 1059l202 139l60 -53l-275 -193l-225 193l72 53z" />
    <glyph glyph-name="uni018F" unicode="&#x18f;" horiz-adv-x="1585" 
d="M188 655h1268q24 145 -16.5 276t-130.5 218q-76 73 -184.5 113.5t-215.5 40.5q-29 0 -67.5 -3.5t-125 -28.5t-157.5 -69q-119 -75 -201 -194l-71 57q99 137 235 217q180 102 402 102q274 0 452 -172q183 -177 183 -460q0 -175 -62 -325.5t-162 -250.5
q-197 -199 -526 -199q-134 0 -238 33.5t-194 120.5q-94 91 -147.5 231.5t-41.5 292.5zM1438 573h-1162q-2 -94 38 -197.5t112 -174.5q69 -66 170.5 -104t218.5 -38q232 0 393 123q189 148 230 391z" />
    <glyph glyph-name="florin" unicode="&#x192;" horiz-adv-x="1122" 
d="M389 758l21 78h127l127 481q23 99 77 147q58 52 146 52q65 0 117 -29l-23 -74q-49 25 -92 25q-64 0 -103 -37q-27 -25 -43 -84l-125 -481h207l-20 -78h-207l-211 -813q-42 -163 -104 -217q-64 -56 -158 -56q-68 0 -135 29l22 76q63 -27 113 -27q63 0 102 35q38 35 76 172
l213 801h-127z" />
    <glyph glyph-name="uni01CF" unicode="&#x1cf;" horiz-adv-x="458" 
d="M352 1366h90l-168 -1366h-90zM426 1595l178 123l66 -57l-258 -182l-213 182l77 57z" />
    <glyph glyph-name="uni01D0" unicode="&#x1d0;" horiz-adv-x="376" 
d="M250 836h82l-103 -836h-82zM313 1071l160 123l57 -53l-225 -176l-184 176l65 53z" />
    <glyph glyph-name="uni01DD" unicode="&#x1dd;" horiz-adv-x="993" 
d="M147 424h715q16 168 -86 270q-82 82 -225 82q-117 0 -197 -61q-59 -45 -104 -129l-72 41q56 95 127 149q103 78 248 78q94 0 169.5 -30.5t123.5 -78.5q104 -104 104 -284q0 -241 -141 -377q-110 -107 -274 -107q-172 0 -273 101q-60 60 -92 155.5t-23 190.5zM848 346
h-623q6 -131 90 -215q78 -76 213 -76q138 0 220 80q38 37 65.5 92.5t34.5 118.5z" />
    <glyph glyph-name="Gcaron" unicode="&#x1e6;" horiz-adv-x="1583" 
d="M969 573l10 82h573q-12 -122 -61 -251.5t-152 -231.5q-197 -195 -489 -195q-288 0 -471 183q-184 181 -184 450q0 173 62 314t165 241q223 219 559 219q201 0 360 -100q130 -86 207 -219l-80 -57q-73 129 -172 198q-139 97 -319 97q-140 0 -268.5 -52.5t-219.5 -140.5
q-96 -95 -149 -225.5t-53 -263.5q0 -119 42.5 -221t112.5 -175q76 -79 178 -122.5t216 -43.5q130 0 247.5 48.5t202.5 136.5q131 135 164 329h-481zM985 1587l213 131l64 -55l-289 -184l-244 184l76 55z" />
    <glyph glyph-name="gcaron" unicode="&#x1e7;" horiz-adv-x="1064" 
d="M938 836h82l-98 -811q-9 -74 -19.5 -127t-41.5 -124.5t-77 -119.5q-56 -59 -140 -92t-187 -33q-179 0 -277 98q-45 43 -74 111.5t-30 148.5h86q4 -123 74 -196q80 -84 231 -84q160 0 252 92q91 91 121 326l14 118q-52 -76 -135 -118q-93 -48 -195 -48q-178 0 -280 107
q-107 114 -107 293q0 99 34 191.5t101 160.5q66 69 143.5 97t172.5 28q136 0 227 -57q64 -45 105 -107zM590 776q-144 0 -244 -92q-55 -52 -87 -134.5t-32 -172.5q0 -137 88 -234q82 -88 230 -88q145 0 239 97q52 55 81.5 136.5t29.5 170.5q0 151 -88 235q-38 38 -96 60
t-121 22zM641 1059l203 139l59 -53l-274 -193l-226 193l72 53z" />
    <glyph glyph-name="AEacute" unicode="&#x1fc;" horiz-adv-x="1744" 
d="M1071 0l-127 449h-584l-233 -449h-98l719 1366h591l25 -82h-563l141 -496h549l25 -81h-549l178 -625h559l27 -82h-660zM403 530h517l-183 644zM1223 1749l96 -51l-307 -258l-60 37z" />
    <glyph glyph-name="aeacute" unicode="&#x1fd;" horiz-adv-x="1628" 
d="M238 696l10 88q132 70 266 70q160 0 248 -82q70 -70 84 -162q52 104 139 168q105 76 238 76q164 0 260 -92q64 -62 89.5 -158.5t12.5 -197.5h-715q-11 -71 9.5 -146.5t68.5 -124.5q76 -80 209 -80q116 0 199 62q30 21 57.5 52.5t39.5 49.5t17 29l62 -41q-32 -49 -77 -97
t-87 -75q-89 -58 -207 -58q-127 0 -217 56q-84 54 -123 141q-27 -62 -68 -100t-79 -56q-82 -41 -209 -41q-149 0 -238 58q-106 69 -106 190q0 131 106 207q97 70 258 70q187 0 293 -90q22 217 -65 299q-71 65 -209 65q-127 0 -266 -80zM483 422q-150 0 -221 -66
q-55 -52 -55 -118q0 -40 21 -79.5t61 -64.5q64 -39 176 -39q134 0 211 56q37 27 56.5 67.5t19.5 83.5q0 79 -84 125q-66 35 -185 35zM885 483h618q-2 64 -26 127.5t-64 100.5q-72 65 -186 65q-138 0 -232 -94q-81 -85 -110 -199zM1081 1270l82 -51l-248 -263l-57 33z" />
    <glyph glyph-name="Scommaaccent" unicode="&#x218;" horiz-adv-x="1052" 
d="M1018 1190l-72 -55q-21 57 -57.5 94.5t-77.5 51.5t-64.5 18t-44.5 4q-128 0 -210 -82q-80 -80 -80 -193q0 -83 57 -143q16 -17 37.5 -33t37.5 -25t45 -25t44 -24l67 -37q18 -10 58.5 -32t59.5 -32.5t45.5 -30t45.5 -38.5q82 -82 82 -207q0 -184 -127 -305
q-72 -70 -155.5 -94.5t-184.5 -24.5q-173 0 -274 101q-76 76 -107 192l82 37q30 -104 90 -164q84 -84 213 -84q77 0 149.5 23t121.5 68q94 89 94 237q0 100 -66 166q-18 18 -44 36t-44 28t-52 28t-44 23l-94 51q-101 56 -154 112q-78 81 -78 193q0 145 105 250
q114 110 285 110q104 0 188 -48.5t123 -145.5zM348 -385l131 283l86 -33l-164 -275z" />
    <glyph glyph-name="scommaaccent" unicode="&#x219;" horiz-adv-x="700" 
d="M678 719l-74 -37q-15 45 -47 68q-39 26 -92 26q-72 0 -117 -45q-37 -37 -37 -92q0 -44 33 -80q24 -24 86 -51l64 -27q83 -34 122 -73q56 -58 56 -148q0 -115 -74 -194q-85 -89 -229 -89q-121 0 -193 72q-57 57 -74 150l82 24q12 -73 56 -117q51 -51 131 -51q96 0 153 54
q60 60 60 141q0 61 -39 100q-27 27 -101 60l-49 20q-77 32 -121 76q-49 49 -49 121q0 91 62 153q71 74 184 74q81 0 135 -37q54 -36 72 -98zM184 -385l119 283l86 -33l-151 -275z" />
    <glyph glyph-name="Tcommaaccent" unicode="&#x21a;" horiz-adv-x="856" 
d="M985 1284h-354l-158 -1284h-90l158 1284h-355l11 82h798zM266 -385l131 283l86 -33l-164 -275z" />
    <glyph glyph-name="tcommaaccent" unicode="&#x21b;" horiz-adv-x="397" 
d="M473 758h-145l-92 -758h-82l92 758h-92l10 78h92l37 299h82l-37 -299h145zM41 -385l119 283l86 -33l-152 -275z" />
    <glyph glyph-name="uni0228" unicode="&#x228;" horiz-adv-x="950" 
d="M1008 1366l-11 -82h-565l-61 -496h553l-11 -81h-553l-75 -625h565l-10 -82h-570h-86l168 1366h656zM512 -102l90 -58l-264 -254l-57 41z" />
    <glyph glyph-name="uni0229" unicode="&#x229;" horiz-adv-x="997" 
d="M948 408h-712q-13 -78 12 -151.5t71 -119.5q82 -82 211 -82q116 0 199 60q70 51 109 131l63 -41q-62 -109 -149 -166q-92 -62 -224 -62q-175 0 -278 111q-105 111 -105 285q0 220 140 360q121 121 299 121q163 0 262 -96q120 -115 102 -350zM248 485h618
q-1 63 -24.5 119.5t-59.5 93.5q-74 78 -198 78q-145 0 -240 -100q-75 -78 -96 -191zM526 -102l90 -41l-243 -254l-54 32z" />
    <glyph glyph-name="uni0237" unicode="&#x237;" horiz-adv-x="376" 
d="M250 836h82l-160 -1307h-82z" />
    <glyph glyph-name="uni0259" unicode="&#x259;" horiz-adv-x="993" 
d="M147 424h715q16 168 -86 270q-82 82 -225 82q-117 0 -197 -61q-59 -45 -104 -129l-72 41q56 95 127 149q103 78 248 78q94 0 169.5 -30.5t123.5 -78.5q104 -104 104 -284q0 -241 -141 -377q-110 -107 -274 -107q-172 0 -273 101q-60 60 -92 155.5t-23 190.5zM848 346
h-623q6 -131 90 -215q78 -76 213 -76q138 0 220 80q38 37 65.5 92.5t34.5 118.5z" />
    <glyph glyph-name="afii57929" unicode="&#x2bc;" 
d="M524 1069l140 324l86 -33l-172 -316z" />
    <glyph glyph-name="circumflex" unicode="&#x2c6;" 
d="M647 1096l-203 -140l-59 52l274 192l226 -192l-72 -52z" />
    <glyph glyph-name="caron" unicode="&#x2c7;" 
d="M641 1059l203 139l59 -53l-274 -193l-226 193l72 53z" />
    <glyph glyph-name="uni02C9" unicode="&#x2c9;" 
d="M360 1010l9 80h553l-9 -80h-553z" />
    <glyph glyph-name="breve" unicode="&#x2d8;" 
d="M399 1174h78q9 -53 49 -82q44 -33 121 -33q76 0 125 33q47 32 62 82h77q-18 -70 -69 -119q-78 -74 -199 -74q-110 0 -176 57q-61 56 -68 136z" />
    <glyph glyph-name="dotaccent" unicode="&#x2d9;" 
d="M563 1069q0 37 27 64q26 26 63 26q30 0 52 -18q20 -17 20 -51q0 -40 -29 -66q-25 -25 -61 -25q-28 0 -51 19q-21 21 -21 51z" />
    <glyph glyph-name="ring" unicode="&#x2da;" 
d="M489 1108q0 69 52 121q53 53 127 53q60 0 102 -39q39 -37 39 -100q0 -74 -49 -127q-49 -49 -127 -49q-61 0 -103 39q-41 41 -41 102zM565 1112q0 -30 19 -49q20 -23 57 -23q41 0 68 27q24 24 24 66q0 35 -18 53q-19 22 -58 22q-36 0 -63 -24q-29 -29 -29 -72z" />
    <glyph glyph-name="ogonek" unicode="&#x2db;" 
d="M698 -281l-26 -73q-50 -17 -94 -17q-77 0 -128 41t-51 107q0 41 21.5 84t54.5 76q35 35 86 63h82q-58 -37 -92 -74q-72 -72 -72 -141q0 -34 23 -57q27 -27 88 -27q48 0 108 18z" />
    <glyph glyph-name="tilde" unicode="&#x2dc;" 
d="M428 997l-49 39q19 40 55 76q44 41 103 41q10 0 20.5 -1.5t18 -3t17.5 -5t14.5 -5t15 -6.5t14.5 -6l49 -22q48 -23 80 -23q36 0 61 25q11 11 35 51l47 -41q-23 -50 -65 -84q-40 -33 -92 -33q-39 0 -95 25l-49 23q-54 24 -88 24q-32 0 -57 -22q-21 -21 -35 -52z" />
    <glyph glyph-name="hungarumlaut" unicode="&#x2dd;" 
d="M666 1270l79 -51l-235 -263l-51 33zM893 1270l80 -51l-236 -263l-51 33z" />
    <glyph glyph-name="acutecomb" unicode="&#x301;" horiz-adv-x="4" 
d="M-248 1270l82 -51l-248 -263l-57 33z" />
    <glyph glyph-name="uni0394" unicode="&#x394;" horiz-adv-x="1286" 
d="M1257 0h-1228l573 1366h82zM643 1235l-479 -1153h958z" />
    <glyph glyph-name="uni0394" unicode="&#x2206;" horiz-adv-x="1286" 
d="M1257 0h-1228l573 1366h82zM643 1235l-479 -1153h958z" />
    <glyph glyph-name="uni03A9" unicode="&#x3a9;" horiz-adv-x="1273" 
d="M57 82h418q-131 67 -237 188q-181 210 -181 453q0 130 46.5 256t140.5 223q175 182 438 182t438 -182q94 -97 140.5 -223t46.5 -256q0 -243 -181 -453q-106 -121 -237 -188h418v-82h-525v90q74 39 151.5 98t131.5 125q147 178 147 404q0 128 -44 240t-117 188
q-75 79 -172 118.5t-197 39.5t-197 -39.5t-172 -118.5q-73 -76 -117 -188t-44 -240q0 -226 147 -404q54 -66 131.5 -125t151.5 -98v-90h-525v82z" />
    <glyph glyph-name="uni03A9" unicode="&#x2126;" horiz-adv-x="1273" 
d="M57 82h418q-131 67 -237 188q-181 210 -181 453q0 130 46.5 256t140.5 223q175 182 438 182t438 -182q94 -97 140.5 -223t46.5 -256q0 -243 -181 -453q-106 -121 -237 -188h418v-82h-525v90q74 39 151.5 98t131.5 125q147 178 147 404q0 128 -44 240t-117 188
q-75 79 -172 118.5t-197 39.5t-197 -39.5t-172 -118.5q-73 -76 -117 -188t-44 -240q0 -226 147 -404q54 -66 131.5 -125t151.5 -98v-90h-525v82z" />
    <glyph glyph-name="pi" unicode="&#x3c0;" horiz-adv-x="997" 
d="M367 0h-82v758h-148v78h918v-78h-148v-758h-82v758h-458v-758z" />
    <glyph glyph-name="afii10023" unicode="&#x401;" horiz-adv-x="950" 
d="M1008 1366l-11 -82h-565l-61 -496h553l-11 -81h-553l-75 -625h565l-10 -82h-570h-86l168 1366h656zM825 1587q0 37 27 64q24 24 57 24q34 0 54 -20q18 -22 18 -49q0 -35 -27 -62q-24 -24 -63 -24q-29 0 -47 18q-19 17 -19 49zM444 1587q0 37 27 64q24 24 57 24
q34 0 54 -20q18 -22 18 -49q0 -35 -27 -62q-24 -24 -63 -24q-29 0 -47 18q-19 17 -19 49z" />
    <glyph glyph-name="afii10051" unicode="&#x402;" horiz-adv-x="1269" 
d="M1026 1284h-410l-65 -536q149 47 287 47q158 0 264 -95q54 -50 84.5 -130t30.5 -175q0 -90 -30.5 -171t-86.5 -138q-59 -61 -126.5 -80.5t-150.5 -19.5q-81 0 -172 16l11 82q73 -14 149 -14q138 0 219 75q90 86 90 250q0 153 -73 232q-78 86 -234 86q-121 0 -272 -47
l-82 -666h-90l157 1284h-340l11 82h839z" />
    <glyph glyph-name="afii10052" unicode="&#x403;" horiz-adv-x="819" 
d="M184 0l168 1366h606l-10 -82h-516l-158 -1284h-90zM862 1749l96 -51l-307 -258l-59 37z" />
    <glyph glyph-name="afii10053" unicode="&#x404;" horiz-adv-x="1396" 
d="M1434 1206l-15 -119q-36 46 -84.5 88t-97.5 68q-55 27 -127 43.5t-135 16.5q-132 0 -259.5 -55t-217.5 -146q-140 -140 -187 -357h906l-11 -81h-909q-10 -131 31.5 -248.5t122.5 -198.5q75 -75 176 -116.5t213 -41.5q139 0 264 58q121 55 215 149l-14 -119
q-92 -78 -197 -122q-117 -48 -270 -48q-276 0 -455 179q-188 188 -188 458q0 145 58.5 290t182.5 263q227 217 549 217q146 0 279 -55q98 -48 170 -123z" />
    <glyph glyph-name="afii10054" unicode="&#x405;" horiz-adv-x="1052" 
d="M1018 1190l-72 -55q-21 57 -57.5 94.5t-77.5 51.5t-64.5 18t-44.5 4q-128 0 -210 -82q-80 -80 -80 -193q0 -83 57 -143q16 -17 37.5 -33t37.5 -25t45 -25t44 -24l67 -37q18 -10 58.5 -32t59.5 -32.5t45.5 -30t45.5 -38.5q82 -82 82 -207q0 -184 -127 -305
q-72 -70 -155.5 -94.5t-184.5 -24.5q-173 0 -274 101q-76 76 -107 192l82 37q30 -104 90 -164q84 -84 213 -84q77 0 149.5 23t121.5 68q94 89 94 237q0 100 -66 166q-18 18 -44 36t-44 28t-52 28t-44 23l-94 51q-101 56 -154 112q-78 81 -78 193q0 145 105 250
q114 110 285 110q104 0 188 -48.5t123 -145.5z" />
    <glyph glyph-name="afii10055" unicode="&#x406;" horiz-adv-x="458" 
d="M352 1366h90l-168 -1366h-90z" />
    <glyph glyph-name="afii10056" unicode="&#x407;" horiz-adv-x="458" 
d="M352 1366h90l-168 -1366h-90zM479 1587q0 37 27 64q24 24 57 24t53 -20q19 -23 19 -49q0 -35 -27 -62q-24 -24 -63 -24q-29 0 -47 18q-19 17 -19 49zM217 1587q0 37 27 64q24 24 57 24t53 -20q19 -23 19 -49q0 -35 -27 -62q-24 -24 -63 -24q-29 0 -47 18q-19 17 -19 49z
" />
    <glyph glyph-name="afii10057" unicode="&#x408;" horiz-adv-x="548" 
d="M442 1366h90l-133 -1081q-11 -89 -28.5 -146.5t-57.5 -97.5q-66 -64 -180 -64q-87 0 -145 48q-48 36 -74 100l70 49q19 -55 53 -82q37 -33 102 -33q70 0 109 41q46 46 59 166z" />
    <glyph glyph-name="afii10058" unicode="&#x409;" horiz-adv-x="1892" 
d="M995 0l158 1284h-590l-98 -795q-21 -162 -52.5 -259t-95.5 -160q-82 -82 -204 -82q-47 0 -84 12l10 82q30 -12 67 -12q96 0 156 63q46 48 71 133.5t42 222.5l108 877h770l-71 -588h233q218 0 326 -92q106 -90 106 -258q0 -94 -28.5 -171.5t-75.5 -127.5
q-122 -129 -430 -129h-226h-92zM1171 696l-75 -614h233q247 0 344 106q39 42 59.5 109t20.5 129q0 140 -100 211q-83 59 -279 59h-203z" />
    <glyph glyph-name="afii10059" unicode="&#x40a;" horiz-adv-x="1998" 
d="M1360 1366l-72 -588h234q217 0 325 -92q107 -90 107 -258q0 -94 -29 -171.5t-76 -127.5q-122 -129 -430 -129h-317l86 696h-828l-86 -696h-90l168 1366h90l-71 -588h827l72 588h90zM1278 696l-76 -614h234q247 0 344 106q39 42 59.5 109t20.5 129q0 139 -101 211
q-83 59 -278 59h-203z" />
    <glyph glyph-name="afii10060" unicode="&#x40b;" horiz-adv-x="1372" 
d="M1026 1284h-410l-61 -498h365q225 0 309 -86q61 -61 61 -163q0 -31 -10 -119l-51 -418h-90l49 397q10 88 10 121q0 80 -47 127q-19 18 -46.5 30.5t-47.5 18t-63.5 8.5t-59.5 3h-70h-319l-86 -705h-90l157 1284h-340l11 82h839z" />
    <glyph glyph-name="afii10061" unicode="&#x40c;" horiz-adv-x="1105" 
d="M442 1366l-80 -643l725 643h119l-745 -655l612 -711h-119l-563 651l-41 -35l-76 -616h-90l168 1366h90zM903 1749l96 -51l-307 -258l-59 37z" />
    <glyph glyph-name="afii10062" unicode="&#x40e;" horiz-adv-x="1126" 
d="M197 1366h98l364 -885l508 885h99l-793 -1366h-94l221 381zM965 1683l67 -38q-47 -85 -114 -127q-78 -48 -185 -48q-113 0 -184 58q-35 27 -59 63t-31 54l76 38q20 -64 69 -96q48 -35 139 -35q88 0 144 39q50 35 78 92z" />
    <glyph glyph-name="afii10145" unicode="&#x40f;" horiz-adv-x="1363" 
d="M184 0l168 1366h90l-157 -1284h815l157 1284h91l-168 -1366h-453l-37 -307h-90l37 307h-453z" />
    <glyph glyph-name="afii10017" unicode="&#x410;" horiz-adv-x="1200" 
d="M1077 0l-127 449h-581l-238 -449h-102l747 1407l395 -1407h-94zM412 530h516l-176 648z" />
    <glyph glyph-name="afii10018" unicode="&#x411;" horiz-adv-x="1097" 
d="M184 0l168 1366h658l-11 -82h-567l-61 -506h237q209 0 316 -84q112 -89 112 -260q0 -196 -108 -309q-123 -125 -385 -125h-269h-90zM360 696l-75 -614h235q210 0 309 82q54 44 83.5 113t29.5 147q0 130 -84 201q-85 71 -285 71h-213z" />
    <glyph glyph-name="afii10019" unicode="&#x412;" horiz-adv-x="1097" 
d="M184 0l168 1366h262q199 0 293 -92q82 -79 82 -215q0 -171 -104 -271q-40 -40 -97 -63q98 -26 164 -92q82 -84 82 -223q0 -89 -31 -166t-83 -129q-72 -70 -174 -92.5t-242 -22.5h-238h-82zM432 1284l-65 -536h196q36 0 57.5 1.5t60 8t72 24.5t62.5 47q80 80 80 220
q0 113 -72 176q-71 59 -223 59h-168zM356 666l-71 -584h229q125 0 205 19.5t137 78.5q82 85 82 226q0 109 -70 176q-89 84 -299 84h-213z" />
    <glyph glyph-name="afii10020" unicode="&#x413;" horiz-adv-x="819" 
d="M184 0l168 1366h606l-10 -82h-516l-158 -1284h-90z" />
    <glyph glyph-name="afii10021" unicode="&#x414;" horiz-adv-x="1249" 
d="M463 1366h770l-158 -1284h156l-43 -356h-86l33 274h-1020l-33 -274h-86l43 356q97 17 166 86q75 72 119 213q30 104 47 244zM543 1284l-82 -659q-31 -257 -99 -387q-50 -94 -120 -156h743l148 1202h-590z" />
    <glyph glyph-name="afii10022" unicode="&#x415;" horiz-adv-x="950" 
d="M1008 1366l-11 -82h-565l-61 -496h553l-11 -81h-553l-75 -625h565l-10 -82h-570h-86l168 1366h656z" />
    <glyph glyph-name="afii10024" unicode="&#x416;" horiz-adv-x="1630" 
d="M938 1366h90l-80 -643l658 643h118l-690 -661l565 -705h-116l-516 643l-31 -27l-76 -616h-90l76 616l-23 27l-676 -643h-118l737 705l-524 661h116l500 -643z" />
    <glyph glyph-name="afii10025" unicode="&#x417;" horiz-adv-x="1136" 
d="M414 1135l-60 55q66 94 162 145q88 49 207 49q160 0 248 -84q86 -83 86 -213q0 -132 -66 -219q-56 -71 -153 -116q90 -23 147 -80q88 -84 88 -230q0 -211 -133 -340q-53 -51 -118.5 -79.5t-117.5 -35.5t-120 -7q-189 0 -301 92q-91 73 -140 194l86 41q33 -91 105 -157
q98 -91 250 -91q172 0 278 99q113 104 113 278q0 111 -72 178q-85 80 -256 80h-123l11 82h88q160 0 251 82q89 82 89 215q0 115 -76 176q-68 54 -180 54q-96 0 -175 -52q-64 -43 -118 -116z" />
    <glyph glyph-name="afii10026" unicode="&#x418;" horiz-adv-x="1433" 
d="M1159 0l139 1139l-1118 -1174l172 1401h90l-143 -1159l1120 1173l-170 -1380h-90z" />
    <glyph glyph-name="afii10027" unicode="&#x419;" horiz-adv-x="1433" 
d="M1159 0l139 1139l-1118 -1174l172 1401h90l-143 -1159l1120 1173l-170 -1380h-90zM1141 1683l67 -38q-47 -85 -114 -127q-78 -48 -185 -48q-113 0 -184 58q-35 27 -59 63t-31 54l76 38q20 -64 69 -96q48 -35 140 -35q87 0 143 39q50 35 78 92z" />
    <glyph glyph-name="afii10028" unicode="&#x41a;" horiz-adv-x="1105" 
d="M442 1366l-80 -643l725 643h119l-745 -655l612 -711h-119l-563 651l-41 -35l-76 -616h-90l168 1366h90z" />
    <glyph glyph-name="afii10029" unicode="&#x41b;" horiz-adv-x="1269" 
d="M483 1366h770l-168 -1366h-90l158 1284h-590l-98 -795q-20 -154 -51.5 -254t-96.5 -165q-82 -82 -204 -82q-47 0 -84 12l10 82q34 -12 74 -12q90 0 149 63q48 50 72 133.5t41 222.5z" />
    <glyph glyph-name="afii10030" unicode="&#x41c;" horiz-adv-x="1835" 
d="M260 0h-90l330 1413l436 -1263l747 1263l-18 -1413h-90l14 1098l-678 -1147l-395 1147z" />
    <glyph glyph-name="afii10031" unicode="&#x41d;" horiz-adv-x="1376" 
d="M442 1366l-71 -580h827l72 580h90l-168 -1366h-90l86 705h-828l-86 -705h-90l168 1366h90z" />
    <glyph glyph-name="afii10032" unicode="&#x41e;" horiz-adv-x="1648" 
d="M981 1384q289 0 473 -188q168 -174 168 -440q0 -344 -229 -568q-117 -114 -251.5 -162.5t-295.5 -48.5q-142 0 -255 40t-210 135q-186 181 -186 454q0 145 59 292t174 263q221 223 553 223zM834 59q298 0 491 189q98 98 151.5 234t53.5 270q0 121 -42.5 221.5
t-113.5 171.5q-72 72 -174.5 115t-226.5 43q-280 0 -475 -191q-103 -102 -156 -233.5t-53 -264.5q0 -231 149 -391q156 -164 396 -164z" />
    <glyph glyph-name="afii10033" unicode="&#x41f;" horiz-adv-x="1376" 
d="M352 1366h1008l-168 -1366h-90l158 1284h-828l-158 -1284h-90z" />
    <glyph glyph-name="afii10034" unicode="&#x420;" horiz-adv-x="917" 
d="M530 649h-176l-80 -649h-90l168 1366h264q183 0 277 -96q84 -84 84 -230q0 -84 -27 -156.5t-73 -119.5q-111 -115 -347 -115zM432 1284l-67 -553h180q167 0 252 80q82 78 82 225q0 103 -60 168q-34 37 -80.5 56t-77 21.5t-83.5 2.5h-146z" />
    <glyph glyph-name="afii10035" unicode="&#x421;" horiz-adv-x="1396" 
d="M1434 1206l-15 -119q-79 101 -182 156q-116 60 -254 60q-128 0 -256 -50t-229 -151q-99 -99 -152 -230.5t-53 -261.5q0 -112 42.5 -215t115.5 -178q73 -74 174.5 -116t214.5 -42q139 0 264 58q121 55 215 149l-14 -119q-92 -78 -197 -122q-117 -48 -270 -48
q-276 0 -455 179q-188 188 -188 458q0 145 58.5 290t182.5 263q227 217 549 217q146 0 279 -55q98 -48 170 -123z" />
    <glyph glyph-name="afii10036" unicode="&#x422;" horiz-adv-x="856" 
d="M985 1284h-354l-158 -1284h-90l158 1284h-355l11 82h798z" />
    <glyph glyph-name="afii10037" unicode="&#x423;" horiz-adv-x="1126" 
d="M197 1366h98l364 -885l508 885h99l-793 -1366h-94l221 381z" />
    <glyph glyph-name="afii10038" unicode="&#x424;" horiz-adv-x="1687" 
d="M797 0l24 193h-18q-133 0 -249 31t-192 91q-163 127 -163 357q0 120 44 232t122 188q56 54 124 89.5t142 50.5t131.5 20t130.5 5h57l21 164h90l-21 -164h39q277 0 426 -120q160 -130 160 -373q0 -259 -149 -404q-172 -167 -551 -167h-54l-24 -193h-90zM829 274l111 902
h-61q-58 0 -106 -4.5t-108 -16.5t-116 -40.5t-103 -70.5q-70 -64 -112.5 -160.5t-42.5 -205.5q0 -189 145 -301q66 -50 167 -76.5t202 -26.5h24zM1030 1176l-110 -902h55q336 0 479 154q115 123 115 332q0 222 -158 330q-125 86 -342 86h-39z" />
    <glyph glyph-name="afii10039" unicode="&#x425;" horiz-adv-x="962" 
d="M47 0l461 696l-277 670h95l237 -584l383 584h103l-439 -670l289 -696h-94l-254 614l-401 -614h-103z" />
    <glyph glyph-name="afii10040" unicode="&#x426;" horiz-adv-x="1363" 
d="M184 0l168 1366h90l-157 -1284h815l157 1284h91l-158 -1284h156l-43 -356h-86l32 274h-1065z" />
    <glyph glyph-name="afii10041" unicode="&#x427;" horiz-adv-x="1185" 
d="M911 0l76 621q-141 -21 -287 -21q-223 0 -323 51q-125 64 -125 207q0 31 14 154l43 354h90l-45 -369q-12 -102 -12 -118q0 -61 25.5 -98.5t78.5 -61.5q81 -37 267 -37q116 0 284 20l82 664h90l-168 -1366h-90z" />
    <glyph glyph-name="afii10042" unicode="&#x428;" horiz-adv-x="1884" 
d="M184 0l168 1366h90l-157 -1284h622l158 1284h90l-158 -1284h623l158 1284h90l-168 -1366h-1516z" />
    <glyph glyph-name="afii10043" unicode="&#x429;" horiz-adv-x="1884" 
d="M184 0l168 1366h90l-157 -1284h622l158 1284h90l-158 -1284h623l158 1284h90l-158 -1284h156l-43 -356h-86l32 274h-1585z" />
    <glyph glyph-name="afii10044" unicode="&#x42a;" horiz-adv-x="1253" 
d="M356 0l158 1284h-328l11 82h417l-71 -588h233q218 0 326 -92q106 -90 106 -258q0 -94 -28.5 -171.5t-75.5 -127.5q-122 -129 -430 -129h-232h-86zM532 696l-75 -614h233q247 0 344 106q39 42 59.5 109t20.5 129q0 140 -100 211q-83 59 -279 59h-203z" />
    <glyph glyph-name="afii10045" unicode="&#x42b;" horiz-adv-x="1413" 
d="M1307 1366h90l-168 -1366h-90zM184 0l168 1366h90l-71 -588h233q218 0 326 -92q106 -90 106 -258q0 -94 -28.5 -171.5t-75.5 -127.5q-122 -129 -430 -129h-318zM360 696l-75 -614h233q247 0 344 106q39 42 59.5 109t20.5 129q0 140 -100 211q-83 59 -279 59h-203z" />
    <glyph glyph-name="afii10046" unicode="&#x42c;" horiz-adv-x="1081" 
d="M184 0l168 1366h90l-71 -588h233q218 0 326 -92q106 -90 106 -258q0 -94 -28.5 -171.5t-75.5 -127.5q-122 -129 -430 -129h-318zM360 696l-75 -614h233q247 0 344 106q39 42 59.5 109t20.5 129q0 140 -100 211q-83 59 -279 59h-203z" />
    <glyph glyph-name="afii10047" unicode="&#x42d;" horiz-adv-x="1392" 
d="M129 147l14 119q72 -89 185 -149q116 -58 264 -58q300 0 477 172q78 76 132 189t65 244h-910l11 81h905q3 79 -13.5 150.5t-46.5 123.5t-55.5 84.5t-54.5 59.5q-74 68 -173 104t-202 36q-135 0 -258 -56q-50 -23 -113 -68t-112 -92l14 119q91 73 188 117q135 61 291 61
q272 0 441 -161q188 -175 188 -463q0 -346 -211 -567q-113 -117 -246.5 -166.5t-308.5 -49.5q-182 0 -305 58q-87 43 -166 112z" />
    <glyph glyph-name="afii10048" unicode="&#x42e;" horiz-adv-x="1974" 
d="M369 762h206q45 240 203 405q92 96 226 156.5t299 60.5q140 0 262 -47.5t207 -132.5q176 -173 176 -452q0 -342 -230 -564q-216 -211 -522 -211q-273 0 -451 175q-62 62 -104 138.5t-57 143t-21.5 134t0.5 112.5h-205l-84 -680h-90l168 1366h90zM1206 59q260 0 445 185
q99 99 151.5 232.5t52.5 264.5q0 121 -41.5 227t-111.5 177q-72 74 -175.5 116t-223.5 42q-264 0 -445 -181q-101 -101 -153 -232t-52 -257q0 -113 44.5 -228.5t119.5 -191.5q65 -67 163.5 -110.5t225.5 -43.5z" />
    <glyph glyph-name="afii10049" unicode="&#x42f;" horiz-adv-x="962" 
d="M70 0l489 612q-69 3 -135 30.5t-109 70.5q-88 88 -88 237q0 183 121 301q66 65 155.5 90t209.5 25h233l-168 -1366h-90l76 612h-98l-486 -612h-110zM846 1284h-107q-55 0 -90.5 -2.5t-82 -11t-84.5 -29.5t-70 -55q-88 -88 -88 -228q0 -123 75 -194q77 -70 222 -70h153z
" />
    <glyph glyph-name="afii10065" unicode="&#x430;" horiz-adv-x="1060" 
d="M913 672l21 164h82l-103 -836h-82l17 129q-54 -74 -123 -109q-84 -43 -193 -43q-164 0 -266 97q-121 112 -121 303q0 105 36.5 200.5t105.5 161.5q119 115 309 115q122 0 203 -55q72 -49 114 -127zM580 776q-144 0 -236 -92q-52 -52 -82.5 -132.5t-30.5 -168.5
q0 -76 27 -142t70 -108q83 -78 213 -78q113 0 198 62q44 32 75.5 77t47 92t22.5 88t7 79q0 153 -86 239q-79 84 -225 84z" />
    <glyph glyph-name="afii10066" unicode="&#x431;" horiz-adv-x="1077" 
d="M262 637h4q60 96 140 149q103 68 241 68q189 0 291 -102t102 -273q0 -111 -39.5 -211.5t-111.5 -167.5q-133 -123 -342 -123q-183 0 -283 105q-106 112 -106 315q0 82 20.5 200t44.5 200q21 75 65.5 165t114.5 162q75 76 164.5 110.5t243.5 63.5q126 24 173 44t67 71h102
q-21 -57 -58.5 -93t-107.5 -63q-51 -19 -142 -37t-143 -32q-170 -44 -262 -141q-63 -67 -110 -182t-68 -228zM559 55q164 0 270 103q58 57 89.5 139t31.5 168q0 149 -94 237q-79 74 -207 74q-177 0 -287 -117q-52 -55 -82 -131.5t-30 -158.5q0 -141 86 -230q80 -84 223 -84z
" />
    <glyph glyph-name="afii10067" unicode="&#x432;" horiz-adv-x="849" 
d="M250 836h237q149 0 213 -60q52 -49 52 -131q0 -73 -29 -121q-28 -51 -88 -71q63 -17 102 -56q47 -50 47 -129q0 -118 -65 -186q-46 -49 -112.5 -65.5t-168.5 -16.5h-209h-82zM287 471h176q105 0 153 39q52 42 52 115q0 66 -45 102q-47 31 -144 31h-157zM240 78h235
q119 0 172 49q51 48 51 133q0 60 -43 94q-47 39 -141 39h-235z" />
    <glyph glyph-name="afii10068" unicode="&#x433;" horiz-adv-x="614" 
d="M147 0l103 836h450l-10 -78h-368l-93 -758h-82z" />
    <glyph glyph-name="afii10069" unicode="&#x434;" horiz-adv-x="901" 
d="M307 836h549l-92 -758h123l-39 -303h-78l29 225h-705l-28 -225h-78l39 303q109 21 163 106q47 72 66 230zM682 78l82 680h-385l-45 -369q-17 -130 -49 -194q-30 -62 -95 -117h492z" />
    <glyph glyph-name="afii10070" unicode="&#x435;" horiz-adv-x="997" 
d="M948 408h-712q-13 -78 12 -151.5t71 -119.5q82 -82 211 -82q116 0 199 60q70 51 109 131l63 -41q-62 -109 -149 -166q-92 -62 -224 -62q-175 0 -278 111q-105 111 -105 285q0 220 140 360q121 121 299 121q163 0 262 -96q120 -115 102 -350zM248 485h618
q-1 63 -24.5 119.5t-59.5 93.5q-74 78 -198 78q-145 0 -240 -100q-75 -78 -96 -191z" />
    <glyph glyph-name="afii10072" unicode="&#x436;" horiz-adv-x="1146" 
d="M635 836h82l-49 -398l426 398h106l-438 -402l368 -434h-106l-317 383l-52 -43l-41 -340h-82l41 340l-34 41l-412 -381h-111l476 434l-340 402h102l334 -398z" />
    <glyph glyph-name="afii10073" unicode="&#x437;" horiz-adv-x="817" 
d="M293 659l-64 48q47 65 111 104q68 43 164 43q113 0 180 -63q55 -55 55 -146q0 -59 -28 -110q-29 -53 -90 -80q51 -18 90 -64q43 -53 43 -129q0 -125 -82 -203q-87 -82 -246 -82q-122 0 -201 54q-64 44 -110 131l75 47q25 -62 78 -105q60 -49 164 -49q113 0 174 54
q62 55 62 149q0 64 -47 104q-51 44 -166 44h-68l10 77h35q115 0 166 39q57 44 57 123q0 57 -43 94q-44 37 -116 37q-78 0 -131 -39q-43 -31 -72 -78z" />
    <glyph glyph-name="afii10074" unicode="&#x438;" horiz-adv-x="970" 
d="M250 836h82l-82 -674l682 721l-109 -883h-82l82 670l-682 -721z" />
    <glyph glyph-name="afii10075" unicode="&#x439;" horiz-adv-x="970" 
d="M250 836h82l-82 -674l682 721l-109 -883h-82l82 670l-682 -721zM373 1174l71 34q14 -65 58 -106q48 -43 129 -43q93 0 145 47q46 43 62 102l67 -34q-30 -90 -94 -138q-71 -55 -182 -55q-116 0 -187 68q-50 50 -69 125z" />
    <glyph glyph-name="afii10076" unicode="&#x43a;" horiz-adv-x="811" 
d="M250 836h82l-49 -398l471 398h110l-479 -398l406 -438h-115l-354 383l-52 -43l-41 -340h-82z" />
    <glyph glyph-name="afii10077" unicode="&#x43b;" horiz-adv-x="880" 
d="M836 836l-103 -836h-82l92 758h-385l-57 -471q-11 -87 -28 -139.5t-60 -92.5q-81 -78 -197 -55l11 78q16 -4 36 -4q58 0 97 39q26 26 37.5 66.5t19.5 103.5l70 553h549z" />
    <glyph glyph-name="afii10078" unicode="&#x43c;" horiz-adv-x="1159" 
d="M49 0l305 887l242 -754l426 754l88 -887h-86l-55 653l-396 -704l-223 704l-215 -653h-86z" />
    <glyph glyph-name="afii10079" unicode="&#x43d;" horiz-adv-x="929" 
d="M147 0l103 836h82l-45 -369h471l45 369h82l-103 -836h-82l48 389h-472l-47 -389h-82z" />
    <glyph glyph-name="afii10080" unicode="&#x43e;" horiz-adv-x="1073" 
d="M614 854q89 0 173 -31t139 -86q104 -104 104 -288q0 -219 -137 -349q-133 -123 -342 -123q-185 0 -295 115q-51 53 -81 128.5t-30 162.5q0 97 37.5 190t102.5 156q64 61 151 93t178 32zM563 55q152 0 258 95q123 115 123 290q0 142 -88 238q-94 98 -250 98
q-150 0 -254 -94q-58 -53 -89.5 -129.5t-31.5 -157.5q0 -72 25.5 -137.5t69.5 -110.5q88 -92 237 -92z" />
    <glyph glyph-name="afii10081" unicode="&#x43f;" horiz-adv-x="917" 
d="M147 0l103 836h622l-102 -836h-82l92 758h-458l-93 -758h-82z" />
    <glyph glyph-name="afii10082" unicode="&#x440;" horiz-adv-x="1060" 
d="M248 150l-74 -621h-82l158 1307h82l-19 -146q46 67 125 113q91 51 209 51q169 0 271 -102q100 -104 100 -279q0 -237 -141 -375q-121 -121 -304 -121q-121 0 -215 60q-68 46 -110 113zM571 55q150 0 240 82q55 51 88 135.5t33 186.5q0 150 -92 239q-78 78 -201 78
q-150 0 -250 -100q-53 -53 -84 -132.5t-31 -172.5q0 -145 93 -238q81 -78 204 -78z" />
    <glyph glyph-name="afii10083" unicode="&#x441;" horiz-adv-x="909" 
d="M913 748l-14 -109q-52 59 -115 94q-77 43 -166 43q-55 0 -103.5 -11.5t-82.5 -30.5t-54.5 -34.5t-35.5 -31.5q-55 -55 -83 -133t-28 -154q0 -63 22.5 -126t63.5 -108q85 -92 236 -92q98 0 172 39q76 41 131 111l-14 -119q-63 -51 -119 -76q-77 -33 -174 -33
q-184 0 -295 111q-109 113 -109 293q0 108 39 198t101 150q128 125 331 125q90 0 183 -37q52 -22 114 -69z" />
    <glyph glyph-name="afii10084" unicode="&#x442;" horiz-adv-x="696" 
d="M307 0l92 758h-290l10 78h663l-10 -78h-291l-92 -758h-82z" />
    <glyph glyph-name="afii10085" unicode="&#x443;" horiz-adv-x="876" 
d="M160 -471l252 457l-293 850h90l260 -744l395 744h99l-709 -1307h-94z" />
    <glyph glyph-name="afii10086" unicode="&#x444;" horiz-adv-x="1239" 
d="M522 -471l56 457q-217 9 -336 133q-97 105 -97 252q0 109 35 196t92 144q137 137 412 137l64 518h81l-63 -518q94 -3 185.5 -36.5t152.5 -100.5q92 -102 92 -256q0 -217 -129 -342q-133 -127 -408 -127l-55 -457h-82zM588 63l86 707q-221 0 -334 -108q-109 -99 -109 -273
q0 -119 68 -205q90 -111 289 -121zM756 770l-86 -707q233 4 338 109q46 46 74 117t28 157q0 140 -84 224q-45 45 -118.5 72.5t-151.5 27.5z" />
    <glyph glyph-name="afii10087" unicode="&#x445;" horiz-adv-x="815" 
d="M16 0l392 438l-261 398h97l221 -344l303 344h100l-352 -398l283 -438h-97l-245 385l-340 -385h-101z" />
    <glyph glyph-name="afii10088" unicode="&#x446;" horiz-adv-x="909" 
d="M147 0l103 836h82l-92 -758h450l92 758h82l-92 -758h123l-39 -303h-78l29 225h-660z" />
    <glyph glyph-name="afii10089" unicode="&#x447;" horiz-adv-x="843" 
d="M614 0l43 346q-88 -20 -184 -20q-177 0 -244 69q-33 35 -39 84t5 105l30 252h82l-31 -252q-10 -45 -1 -87.5t49 -66.5q52 -27 145 -27q126 0 197 21l51 412h82l-103 -836h-82z" />
    <glyph glyph-name="afii10090" unicode="&#x448;" horiz-adv-x="1318" 
d="M147 0l103 836h82l-92 -758h389l92 758h82l-92 -758h389l92 758h82l-103 -836h-1024z" />
    <glyph glyph-name="afii10091" unicode="&#x449;" horiz-adv-x="1318" 
d="M147 0l103 836h82l-92 -758h389l92 758h82l-92 -758h389l92 758h82l-92 -758h123l-39 -303h-78l29 225h-1070z" />
    <glyph glyph-name="afii10092" unicode="&#x44a;" horiz-adv-x="854" 
d="M119 836h287l-44 -349h177q136 0 206 -65q62 -60 62 -162q0 -114 -64 -178q-82 -82 -272 -82h-168h-82l92 758h-204zM313 78h189q108 0 164 45q55 47 55 131q0 80 -47 117q-47 39 -146 39h-174z" />
    <glyph glyph-name="afii10093" unicode="&#x44b;" 
d="M897 836h82l-102 -836h-82zM248 836h84l-43 -349h176q137 0 207 -65q61 -59 61 -162q0 -115 -63 -178q-82 -82 -273 -82h-250zM240 78h188q108 0 164 45q55 47 55 131q0 80 -47 117q-47 39 -145 39h-174z" />
    <glyph glyph-name="afii10094" unicode="&#x44c;" horiz-adv-x="780" 
d="M248 836h84l-43 -349h176q137 0 207 -65q61 -59 61 -162q0 -115 -63 -178q-82 -82 -273 -82h-250zM240 78h188q108 0 164 45q55 47 55 131q0 80 -47 117q-47 39 -145 39h-174z" />
    <glyph glyph-name="afii10095" unicode="&#x44d;" horiz-adv-x="837" 
d="M80 31l10 86q91 -62 221 -62q151 0 248 72q55 41 95.5 108.5t50.5 153.5h-494l10 78h490q-3 133 -82 215q-90 94 -260 94q-114 0 -205 -49l10 82q95 45 213 45q182 0 295 -104q113 -109 113 -287q0 -89 -32 -188.5t-110 -176.5q-121 -121 -334 -121q-136 0 -239 54z" />
    <glyph glyph-name="afii10096" unicode="&#x44e;" horiz-adv-x="1314" 
d="M287 467h139q20 155 131 266q124 121 313 121q186 0 297 -111q105 -107 105 -292q0 -220 -137 -353q-124 -121 -316 -121q-178 0 -289 111q-51 52 -81.5 132t-30.5 169h-142l-47 -389h-82l103 836h82zM831 55q138 0 240 99q115 111 115 286q0 147 -88 242q-86 94 -230 94
q-147 0 -245 -94q-56 -53 -87.5 -130.5t-31.5 -156.5q0 -72 25 -137.5t69 -110.5q88 -92 233 -92z" />
    <glyph glyph-name="afii10097" unicode="&#x44f;" horiz-adv-x="790" 
d="M57 0l312 365q-95 11 -152 65t-57 148q0 115 69 184q74 74 242 74h274l-102 -836h-82l45 360h-139l-307 -360h-103zM614 438l39 320h-196q-109 0 -160 -49q-47 -41 -47 -127q0 -75 51 -111q46 -33 152 -33h161z" />
    <glyph glyph-name="afii10071" unicode="&#x451;" horiz-adv-x="997" 
d="M948 408h-712q-13 -78 12 -151.5t71 -119.5q82 -82 211 -82q116 0 199 60q70 51 109 131l63 -41q-62 -109 -149 -166q-92 -62 -224 -62q-175 0 -278 111q-105 111 -105 285q0 220 140 360q121 121 299 121q163 0 262 -96q120 -115 102 -350zM248 485h618
q-1 63 -24.5 119.5t-59.5 93.5q-74 78 -198 78q-145 0 -240 -100q-75 -78 -96 -191zM729 1071q0 30 25 55t59 25q31 0 49 -21q17 -21 17 -45q0 -32 -23 -55q-24 -26 -61 -26q-27 0 -45 18q-21 21 -21 49zM389 1071q0 30 25 55t59 25q31 0 49 -21q17 -21 17 -45
q0 -32 -23 -55q-24 -26 -61 -26q-27 0 -45 18q-21 21 -21 49z" />
    <glyph glyph-name="afii10099" unicode="&#x452;" horiz-adv-x="905" 
d="M147 0l132 1069h-205l10 78h205l43 346h82l-43 -346h368l-10 -78h-369l-55 -446q104 149 275 149q88 0 140.5 -35t76.5 -82q22 -48 22 -123q0 -42 -6 -88l-78 -630q-5 -40 -7.5 -57t-10 -51t-17 -53t-26 -42t-39.5 -39q-59 -43 -146 -43q-45 0 -79 12l10 76
q25 -10 65 -10q74 0 111 37q20 20 32.5 53.5t17 59t9.5 73.5l76 614q4 28 4 72q0 60 -16 96q-14 31 -52 56.5t-102 25.5q-138 0 -219 -116q-56 -81 -74 -226l-43 -352h-82z" />
    <glyph glyph-name="afii10100" unicode="&#x453;" horiz-adv-x="614" 
d="M147 0l103 836h450l-10 -78h-368l-93 -758h-82zM637 1270l82 -51l-248 -263l-57 33z" />
    <glyph glyph-name="afii10101" unicode="&#x454;" horiz-adv-x="909" 
d="M913 748l-14 -109q-52 61 -125 98q-74 39 -162 39q-162 0 -270 -108q-81 -85 -98 -201h487l-10 -78h-488q-3 -70 20 -134t64 -108q85 -92 234 -92q100 0 174 39q75 40 131 111l-14 -119q-63 -51 -119 -76q-77 -33 -174 -33q-184 0 -295 111q-109 113 -109 293
q0 208 140 348q130 125 329 125q100 0 185 -37q52 -22 114 -69z" />
    <glyph glyph-name="afii10102" unicode="&#x455;" horiz-adv-x="700" 
d="M678 719l-74 -37q-15 45 -47 68q-39 26 -92 26q-72 0 -117 -45q-37 -37 -37 -92q0 -44 33 -80q24 -24 86 -51l64 -27q83 -34 122 -73q56 -58 56 -148q0 -115 -74 -194q-85 -89 -229 -89q-121 0 -193 72q-57 57 -74 150l82 24q12 -73 56 -117q51 -51 131 -51q96 0 153 54
q60 60 60 141q0 61 -39 100q-27 27 -101 60l-49 20q-77 32 -121 76q-49 49 -49 121q0 91 62 153q71 74 184 74q81 0 135 -37q54 -36 72 -98z" />
    <glyph glyph-name="afii10103" unicode="&#x456;" horiz-adv-x="376" 
d="M250 836h82l-103 -836h-82zM315 1038q-28 0 -47 19q-16 16 -16 45q0 41 27 65q23 23 55 23q28 0 47 -19q18 -18 18 -47q0 -37 -24 -61q-25 -25 -60 -25z" />
    <glyph glyph-name="afii10104" unicode="&#x457;" horiz-adv-x="376" 
d="M248 836h82l-103 -836h-82zM346 1108q0 34 25 59q23 23 57 23q30 0 49 -21q17 -20 17 -45q0 -36 -25 -61q-21 -21 -53 -21q-28 0 -51 19q-19 19 -19 47zM150 1108q0 35 24 59q23 23 57 23q31 0 50 -21q16 -19 16 -45q0 -36 -25 -61q-21 -21 -53 -21q-28 0 -51 19
q-18 18 -18 47z" />
    <glyph glyph-name="afii10105" unicode="&#x458;" horiz-adv-x="376" 
d="M250 836h82l-162 -1307h-82zM315 1038q-28 0 -47 19q-16 16 -16 45q0 41 27 65q23 23 55 23q28 0 47 -19q18 -18 18 -47q0 -37 -24 -61q-25 -25 -60 -25z" />
    <glyph glyph-name="afii10106" unicode="&#x459;" horiz-adv-x="1284" 
d="M793 487h176q137 0 207 -65q61 -59 61 -162q0 -115 -63 -178q-82 -82 -273 -82h-168h-82l90 758h-383l-63 -510q-5 -43 -11 -70.5t-27 -68t-54 -66.5q-59 -47 -140 -47q-27 0 -47 4l11 78q73 -16 123 24q24 19 38.5 52t18.5 55t10 65l70 562h82h467zM743 78h189
q108 0 164 45q55 47 55 131q0 80 -47 117q-47 39 -146 39h-174z" />
    <glyph glyph-name="afii10107" unicode="&#x45a;" horiz-adv-x="1333" 
d="M760 487l41 349h84l-43 -349h176q137 0 207 -65q61 -59 61 -162q0 -115 -63 -178q-82 -82 -273 -82h-250l50 410h-469l-52 -410h-82l103 836h82l-43 -349h471zM793 78h188q108 0 164 45q55 47 55 133q0 74 -47 115q-47 39 -145 39h-174z" />
    <glyph glyph-name="afii10108" unicode="&#x45b;" horiz-adv-x="905" 
d="M147 0l132 1069h-205l10 78h205l43 346h82l-43 -346h368l-10 -78h-369l-55 -446q104 149 275 149q88 0 140.5 -35t76.5 -82q22 -48 22 -123q0 -42 -6 -88l-55 -444h-82l55 444q4 28 4 72q0 60 -16 96q-14 31 -52 56.5t-102 25.5q-138 0 -219 -116q-56 -81 -74 -226
l-43 -352h-82z" />
    <glyph glyph-name="afii10109" unicode="&#x45c;" horiz-adv-x="811" 
d="M250 836h82l-49 -398l471 398h110l-479 -398l406 -438h-115l-354 383l-52 -43l-41 -340h-82zM674 1270l82 -51l-248 -263l-57 33z" />
    <glyph glyph-name="afii10110" unicode="&#x45e;" horiz-adv-x="876" 
d="M160 -471l252 457l-293 850h90l260 -744l395 744h99l-709 -1307h-94zM307 1174l72 34q14 -66 57 -106q48 -43 129 -43q94 0 146 47q45 41 61 102l68 -34q-29 -89 -95 -138q-71 -55 -182 -55q-115 0 -186 68q-51 51 -70 125z" />
    <glyph glyph-name="afii10193" unicode="&#x45f;" horiz-adv-x="909" 
d="M147 0l103 836h82l-92 -758h450l92 758h82l-102 -836h-266l-31 -246h-82l31 246h-267z" />
    <glyph glyph-name="afii10146" unicode="&#x462;" horiz-adv-x="1253" 
d="M356 0l133 1079h-327l10 82h328l30 260h91l-31 -260h409l-10 -82h-409l-37 -301h233q218 0 326 -92q106 -90 106 -258q0 -94 -28.5 -171.5t-75.5 -127.5q-122 -129 -430 -129h-318zM532 696l-75 -614h233q247 0 344 106q39 42 59.5 109t20.5 129q0 140 -100 211
q-83 59 -279 59h-203z" />
    <glyph glyph-name="afii10194" unicode="&#x463;" horiz-adv-x="854" 
d="M362 487h177q136 0 206 -65q62 -60 62 -162q0 -114 -64 -178q-82 -82 -272 -82h-250l92 758h-204l10 78h205l65 530h82l-65 -530h245l-10 -78h-246zM313 78h189q108 0 164 45q55 47 55 131q0 80 -47 117q-47 39 -146 39h-174z" />
    <glyph glyph-name="afii10147" unicode="&#x472;" horiz-adv-x="1648" 
d="M981 1384q289 0 473 -188q168 -171 168 -448q0 -339 -229 -560q-117 -114 -251.5 -162.5t-295.5 -48.5q-141 0 -255.5 40t-209.5 135q-91 91 -138.5 209t-47.5 247q0 145 59.5 295t173.5 262q103 101 243 160t310 59zM1518 653h-1225q-10 -137 32.5 -247t110.5 -183
q150 -164 402 -164q298 0 487 189q167 167 193 405zM307 737h1217q6 127 -36.5 231t-113.5 177q-72 72 -174.5 115t-226.5 43q-280 0 -475 -191q-160 -158 -191 -375z" />
    <glyph glyph-name="afii10195" unicode="&#x473;" horiz-adv-x="1073" 
d="M610 854q93 0 177 -31t139 -86q104 -104 104 -288q0 -219 -137 -349q-131 -123 -334 -123q-193 0 -303 115q-51 53 -81 129.5t-30 165.5q0 97 34.5 183.5t96.5 148.5q132 135 334 135zM565 55q154 0 256 97q103 98 119 237h-709q3 -142 95 -239q91 -95 239 -95zM238 467
h704q-10 128 -86 211q-91 98 -246 98t-256 -94q-90 -83 -116 -215z" />
    <glyph glyph-name="afii10148" unicode="&#x474;" horiz-adv-x="1044" 
d="M197 1366h98l258 -1163l532 1163h99l-662 -1421z" />
    <glyph glyph-name="afii10196" unicode="&#x475;" horiz-adv-x="798" 
d="M119 836h86l209 -695l377 695h94l-490 -887z" />
    <glyph glyph-name="afii10050" unicode="&#x490;" horiz-adv-x="819" 
d="M184 0l168 1366h520l33 272h86l-43 -354h-516l-158 -1284h-90z" />
    <glyph glyph-name="afii10098" unicode="&#x491;" horiz-adv-x="614" 
d="M147 0l103 836h373l28 225h78l-39 -303h-368l-93 -758h-82z" />
    <glyph glyph-name="uni0492" unicode="&#x492;" horiz-adv-x="819" 
d="M184 0l86 707h-184l10 81h185l71 578h606l-10 -82h-516l-61 -496h278l-10 -81h-279l-86 -707h-90z" />
    <glyph glyph-name="uni0493" unicode="&#x493;" horiz-adv-x="614" 
d="M147 0l52 410h-148l8 77h148l43 349h450l-10 -78h-368l-33 -271h205l-9 -77h-204l-52 -410h-82z" />
    <glyph glyph-name="uni0494" unicode="&#x494;" horiz-adv-x="1085" 
d="M948 1284h-516l-65 -536q149 47 286 47q159 0 265 -95q53 -50 83.5 -130t30.5 -175q0 -90 -30.5 -171t-86.5 -138q-59 -61 -126.5 -80.5t-149.5 -19.5q-81 0 -172 16l10 82q73 -14 150 -14q138 0 219 75q90 86 90 250q0 152 -74 232q-78 86 -233 86q-122 0 -273 -47
l-82 -666h-90l168 1366h606z" />
    <glyph glyph-name="uni0495" unicode="&#x495;" horiz-adv-x="778" 
d="M147 0l103 836h450l-10 -78h-368l-33 -275h33q170 0 262 -71q110 -84 110 -252q0 -116 -41 -232.5t-127 -199.5q-124 -117 -309 -154l10 82q137 26 232 121q76 76 112.5 178.5t36.5 200.5q0 127 -78 190q-74 60 -221 60h-30l-50 -406h-82z" />
    <glyph glyph-name="uni0496" unicode="&#x496;" horiz-adv-x="1630" 
d="M938 1366h90l-80 -643l658 643h118l-688 -661l500 -623h76l-43 -356h-86l33 274h-33l-516 643l-31 -27l-76 -616h-90l76 616l-23 27l-676 -643h-118l737 705l-524 661h118l498 -643z" />
    <glyph glyph-name="uni0497" unicode="&#x497;" horiz-adv-x="1146" 
d="M635 836h82l-49 -398l426 398h106l-438 -402l303 -356h76l-39 -303h-78l29 225h-33l-318 381l-47 -41l-41 -340h-82l41 340l-34 41l-412 -381h-111l476 434l-340 402h106l328 -398z" />
    <glyph glyph-name="uni0498" unicode="&#x498;" horiz-adv-x="1136" 
d="M414 1135l-60 55q66 94 162 145q88 49 207 49q160 0 248 -84q86 -83 86 -213q0 -132 -66 -219q-56 -71 -153 -116q90 -23 147 -80q88 -84 88 -230q0 -211 -133 -340q-120 -118 -301 -118l-37 -291h-90l37 289q-151 0 -266 90q-93 77 -140 194l86 41q33 -91 105 -157
q98 -91 252 -91q166 0 276 99q113 104 113 276q0 113 -72 180q-85 80 -256 80h-123l11 82h88q160 0 251 82q89 82 89 215q0 115 -76 176q-68 54 -180 54q-96 0 -175 -52q-64 -43 -118 -116z" />
    <glyph glyph-name="uni0499" unicode="&#x499;" horiz-adv-x="817" 
d="M293 659l-64 48q47 65 111 104q68 43 164 43q113 0 180 -63q55 -55 55 -146q0 -59 -28 -110q-29 -53 -90 -80q44 -16 75 -47q58 -58 58 -150q0 -119 -82 -201q-82 -78 -199 -80l-27 -223h-81l28 223q-98 7 -168 54q-67 46 -110 131l75 47q27 -59 80 -105q60 -49 160 -49
q115 0 176 54q62 55 62 147q0 66 -47 106q-53 44 -166 44h-68l10 77h35q115 0 166 39q57 44 57 123q0 57 -43 94q-44 37 -118 37q-80 0 -129 -39q-43 -31 -72 -78z" />
    <glyph glyph-name="uni049A" unicode="&#x49a;" horiz-adv-x="1105" 
d="M352 1366h90l-80 -643l725 643h119l-741 -653l543 -631h79l-43 -356h-86l33 274h-37l-563 651l-41 -35l-76 -616h-90z" />
    <glyph glyph-name="uni049B" unicode="&#x49b;" horiz-adv-x="811" 
d="M250 836h82l-49 -398l471 398h110l-475 -398l334 -360h82l-39 -303h-78l29 225h-41l-354 383l-52 -43l-41 -340h-82z" />
    <glyph glyph-name="uni049C" unicode="&#x49c;" horiz-adv-x="1228" 
d="M352 1366h90l-75 -621h147l35 287h82l-35 -287l627 621h106l-667 -653l538 -713h-110l-504 664l-41 -328h-82l41 328h-148l-82 -664h-90z" />
    <glyph glyph-name="uni049D" unicode="&#x49d;" horiz-adv-x="823" 
d="M250 836h82l-45 -365h88l26 205h78l-26 -205l350 365h98l-385 -398l283 -438h-99l-256 393l-30 -246h-78l31 246h-88l-50 -393h-82z" />
    <glyph glyph-name="uni04A0" unicode="&#x4a0;" horiz-adv-x="1277" 
d="M356 0l158 1284h-328l11 82h417l-79 -643l725 643h118l-741 -653l612 -713h-123l-563 651l-41 -35l-76 -616h-90z" />
    <glyph glyph-name="uni04A1" unicode="&#x4a1;" horiz-adv-x="884" 
d="M221 0l92 758h-204l10 78h287l-50 -398l471 398h111l-475 -398l405 -438h-118l-355 383l-51 -43l-41 -340h-82z" />
    <glyph glyph-name="uni04A2" unicode="&#x4a2;" horiz-adv-x="1376" 
d="M184 0l168 1366h90l-71 -580h827l72 580h90l-158 -1284h156l-43 -356h-86l33 274h-160l86 705h-828l-86 -705h-90z" />
    <glyph glyph-name="uni04A3" unicode="&#x4a3;" horiz-adv-x="929" 
d="M147 0l103 836h82l-45 -369h471l45 369h82l-92 -758h122l-38 -303h-78l28 225h-127l48 389h-472l-47 -389h-82z" />
    <glyph glyph-name="uni04A4" unicode="&#x4a4;" horiz-adv-x="1736" 
d="M184 0l168 1366h90l-71 -580h827l72 580h606l-10 -82h-516l-158 -1284h-90l86 705h-828l-86 -705h-90z" />
    <glyph glyph-name="uni04A5" unicode="&#x4a5;" horiz-adv-x="1167" 
d="M147 0l103 836h82l-45 -369h471l45 369h450l-10 -78h-369l-92 -758h-82l48 389h-472l-47 -389h-82z" />
    <glyph glyph-name="uni04AA" unicode="&#x4aa;" horiz-adv-x="1396" 
d="M1434 1206l-15 -119q-36 46 -84.5 88t-97.5 68q-55 27 -127 43.5t-135 16.5q-132 0 -259 -55t-218 -146q-99 -99 -152 -230.5t-53 -261.5q0 -112 42.5 -215t115.5 -178q73 -74 174.5 -116t214.5 -42q139 0 264 58q120 57 215 149l-14 -119q-86 -73 -197 -122
q-105 -45 -234 -45l-36 -287h-90l36 289q-233 8 -401 174q-85 85 -136.5 201t-51.5 257q0 145 58.5 290t182.5 263q227 217 549 217q146 0 279 -55q98 -48 170 -123z" />
    <glyph glyph-name="uni04AB" unicode="&#x4ab;" horiz-adv-x="909" 
d="M913 748l-14 -109q-52 59 -115 94q-77 43 -166 43q-55 0 -103.5 -11.5t-82.5 -30.5t-54.5 -34.5t-35.5 -31.5q-55 -55 -83 -133t-28 -154q0 -63 22.5 -126t63.5 -108q85 -92 236 -92q98 0 172 39q76 41 131 111l-14 -119q-58 -49 -119 -76q-73 -31 -129 -33l-25 -223h-82
l27 223q-158 9 -260 111q-49 49 -79 124.5t-30 168.5q0 99 36 190.5t104 157.5q128 125 331 125q90 0 183 -37q52 -22 114 -69z" />
    <glyph glyph-name="uni04AE" unicode="&#x4ae;" horiz-adv-x="1056" 
d="M477 0l72 584l-352 782h98l309 -690l486 690h106l-557 -782l-72 -584h-90z" />
    <glyph glyph-name="uni04AF" unicode="&#x4af;" horiz-adv-x="798" 
d="M119 836h88l209 -695l379 695h90l-439 -793l-65 -514h-82l66 514z" />
    <glyph glyph-name="uni04B0" unicode="&#x4b0;" horiz-adv-x="1056" 
d="M477 0l62 502h-410l10 82h410l-352 782h98l309 -690l486 690h106l-557 -782h410l-11 -82h-409l-62 -502h-90z" />
    <glyph glyph-name="uni04B1" unicode="&#x4b1;" horiz-adv-x="798" 
d="M119 836h88l209 -695l379 695h90l-439 -793l-6 -43h246l-10 -78h-246l-49 -393h-82l49 393h-246l11 78h245l7 43z" />
    <glyph glyph-name="uni04B2" unicode="&#x4b2;" horiz-adv-x="958" 
d="M47 0l461 696l-277 670h95l237 -584l383 584h98l-438 -670l258 -614h45l-43 -356h-86l33 274h-12l-254 614l-402 -614h-98z" />
    <glyph glyph-name="uni04B3" unicode="&#x4b3;" horiz-adv-x="819" 
d="M16 0l392 438l-261 398h101l221 -344l303 344h100l-352 -398l234 -360h59l-39 -303h-78l29 225h-23l-245 385l-340 -385h-101z" />
    <glyph glyph-name="uni04B6" unicode="&#x4b6;" horiz-adv-x="1183" 
d="M1077 1366h90l-157 -1284h155l-43 -356h-86l33 274h-160l76 621q-144 -21 -278 -21q-239 0 -330 51q-125 67 -125 223q0 36 16 164l39 328h90l-41 -336q-14 -112 -14 -141q0 -65 27 -107.5t88 -66.5q85 -33 256 -33q145 0 282 20z" />
    <glyph glyph-name="uni04B7" unicode="&#x4b7;" horiz-adv-x="843" 
d="M799 836l-92 -758h122l-38 -303h-78l28 225h-127l43 346q-90 -20 -182 -20q-150 0 -221 49q-35 24 -50.5 52.5t-15.5 74.5q0 21 11 106l26 228h82l-24 -199q-11 -101 -11 -105q0 -72 56 -102q51 -27 161 -27q97 0 177 21l51 412h82z" />
    <glyph glyph-name="uni04B8" unicode="&#x4b8;" horiz-adv-x="1187" 
d="M913 0l76 621q-115 -23 -282 -23h-7l-32 -262h-82l32 264q-64 0 -132 13t-113 38q-121 66 -121 207q0 41 14 150l45 358h90l-45 -360q-12 -89 -12 -134q0 -55 19 -91.5t67 -61.5q34 -18 92 -28.5t107 -8.5l43 350h82l-43 -356h8q169 0 280 24l82 666h90l-167 -1366h-91z
" />
    <glyph glyph-name="uni04B9" unicode="&#x4b9;" horiz-adv-x="860" 
d="M631 0l41 338q-82 -10 -172 -12l-21 -164h-78l21 166q-44 0 -95 12.5t-77 30.5q-62 43 -62 131q0 28 11 119l26 215h82l-22 -203q-11 -93 -11 -117q0 -60 43 -88q42 -25 113 -25l31 246h78l-31 -250q86 2 172 13l53 424h82l-102 -836h-82z" />
    <glyph glyph-name="uni04BA" unicode="&#x4ba;" horiz-adv-x="1187" 
d="M442 1366l-71 -580h364q225 0 309 -86q62 -62 62 -163q0 -31 -10 -119l-52 -418h-90l50 397q10 88 10 121q0 80 -47 127q-19 18 -46.5 30.5t-47.5 18t-63.5 8.5t-59.5 3h-70h-320l-86 -705h-90l168 1366h90z" />
    <glyph glyph-name="uni04BB" unicode="&#x4bb;" horiz-adv-x="905" 
d="M147 0l185 1493h82l-99 -788q37 61 93 100q69 49 167 49q119 0 185 -63q39 -36 55 -90.5t15 -88t-7 -86.5l-65 -526h-82l65 526q10 49 1.5 107t-44.5 94q-49 49 -133 49q-105 0 -176 -71q-85 -85 -106 -271l-54 -434h-82z" />
    <glyph glyph-name="uni04C0" unicode="&#x4c0;" horiz-adv-x="458" 
d="M352 1366h90l-168 -1366h-90z" />
    <glyph glyph-name="uni04C1" unicode="&#x4c1;" horiz-adv-x="1630" 
d="M938 1366h90l-80 -643l658 643h118l-690 -661l565 -705h-116l-516 643l-31 -27l-76 -616h-90l76 616l-23 27l-676 -643h-118l737 705l-524 661h116l500 -643zM1237 1683l68 -38q-46 -84 -115 -127q-78 -48 -184 -48q-114 0 -185 58q-35 27 -59 63t-31 54l76 38
q20 -63 70 -96q48 -35 139 -35q87 0 143 39q50 35 78 92z" />
    <glyph glyph-name="uni04C2" unicode="&#x4c2;" horiz-adv-x="1146" 
d="M635 836h82l-49 -398l426 398h106l-438 -402l368 -434h-106l-317 383l-52 -43l-41 -340h-82l41 340l-34 41l-412 -381h-111l476 434l-340 402h102l334 -398zM451 1174l71 34q14 -65 58 -106q48 -43 129 -43q93 0 145 47q45 41 61 102l68 -34q-30 -90 -94 -138
q-71 -55 -182 -55q-116 0 -187 68q-50 50 -69 125z" />
    <glyph glyph-name="uni04C3" unicode="&#x4c3;" horiz-adv-x="1097" 
d="M352 1366h90l-80 -643l705 643h119l-662 -610q171 0 255 -26t149 -91q121 -121 121 -354q0 -139 -42.5 -268t-123.5 -212q-133 -133 -342 -133q-63 0 -123 13l10 82q48 -13 104 -13q166 0 261 86q57 51 93.5 133.5t49 158.5t12.5 155q0 196 -100 291q-53 50 -134 74
t-159 24q-92 0 -201 -23l-80 -653h-90z" />
    <glyph glyph-name="uni04C4" unicode="&#x4c4;" horiz-adv-x="794" 
d="M250 836h82l-49 -398l454 398h111l-422 -381q118 -7 197 -80q90 -83 90 -242q0 -114 -43 -221t-125 -184q-126 -119 -309 -154l10 82q128 24 231 121q150 143 150 358q0 124 -72 189q-68 65 -197 65q-46 0 -82 -8l-47 -381h-82z" />
    <glyph glyph-name="uni04C7" unicode="&#x4c7;" horiz-adv-x="1376" 
d="M184 0l168 1366h90l-71 -580h827l72 580h90l-189 -1538q-7 -56 -14.5 -93t-32 -85t-63.5 -76q-62 -45 -150 -45q-34 0 -90 14l10 84q30 -12 68 -12q69 0 111 37q56 49 71 186l107 867h-828l-86 -705h-90z" />
    <glyph glyph-name="uni04C8" unicode="&#x4c8;" horiz-adv-x="929" 
d="M147 0l103 836h82l-45 -369h471l45 369h82l-123 -998q-8 -66 -14 -99.5t-23.5 -78t-46.5 -72.5q-61 -59 -166 -59q-46 0 -80 12l10 76q25 -10 66 -10q71 0 108 37q29 29 42 76.5t22 127.5l68 541h-472l-47 -389h-82z" />
    <glyph glyph-name="uni04D0" unicode="&#x4d0;" horiz-adv-x="1200" 
d="M1077 0l-127 449h-581l-238 -449h-102l747 1407l395 -1407h-94zM412 530h516l-176 648zM1001 1683l68 -38q-46 -84 -115 -127q-78 -48 -184 -48q-113 0 -184 58q-35 27 -59 63t-31 54l75 38q20 -63 70 -96q48 -35 139 -35q88 0 144 39q49 33 77 92z" />
    <glyph glyph-name="uni04D1" unicode="&#x4d1;" horiz-adv-x="1060" 
d="M913 672l21 164h82l-103 -836h-82l17 129q-54 -74 -123 -109q-84 -43 -193 -43q-164 0 -266 97q-121 112 -121 303q0 105 36.5 200.5t105.5 161.5q119 115 309 115q122 0 203 -55q72 -49 114 -127zM580 776q-144 0 -236 -92q-52 -52 -82.5 -132.5t-30.5 -168.5
q0 -76 27 -142t70 -108q83 -78 213 -78q113 0 198 62q44 32 75.5 77t47 92t22.5 88t7 79q0 153 -86 239q-79 84 -225 84zM381 1174l72 34q14 -66 57 -106q48 -43 129 -43q93 0 145 47q46 43 62 102l67 -34q-30 -90 -94 -138q-71 -55 -182 -55q-115 0 -186 68q-51 51 -70 125
z" />
    <glyph glyph-name="uni04D2" unicode="&#x4d2;" horiz-adv-x="1200" 
d="M1077 0l-127 449h-581l-238 -449h-102l747 1407l395 -1407h-94zM412 530h516l-176 648zM909 1587q0 37 27 64q24 24 57 24q34 0 54 -20q18 -22 18 -49q0 -35 -27 -62q-24 -24 -63 -24q-29 0 -47 18q-19 17 -19 49zM528 1587q0 37 27 64q24 24 57 24q34 0 54 -20
q18 -22 18 -49q0 -35 -27 -62q-24 -24 -63 -24q-29 0 -47 18q-19 17 -19 49z" />
    <glyph glyph-name="uni04D3" unicode="&#x4d3;" horiz-adv-x="1060" 
d="M913 672l21 164h82l-103 -836h-82l17 129q-54 -74 -123 -109q-84 -43 -193 -43q-164 0 -266 97q-121 112 -121 303q0 105 36.5 200.5t105.5 161.5q119 115 309 115q122 0 203 -55q72 -49 114 -127zM580 776q-144 0 -236 -92q-52 -52 -82.5 -132.5t-30.5 -168.5
q0 -76 27 -142t70 -108q83 -78 213 -78q113 0 198 62q44 32 75.5 77t47 92t22.5 88t7 79q0 153 -86 239q-79 84 -225 84zM739 1071q0 30 25 55t59 25q31 0 49 -21q17 -21 17 -45q0 -32 -23 -55q-24 -26 -61 -26q-27 0 -45 18q-21 21 -21 49zM399 1071q0 30 25 55t59 25
q31 0 49 -21q17 -21 17 -45q0 -32 -23 -55q-24 -26 -61 -26q-27 0 -45 18q-21 21 -21 49z" />
    <glyph glyph-name="uni04D4" unicode="&#x4d4;" horiz-adv-x="1744" 
d="M1071 0l-127 449h-584l-233 -449h-98l719 1366h591l25 -82h-563l141 -496h549l25 -81h-549l178 -625h559l27 -82h-660zM403 530h517l-183 644z" />
    <glyph glyph-name="uni04D5" unicode="&#x4d5;" horiz-adv-x="1628" 
d="M238 696l10 88q132 70 266 70q160 0 248 -82q70 -70 84 -162q52 104 139 168q105 76 238 76q164 0 260 -92q64 -62 89.5 -158.5t12.5 -197.5h-715q-11 -71 9.5 -146.5t68.5 -124.5q76 -80 209 -80q116 0 199 62q30 21 57.5 52.5t39.5 49.5t17 29l62 -41q-32 -49 -77 -97
t-87 -75q-89 -58 -207 -58q-127 0 -217 56q-84 54 -123 141q-27 -62 -68 -100t-79 -56q-82 -41 -209 -41q-149 0 -238 58q-106 69 -106 190q0 131 106 207q97 70 258 70q187 0 293 -90q22 217 -65 299q-71 65 -209 65q-127 0 -266 -80zM483 422q-150 0 -221 -66
q-55 -52 -55 -118q0 -40 21 -79.5t61 -64.5q64 -39 176 -39q134 0 211 56q37 27 56.5 67.5t19.5 83.5q0 79 -84 125q-66 35 -185 35zM885 483h618q-2 64 -26 127.5t-64 100.5q-72 65 -186 65q-138 0 -232 -94q-81 -85 -110 -199z" />
    <glyph glyph-name="uni04D6" unicode="&#x4d6;" horiz-adv-x="950" 
d="M1008 1366l-11 -82h-565l-61 -496h553l-11 -81h-553l-75 -625h565l-10 -82h-570h-86l168 1366h656zM934 1683l67 -38q-47 -85 -114 -127q-78 -48 -185 -48q-113 0 -184 58q-35 27 -59 63t-31 54l76 38q20 -64 69 -96q48 -35 140 -35q87 0 143 39q50 35 78 92z" />
    <glyph glyph-name="uni04D7" unicode="&#x4d7;" horiz-adv-x="997" 
d="M948 408h-712q-13 -78 12 -151.5t71 -119.5q82 -82 211 -82q116 0 199 60q70 51 109 131l63 -41q-62 -109 -149 -166q-92 -62 -224 -62q-175 0 -278 111q-105 111 -105 285q0 220 140 360q121 121 299 121q163 0 262 -96q120 -115 102 -350zM248 485h618
q-1 63 -24.5 119.5t-59.5 93.5q-74 78 -198 78q-145 0 -240 -100q-75 -78 -96 -191zM369 1174l71 34q14 -65 58 -106q48 -43 129 -43q93 0 145 47q46 43 62 102l67 -34q-30 -90 -94 -138q-71 -55 -182 -55q-116 0 -187 68q-50 50 -69 125z" />
    <glyph glyph-name="uni04D8" unicode="&#x4d8;" horiz-adv-x="1585" 
d="M188 655h1268q24 145 -16.5 276t-130.5 218q-76 73 -184.5 113.5t-215.5 40.5q-29 0 -67.5 -3.5t-125 -28.5t-157.5 -69q-119 -75 -201 -194l-71 57q99 137 235 217q180 102 402 102q274 0 452 -172q183 -177 183 -460q0 -175 -62 -325.5t-162 -250.5
q-197 -199 -526 -199q-134 0 -238 33.5t-194 120.5q-94 91 -147.5 231.5t-41.5 292.5zM1438 573h-1162q-2 -94 38 -197.5t112 -174.5q69 -66 170.5 -104t218.5 -38q232 0 393 123q189 148 230 391z" />
    <glyph glyph-name="afii10846" unicode="&#x4d9;" horiz-adv-x="993" 
d="M147 424h715q16 168 -86 270q-82 82 -225 82q-117 0 -197 -61q-59 -45 -104 -129l-72 41q56 95 127 149q103 78 248 78q94 0 169.5 -30.5t123.5 -78.5q104 -104 104 -284q0 -241 -141 -377q-110 -107 -274 -107q-172 0 -273 101q-60 60 -92 155.5t-23 190.5zM848 346
h-623q6 -131 90 -215q78 -76 213 -76q138 0 220 80q38 37 65.5 92.5t34.5 118.5z" />
    <glyph glyph-name="uni04DA" unicode="&#x4da;" horiz-adv-x="1585" 
d="M188 655h1268q24 145 -16.5 276t-130.5 218q-76 73 -184.5 113.5t-215.5 40.5q-29 0 -67.5 -3.5t-125 -28.5t-157.5 -69q-119 -75 -201 -194l-71 57q99 137 235 217q180 102 402 102q274 0 452 -172q183 -177 183 -460q0 -175 -62 -325.5t-162 -250.5
q-197 -199 -526 -199q-134 0 -238 33.5t-194 120.5q-94 91 -147.5 231.5t-41.5 292.5zM1438 573h-1162q-2 -94 38 -197.5t112 -174.5q69 -66 170.5 -104t218.5 -38q232 0 393 123q189 148 230 391zM1065 1587q0 37 27 64q24 24 57 24t53 -20q19 -23 19 -49q0 -35 -27 -62
q-24 -24 -64 -24q-29 0 -47 18q-18 16 -18 49zM684 1587q0 37 27 64q24 24 57 24t53 -20q19 -23 19 -49q0 -35 -27 -62q-24 -24 -63 -24q-30 0 -48 18q-18 16 -18 49z" />
    <glyph glyph-name="uni04DB" unicode="&#x4db;" horiz-adv-x="993" 
d="M147 424h715q16 168 -86 270q-82 82 -225 82q-117 0 -197 -61q-59 -45 -104 -129l-72 41q56 95 127 149q103 78 248 78q94 0 169.5 -30.5t123.5 -78.5q104 -104 104 -284q0 -241 -141 -377q-110 -107 -274 -107q-172 0 -273 101q-60 60 -92 155.5t-23 190.5zM848 346
h-623q6 -131 90 -215q78 -76 213 -76q138 0 220 80q38 37 65.5 92.5t34.5 118.5zM678 1071q0 31 24 55q25 25 60 25q32 0 49 -21q16 -20 16 -45q0 -33 -22 -55q-24 -26 -62 -26q-27 0 -45 18q-20 20 -20 49zM338 1071q0 31 24 55q25 25 60 25q31 0 49 -21q16 -20 16 -45
q0 -33 -22 -55q-24 -26 -62 -26q-27 0 -45 18q-20 20 -20 49z" />
    <glyph glyph-name="uni04DC" unicode="&#x4dc;" horiz-adv-x="1630" 
d="M938 1366h90l-80 -643l658 643h118l-690 -661l565 -705h-116l-516 643l-31 -27l-76 -616h-90l76 616l-23 27l-676 -643h-118l737 705l-524 661h116l500 -643zM1124 1587q0 37 27 64q24 24 57 24q34 0 54 -20q18 -22 18 -49q0 -35 -27 -62q-24 -24 -63 -24q-29 0 -47 18
q-19 17 -19 49zM743 1587q0 37 27 64q24 24 57 24q34 0 54 -20q18 -22 18 -49q0 -35 -27 -62q-24 -24 -63 -24q-29 0 -47 18q-19 17 -19 49z" />
    <glyph glyph-name="uni04DD" unicode="&#x4dd;" horiz-adv-x="1146" 
d="M635 836h82l-49 -398l426 398h106l-438 -402l368 -434h-106l-317 383l-52 -43l-41 -340h-82l41 340l-34 41l-412 -381h-111l476 434l-340 402h102l334 -398zM791 1071q0 31 24 55q25 25 59 25q32 0 50 -21q16 -20 16 -45q0 -33 -22 -55q-24 -26 -62 -26q-27 0 -45 18
q-20 20 -20 49zM451 1071q0 31 24 55q25 25 60 25q31 0 49 -21q16 -20 16 -45q0 -33 -22 -55q-24 -26 -62 -26q-27 0 -45 18q-20 20 -20 49z" />
    <glyph glyph-name="uni04DE" unicode="&#x4de;" horiz-adv-x="1136" 
d="M414 1135l-60 55q66 94 162 145q88 49 207 49q160 0 248 -84q86 -83 86 -213q0 -132 -66 -219q-56 -71 -153 -116q90 -23 147 -80q88 -84 88 -230q0 -211 -133 -340q-53 -51 -118.5 -79.5t-117.5 -35.5t-120 -7q-189 0 -301 92q-91 73 -140 194l86 41q33 -91 105 -157
q98 -91 250 -91q172 0 278 99q113 104 113 278q0 111 -72 178q-85 80 -256 80h-123l11 82h88q160 0 251 82q89 82 89 215q0 115 -76 176q-68 54 -180 54q-96 0 -175 -52q-64 -43 -118 -116zM862 1587q0 37 27 64q24 24 57 24t53 -20q19 -23 19 -49q0 -35 -27 -62
q-24 -24 -63 -24q-29 0 -47 18q-19 17 -19 49zM481 1587q0 37 27 64q24 24 57 24t53 -20q19 -23 19 -49q0 -35 -27 -62q-24 -24 -63 -24q-29 0 -47 18q-19 17 -19 49z" />
    <glyph glyph-name="uni04DF" unicode="&#x4df;" horiz-adv-x="817" 
d="M293 659l-64 48q47 65 111 104q68 43 164 43q113 0 180 -63q55 -55 55 -146q0 -59 -28 -110q-29 -53 -90 -80q51 -18 90 -64q43 -53 43 -129q0 -125 -82 -203q-87 -82 -246 -82q-122 0 -201 54q-64 44 -110 131l75 47q25 -62 78 -105q60 -49 164 -49q113 0 174 54
q62 55 62 149q0 64 -47 104q-51 44 -166 44h-68l10 77h35q115 0 166 39q57 44 57 123q0 57 -43 94q-44 37 -116 37q-78 0 -131 -39q-43 -31 -72 -78zM616 1071q0 30 25 55t59 25q32 0 50 -21q16 -20 16 -45q0 -32 -23 -55q-24 -26 -61 -26q-27 0 -45 18q-21 21 -21 49z
M276 1071q0 30 25 55t59 25q32 0 50 -21q16 -20 16 -45q0 -32 -23 -55q-24 -26 -61 -26q-27 0 -45 18q-21 21 -21 49z" />
    <glyph glyph-name="uni04E2" unicode="&#x4e2;" horiz-adv-x="1433" 
d="M1159 0l139 1139l-1118 -1174l172 1401h90l-143 -1159l1120 1173l-170 -1380h-90zM629 1536l10 90h553l-10 -90h-553z" />
    <glyph glyph-name="uni04E3" unicode="&#x4e3;" horiz-adv-x="970" 
d="M250 836h82l-82 -674l682 721l-109 -883h-82l82 670l-682 -721zM334 1010l8 80h553l-8 -80h-553z" />
    <glyph glyph-name="uni04E4" unicode="&#x4e4;" horiz-adv-x="1433" 
d="M1159 0l139 1139l-1118 -1174l172 1401h90l-143 -1159l1120 1173l-170 -1380h-90zM1026 1587q0 37 27 64q24 24 57 24t53 -20q19 -23 19 -49q0 -35 -27 -62q-24 -24 -63 -24q-30 0 -48 18q-18 16 -18 49zM645 1587q0 37 27 64q24 24 57 24t53 -20q19 -23 19 -49
q0 -35 -27 -62q-24 -24 -63 -24q-29 0 -47 18q-19 17 -19 49z" />
    <glyph glyph-name="uni04E5" unicode="&#x4e5;" horiz-adv-x="970" 
d="M250 836h82l-82 -674l682 721l-109 -883h-82l82 670l-682 -721zM713 1071q0 31 24 55q25 25 60 25q31 0 49 -21q16 -20 16 -45q0 -33 -22 -55q-24 -26 -62 -26q-27 0 -45 18q-20 20 -20 49zM373 1071q0 31 24 55q25 25 60 25q31 0 49 -21q16 -20 16 -45q0 -33 -22 -55
q-24 -26 -62 -26q-27 0 -45 18q-20 20 -20 49z" />
    <glyph glyph-name="uni04E6" unicode="&#x4e6;" horiz-adv-x="1648" 
d="M981 1384q289 0 473 -188q168 -174 168 -440q0 -344 -229 -568q-117 -114 -251.5 -162.5t-295.5 -48.5q-142 0 -255 40t-210 135q-186 181 -186 454q0 145 59 292t174 263q221 223 553 223zM834 59q298 0 491 189q98 98 151.5 234t53.5 270q0 121 -42.5 221.5
t-113.5 171.5q-72 72 -174.5 115t-226.5 43q-280 0 -475 -191q-103 -102 -156 -233.5t-53 -264.5q0 -231 149 -391q156 -164 396 -164zM1108 1587q0 37 27 64q24 24 57 24t53 -20q19 -23 19 -49q0 -35 -27 -62q-24 -24 -63 -24q-30 0 -48 18q-18 16 -18 49zM727 1587
q0 37 27 64q24 24 57 24t53 -20q19 -23 19 -49q0 -35 -27 -62q-24 -24 -63 -24q-30 0 -48 18q-18 16 -18 49z" />
    <glyph glyph-name="uni04E7" unicode="&#x4e7;" horiz-adv-x="1073" 
d="M614 854q89 0 173 -31t139 -86q104 -104 104 -288q0 -219 -137 -349q-133 -123 -342 -123q-185 0 -295 115q-51 53 -81 128.5t-30 162.5q0 97 37.5 190t102.5 156q64 61 151 93t178 32zM563 55q152 0 258 95q123 115 123 290q0 142 -88 238q-94 98 -250 98
q-150 0 -254 -94q-58 -53 -89.5 -129.5t-31.5 -157.5q0 -72 25.5 -137.5t69.5 -110.5q88 -92 237 -92zM760 1071q0 31 24 55q25 25 60 25q32 0 49 -21q16 -20 16 -45q0 -33 -22 -55q-24 -26 -62 -26q-27 0 -45 18q-20 20 -20 49zM420 1071q0 31 24 55q25 25 60 25
q32 0 49 -21q16 -20 16 -45q0 -33 -22 -55q-24 -26 -62 -26q-27 0 -45 18q-20 20 -20 49z" />
    <glyph glyph-name="uni04E8" unicode="&#x4e8;" horiz-adv-x="1648" 
d="M981 1384q289 0 473 -188q168 -171 168 -448q0 -339 -229 -560q-117 -114 -251.5 -162.5t-295.5 -48.5q-141 0 -255.5 40t-209.5 135q-91 91 -138.5 209t-47.5 247q0 145 59.5 295t173.5 262q103 101 243 160t310 59zM1518 653h-1225q-10 -137 32.5 -247t110.5 -183
q150 -164 402 -164q298 0 487 189q167 167 193 405zM307 737h1217q6 127 -36.5 231t-113.5 177q-72 72 -174.5 115t-226.5 43q-280 0 -475 -191q-160 -158 -191 -375z" />
    <glyph glyph-name="uni04E9" unicode="&#x4e9;" horiz-adv-x="1073" 
d="M610 854q93 0 177 -31t139 -86q104 -104 104 -288q0 -219 -137 -349q-131 -123 -334 -123q-193 0 -303 115q-51 53 -81 129.5t-30 165.5q0 97 34.5 183.5t96.5 148.5q132 135 334 135zM565 55q154 0 256 97q103 98 119 237h-709q3 -142 95 -239q91 -95 239 -95zM238 467
h704q-10 128 -86 211q-91 98 -246 98t-256 -94q-90 -83 -116 -215z" />
    <glyph glyph-name="uni04EA" unicode="&#x4ea;" horiz-adv-x="1648" 
d="M981 1384q289 0 473 -188q168 -171 168 -448q0 -339 -229 -560q-117 -114 -251.5 -162.5t-295.5 -48.5q-141 0 -255.5 40t-209.5 135q-91 91 -138.5 209t-47.5 247q0 145 59.5 295t173.5 262q103 101 243 160t310 59zM1518 653h-1225q-10 -137 32.5 -247t110.5 -183
q150 -164 402 -164q298 0 487 189q167 167 193 405zM307 737h1217q6 127 -36.5 231t-113.5 177q-72 72 -174.5 115t-226.5 43q-280 0 -475 -191q-160 -158 -191 -375zM1108 1587q0 37 27 64q24 24 57 24t53 -20q19 -23 19 -49q0 -35 -27 -62q-24 -24 -63 -24q-30 0 -48 18
q-18 16 -18 49zM727 1587q0 37 27 64q24 24 57 24t53 -20q19 -23 19 -49q0 -35 -27 -62q-24 -24 -63 -24q-30 0 -48 18q-18 16 -18 49z" />
    <glyph glyph-name="uni04EB" unicode="&#x4eb;" horiz-adv-x="1073" 
d="M610 854q93 0 177 -31t139 -86q104 -104 104 -288q0 -219 -137 -349q-131 -123 -334 -123q-193 0 -303 115q-51 53 -81 129.5t-30 165.5q0 97 34.5 183.5t96.5 148.5q132 135 334 135zM565 55q154 0 256 97q103 98 119 237h-709q3 -142 95 -239q91 -95 239 -95zM238 467
h704q-10 128 -86 211q-91 98 -246 98t-256 -94q-90 -83 -116 -215zM760 1071q0 31 24 55q25 25 60 25q32 0 49 -21q16 -20 16 -45q0 -33 -22 -55q-24 -26 -62 -26q-27 0 -45 18q-20 20 -20 49zM420 1071q0 31 24 55q25 25 60 25q32 0 49 -21q16 -20 16 -45q0 -33 -22 -55
q-24 -26 -62 -26q-27 0 -45 18q-20 20 -20 49z" />
    <glyph glyph-name="uni04EE" unicode="&#x4ee;" horiz-adv-x="1126" 
d="M197 1366h98l364 -885l508 885h99l-793 -1366h-94l221 381zM455 1536l10 90h553l-10 -90h-553z" />
    <glyph glyph-name="uni04EF" unicode="&#x4ef;" horiz-adv-x="876" 
d="M160 -471l252 457l-293 850h90l260 -744l395 744h99l-709 -1307h-94zM279 1010l8 80h553l-9 -80h-552z" />
    <glyph glyph-name="uni04F0" unicode="&#x4f0;" horiz-adv-x="1126" 
d="M197 1366h98l364 -885l508 885h99l-793 -1366h-94l221 381zM903 1587q0 37 27 64q24 24 57 24t53 -20q19 -23 19 -49q0 -35 -27 -62q-24 -24 -63 -24q-29 0 -47 18q-19 17 -19 49zM522 1587q0 37 27 64q24 24 57 24t53 -20q19 -23 19 -49q0 -35 -27 -62q-24 -24 -63 -24
q-29 0 -47 18q-19 17 -19 49z" />
    <glyph glyph-name="uni04F1" unicode="&#x4f1;" horiz-adv-x="876" 
d="M160 -471l252 457l-293 850h90l260 -744l395 744h99l-709 -1307h-94zM668 1071q0 31 24 55q25 25 60 25q32 0 49 -21q16 -20 16 -45q0 -33 -22 -55q-24 -26 -62 -26q-27 0 -45 18q-20 20 -20 49zM328 1071q0 31 24 55q25 25 60 25q31 0 49 -21q16 -20 16 -45
q0 -33 -22 -55q-24 -26 -62 -26q-27 0 -45 18q-20 20 -20 49z" />
    <glyph glyph-name="uni04F2" unicode="&#x4f2;" horiz-adv-x="1126" 
d="M197 1366h98l364 -885l508 885h99l-793 -1366h-94l221 381zM758 1749l100 -53l-237 -256l-70 30zM1006 1749l100 -53l-238 -256l-69 30z" />
    <glyph glyph-name="uni04F3" unicode="&#x4f3;" horiz-adv-x="876" 
d="M160 -471l252 457l-293 850h90l260 -744l395 744h99l-709 -1307h-94zM584 1270l80 -51l-236 -263l-51 33zM811 1270l80 -51l-236 -263l-51 33z" />
    <glyph glyph-name="uni04F4" unicode="&#x4f4;" horiz-adv-x="1185" 
d="M911 0l76 621q-141 -21 -287 -21q-223 0 -323 51q-125 64 -125 207q0 31 14 154l43 354h90l-45 -369q-12 -102 -12 -118q0 -61 25.5 -98.5t78.5 -61.5q81 -37 267 -37q116 0 284 20l82 664h90l-168 -1366h-90zM879 1587q0 38 26 64q24 24 58 24q33 0 53 -20
q18 -22 18 -49q0 -36 -26 -62q-24 -24 -64 -24q-29 0 -47 18q-18 16 -18 49zM498 1587q0 38 26 64q24 24 58 24q33 0 53 -20q18 -22 18 -49q0 -36 -26 -62q-24 -24 -64 -24q-29 0 -47 18q-18 16 -18 49z" />
    <glyph glyph-name="uni04F5" unicode="&#x4f5;" horiz-adv-x="843" 
d="M614 0l43 346q-88 -20 -184 -20q-177 0 -244 69q-33 35 -39 84t5 105l30 252h82l-31 -252q-10 -45 -1 -87.5t49 -66.5q52 -27 145 -27q126 0 197 21l51 412h82l-103 -836h-82zM637 1071q0 30 25 55t59 25q31 0 49 -21q16 -20 16 -45q0 -33 -22 -55q-24 -26 -62 -26
q-27 0 -45 18q-20 20 -20 49zM297 1071q0 30 25 55t59 25q31 0 49 -21q16 -20 16 -45q0 -33 -22 -55q-24 -26 -62 -26q-27 0 -45 18q-20 20 -20 49z" />
    <glyph glyph-name="uni04F8" unicode="&#x4f8;" horiz-adv-x="1413" 
d="M1307 1366h90l-168 -1366h-90zM184 0l168 1366h90l-71 -588h233q218 0 326 -92q106 -90 106 -258q0 -94 -28.5 -171.5t-75.5 -127.5q-122 -129 -430 -129h-318zM360 696l-75 -614h233q247 0 344 106q39 42 59.5 109t20.5 129q0 140 -100 211q-83 59 -279 59h-203z
M1016 1587q0 38 26 64q24 24 58 24q33 0 53 -20q18 -22 18 -49q0 -36 -26 -62q-24 -24 -64 -24q-29 0 -47 18q-18 16 -18 49zM635 1587q0 37 27 64q24 24 57 24t53 -20q19 -23 19 -49q0 -35 -27 -62q-24 -24 -64 -24q-29 0 -47 18q-18 16 -18 49z" />
    <glyph glyph-name="uni04F9" unicode="&#x4f9;" 
d="M897 836h82l-102 -836h-82zM248 836h84l-43 -349h176q137 0 207 -65q61 -59 61 -162q0 -115 -63 -178q-82 -82 -273 -82h-250zM240 78h188q108 0 164 45q55 47 55 131q0 80 -47 117q-47 39 -145 39h-174zM719 1071q0 31 24 55q25 25 60 25q31 0 49 -21q16 -20 16 -45
q0 -33 -22 -55q-24 -26 -62 -26q-27 0 -45 18q-20 20 -20 49zM379 1071q0 31 24 55q25 25 60 25q31 0 49 -21q16 -20 16 -45q0 -33 -22 -55q-24 -26 -62 -26q-27 0 -45 18q-20 20 -20 49z" />
    <glyph glyph-name="uni1E9E" unicode="&#x1e9e;" horiz-adv-x="1153" 
d="M184 0l123 995q23 194 150 301q106 88 264 88q141 0 229 -73q45 -37 73 -92.5t28 -110.5v-33l-326 -278q164 -29 252 -103q113 -96 113 -248q0 -89 -46.5 -174t-142.5 -151q-162 -110 -369 -121l13 82q77 5 158.5 30.5t144.5 67.5q145 99 145 256q0 138 -108 219
q-90 67 -262 76l10 82l323 283q2 29 -15.5 71t-53.5 76q-65 60 -168 60q-119 0 -201 -66q-51 -41 -82.5 -111.5t-40.5 -152.5l-121 -973h-90z" />
    <glyph glyph-name="uni2010" unicode="&#x2010;" horiz-adv-x="614" 
d="M150 377l10 94h409l-10 -94h-409z" />
    <glyph glyph-name="uni2011" unicode="&#x2011;" horiz-adv-x="614" 
d="M150 377l10 94h409l-10 -94h-409z" />
    <glyph glyph-name="figuredash" unicode="&#x2012;" horiz-adv-x="1105" 
d="M190 653l11 78h819l-10 -78h-820z" />
    <glyph glyph-name="endash" unicode="&#x2013;" horiz-adv-x="1105" 
d="M190 385l11 78h819l-10 -78h-820z" />
    <glyph glyph-name="emdash" unicode="&#x2014;" horiz-adv-x="1515" 
d="M190 385l11 78h1229l-11 -78h-1229z" />
    <glyph glyph-name="afii00208" unicode="&#x2015;" horiz-adv-x="1515" 
d="M190 385l11 78h1229l-11 -78h-1229z" />
    <glyph glyph-name="quoteleft" unicode="&#x2018;" horiz-adv-x="466" 
d="M510 1366l-172 -414l-80 25l203 409z" />
    <glyph glyph-name="quoteright" unicode="&#x2019;" horiz-adv-x="466" 
d="M258 977l174 414l78 -25l-201 -410z" />
    <glyph glyph-name="quotesinglbase" unicode="&#x201a;" horiz-adv-x="520" 
d="M96 -281l174 414l80 -24l-203 -410z" />
    <glyph glyph-name="quotedblleft" unicode="&#x201c;" horiz-adv-x="704" 
d="M510 1366l-172 -414l-80 25l203 409zM748 1366l-173 -414l-79 25l202 409z" />
    <glyph glyph-name="quotedblright" unicode="&#x201d;" horiz-adv-x="704" 
d="M258 977l174 414l78 -25l-201 -410zM496 977l174 414l78 -25l-201 -410z" />
    <glyph glyph-name="quotedblbase" unicode="&#x201e;" horiz-adv-x="757" 
d="M96 -281l174 414l80 -24l-203 -410zM334 -281l174 414l80 -24l-203 -410z" />
    <glyph glyph-name="dagger" unicode="&#x2020;" horiz-adv-x="1122" 
d="M655 1001l62 492h90l-62 -492h328l-10 -81h-328l-153 -1248h-90l153 1248h-328l11 81h327z" />
    <glyph glyph-name="daggerdbl" unicode="&#x2021;" horiz-adv-x="1103" 
d="M563 -328h-90l68 541h-328l10 82h328l76 625h-328l10 81h328l61 492h90l-61 -492h328l-11 -81h-327l-76 -625h328l-11 -82h-327z" />
    <glyph glyph-name="bullet" unicode="&#x2022;" horiz-adv-x="2048" 
d="M821 662q0 60 24.5 119t67.5 102q44 44 108 72t124 28q55 0 106 -22t82 -58q29 -32 47.5 -80t18.5 -92q0 -127 -96 -223q-98 -98 -228 -98q-114 0 -188 79q-66 70 -66 173z" />
    <glyph glyph-name="ellipsis" unicode="&#x2026;" horiz-adv-x="1241" 
d="M967 51q0 41 26 64q26 22 58 22q28 0 47 -16q20 -17 20 -49q0 -38 -24 -62t-62 -24q-24 0 -45 16q-20 17 -20 49zM553 51q0 40 27 64q26 22 57 22q28 0 47 -16q21 -18 21 -49q0 -37 -25 -62q-24 -24 -62 -24q-24 0 -45 16q-20 17 -20 49zM139 51q0 40 27 64q26 22 57 22
q28 0 47 -16q21 -18 21 -49q0 -37 -25 -62q-24 -24 -61 -24q-24 0 -45 16q-21 18 -21 49z" />
    <glyph glyph-name="perthousand" unicode="&#x2030;" horiz-adv-x="1908" 
d="M498 1378q52 0 106 -20t92 -58q68 -68 68 -167q0 -131 -80 -211q-78 -80 -219 -80q-122 0 -189 65q-71 71 -71 176q0 59 22.5 114.5t57.5 92.5q40 42 97.5 65t115.5 23zM471 915q88 0 147 56q62 62 62 159q0 76 -43 121q-50 54 -137 54q-92 0 -152 -60q-59 -59 -59 -151
q0 -76 47 -127q49 -52 135 -52zM188 2l979 1395l58 -33l-979 -1395zM944 524q53 0 107 -20t92 -58q67 -67 67 -167q0 -131 -80 -211q-78 -80 -219 -80q-121 0 -188 65q-72 72 -72 176q0 59 22.5 114.5t57.5 92.5q40 42 97.5 65t115.5 23zM918 61q88 0 147 56q61 61 61 159
q0 76 -43 121q-50 54 -137 54q-91 0 -151 -60t-60 -151q0 -76 47 -127q49 -52 136 -52zM1604 524q52 0 106 -20t92 -58q68 -68 68 -167q0 -131 -80 -211q-78 -80 -219 -80q-122 0 -189 65q-71 71 -71 176q0 59 22.5 114.5t57.5 92.5q40 42 97.5 65t115.5 23zM1577 61
q88 0 147 56q62 62 62 159q0 76 -43 121q-50 54 -137 54q-92 0 -152 -60q-59 -59 -59 -151q0 -76 47 -127q49 -52 135 -52z" />
    <glyph glyph-name="guilsinglleft" unicode="&#x2039;" horiz-adv-x="495" 
d="M469 682l-254 -258l191 -258l-60 -49l-229 307l305 307z" />
    <glyph glyph-name="guilsinglright" unicode="&#x203a;" horiz-adv-x="495" 
d="M131 166l252 258l-188 258l59 49l227 -307l-303 -307z" />
    <glyph glyph-name="fraction" unicode="&#x2044;" horiz-adv-x="217" 
d="M-410 2l979 1395l58 -33l-979 -1395z" />
    <glyph glyph-name="uni2080" unicode="&#x2080;" horiz-adv-x="675" 
d="M436 829q86 0 152 -63q96 -96 96 -285q0 -42 -5.5 -87t-20 -103.5t-47 -116.5t-79.5 -102q-85 -82 -198 -82q-95 0 -158 63q-47 47 -70.5 121.5t-23.5 157.5q0 100 33.5 209.5t107.5 189.5q91 98 213 98zM336 63q74 0 133 56q70 65 101.5 165.5t31.5 192.5
q0 76 -20 141.5t-60 100.5q-41 37 -98 37q-70 0 -129 -56q-63 -61 -98 -161t-35 -203q0 -156 74 -230q43 -43 100 -43z" />
    <glyph glyph-name="uni2081" unicode="&#x2081;" horiz-adv-x="675" 
d="M311 0l92 745h-127l33 74h180l-100 -819h-78z" />
    <glyph glyph-name="uni2082" unicode="&#x2082;" horiz-adv-x="675" 
d="M578 0h-504l342 346q77 77 112 131q45 64 45 135q0 65 -36 101q-43 43 -121 43q-80 0 -121 -41q-23 -23 -38.5 -58.5t-18.5 -68.5h-74q15 106 78 172q67 69 180 69q115 0 180 -65q55 -55 55 -146q0 -82 -47 -153q-25 -42 -106 -125l-258 -266h340z" />
    <glyph glyph-name="uni2083" unicode="&#x2083;" horiz-adv-x="675" 
d="M123 201h74q0 -63 36 -99q39 -39 109 -39q71 0 119 41q53 49 53 140q0 70 -45 108q-44 37 -125 37h-10l10 74q113 0 166 53q41 47 41 113q0 57 -33 90q-37 37 -98 37q-66 0 -103 -45q-27 -35 -38 -86h-74q14 90 71 147t146 57q93 0 153 -57q58 -58 58 -143
q0 -88 -58 -146q-41 -41 -98 -55q50 -17 80 -55q37 -47 37 -121q0 -121 -72 -193q-66 -69 -182 -69q-105 0 -164 63q-53 56 -53 148z" />
    <glyph glyph-name="uni2084" unicode="&#x2084;" horiz-adv-x="675" 
d="M616 846l-75 -617h114l-10 -73h-115l-18 -156h-78l19 156h-418zM188 229h275l47 389z" />
    <glyph glyph-name="uni2085" unicode="&#x2085;" horiz-adv-x="675" 
d="M678 819l-8 -74h-275l-86 -196q62 10 124 -6t106 -58q69 -66 69 -174q0 -144 -84 -231q-85 -90 -235 -90q-172 0 -238 135l82 20q40 -82 158 -82q110 0 170 58q65 65 65 174q0 88 -53 139q-49 49 -141 49q-74 0 -144 -37l164 373h326z" />
    <glyph glyph-name="uni2086" unicode="&#x2086;" horiz-adv-x="675" 
d="M471 829l51 -43l-198 -243q44 14 88 14q106 0 178 -68q74 -71 74 -184q0 -135 -84 -223q-89 -92 -236 -92q-123 0 -194 69q-74 74 -74 183q0 78 30 135.5t89 126.5zM348 63q100 0 160 56q32 31 52 79.5t20 106.5q0 82 -54 133t-139 51q-92 0 -154 -59q-75 -72 -75 -178
q0 -77 51 -131q55 -58 139 -58z" />
    <glyph glyph-name="uni2087" unicode="&#x2087;" horiz-adv-x="675" 
d="M33 39l567 706h-446l8 74h594l-658 -827z" />
    <glyph glyph-name="uni2088" unicode="&#x2088;" horiz-adv-x="675" 
d="M291 426q-41 20 -66 59q-28 43 -28 101q0 109 69 178q65 65 164 65q97 0 152 -55q53 -53 53 -143q0 -81 -43 -135q-44 -55 -96 -70q43 -14 77 -55q37 -49 37 -125q0 -120 -67 -189q-65 -67 -187 -67q-115 0 -174 59t-59 154q0 86 51 147q48 59 117 76zM399 463
q64 0 107 39q49 49 49 121q0 59 -33 96t-98 37q-61 0 -100 -39q-50 -47 -50 -127q0 -55 35 -90q34 -37 90 -37zM354 63q73 0 119 41q55 52 55 140q0 65 -41 106q-39 39 -108 39q-72 0 -121 -49q-53 -53 -53 -129q0 -68 43 -111q37 -37 106 -37z" />
    <glyph glyph-name="uni2089" unicode="&#x2089;" horiz-adv-x="675" 
d="M299 -10l-51 43l201 243q-43 -16 -87 -16q-110 0 -180 66q-73 69 -73 184q0 65 23.5 126.5t68.5 106.5q86 86 227 86q118 0 195 -73q73 -69 73 -181q0 -122 -108 -247zM416 756q-92 0 -158 -66q-68 -71 -68 -172q0 -85 54 -139q49 -49 135 -49q96 0 162 59q71 65 71 172
q0 87 -57 141t-139 54z" />
    <glyph glyph-name="Euro" unicode="&#x20ac;" horiz-adv-x="1122" 
d="M1149 1288l-49 -76q-121 91 -287 91q-106 0 -206.5 -45.5t-186 -143t-125.5 -231.5h666l-43 -82h-648q-27 -98 -30 -211h569l-43 -82h-524q1 -63 13.5 -124t43 -120.5t74.5 -104.5t112.5 -72.5t153.5 -27.5q70 0 137 18t117.5 46t76.5 46.5t46 35.5l-15 -119
q-165 -109 -370 -109q-86 0 -158 21t-121 54.5t-87 80t-60 94.5t-36 101.5t-18 96.5t-4 83h-139l43 82h94q3 111 31 211h-131l43 82h113q66 222 237.5 361.5t395.5 139.5q186 0 315 -96z" />
    <glyph glyph-name="uni20B4" unicode="&#x20b4;" horiz-adv-x="1122" 
d="M449 1135l-56 55q63 87 152 137q96 57 217 57q73 0 130 -26.5t93 -67.5q68 -74 68 -184q0 -124 -99 -223h152l-19 -82h-221l-315 -211h491l-16 -82h-580q-122 -84 -122 -217q0 -102 65 -170q62 -62 158 -62q112 0 192 50q103 63 156 198l68 -45q-27 -84 -80.5 -141.5
t-108.5 -89.5q-96 -54 -225 -54q-137 0 -221 82q-49 48 -74 109.5t-25 122.5q0 23 4.5 50t30.5 77t70 90h-160l16 82h222l315 211h-491l18 82h577q127 96 127 215q0 89 -51 143q-59 62 -147 62q-105 0 -185 -52q-65 -41 -126 -116z" />
    <glyph glyph-name="uni20B6" unicode="&#x20b6;" horiz-adv-x="1122" 
d="M467 1366h264q183 0 277 -96q84 -84 84 -230q0 -84 -27.5 -156.5t-73.5 -119.5q-111 -115 -346 -115h-176l-23 -184h342l-10 -82h-342l-47 -383h-90l45 381h-154l11 82h153l23 186h-154l13 82h153zM547 1284l-68 -553h180q167 0 252 80q82 78 82 225q0 104 -59 168
q-34 37 -81 56t-77.5 21.5t-83.5 2.5h-145z" />
    <glyph glyph-name="uni20B6" unicode="&#x20cf;" horiz-adv-x="1122" 
d="M467 1366h264q183 0 277 -96q84 -84 84 -230q0 -84 -27.5 -156.5t-73.5 -119.5q-111 -115 -346 -115h-176l-23 -184h342l-10 -82h-342l-47 -383h-90l45 381h-154l11 82h153l23 186h-154l13 82h153zM547 1284l-68 -553h180q167 0 252 80q82 78 82 225q0 104 -59 168
q-34 37 -81 56t-77.5 21.5t-83.5 2.5h-145z" />
    <glyph glyph-name="uni20B6" unicode="&#x20ce;" horiz-adv-x="1122" 
d="M467 1366h264q183 0 277 -96q84 -84 84 -230q0 -84 -27.5 -156.5t-73.5 -119.5q-111 -115 -346 -115h-176l-23 -184h342l-10 -82h-342l-47 -383h-90l45 381h-154l11 82h153l23 186h-154l13 82h153zM547 1284l-68 -553h180q167 0 252 80q82 78 82 225q0 104 -59 168
q-34 37 -81 56t-77.5 21.5t-83.5 2.5h-145z" />
    <glyph glyph-name="uni20B6" unicode="&#x20cd;" horiz-adv-x="1122" 
d="M467 1366h264q183 0 277 -96q84 -84 84 -230q0 -84 -27.5 -156.5t-73.5 -119.5q-111 -115 -346 -115h-176l-23 -184h342l-10 -82h-342l-47 -383h-90l45 381h-154l11 82h153l23 186h-154l13 82h153zM547 1284l-68 -553h180q167 0 252 80q82 78 82 225q0 104 -59 168
q-34 37 -81 56t-77.5 21.5t-83.5 2.5h-145z" />
    <glyph glyph-name="uni20B6" unicode="&#x20cc;" horiz-adv-x="1122" 
d="M467 1366h264q183 0 277 -96q84 -84 84 -230q0 -84 -27.5 -156.5t-73.5 -119.5q-111 -115 -346 -115h-176l-23 -184h342l-10 -82h-342l-47 -383h-90l45 381h-154l11 82h153l23 186h-154l13 82h153zM547 1284l-68 -553h180q167 0 252 80q82 78 82 225q0 104 -59 168
q-34 37 -81 56t-77.5 21.5t-83.5 2.5h-145z" />
    <glyph glyph-name="uni20B6" unicode="&#x20cb;" horiz-adv-x="1122" 
d="M467 1366h264q183 0 277 -96q84 -84 84 -230q0 -84 -27.5 -156.5t-73.5 -119.5q-111 -115 -346 -115h-176l-23 -184h342l-10 -82h-342l-47 -383h-90l45 381h-154l11 82h153l23 186h-154l13 82h153zM547 1284l-68 -553h180q167 0 252 80q82 78 82 225q0 104 -59 168
q-34 37 -81 56t-77.5 21.5t-83.5 2.5h-145z" />
    <glyph glyph-name="uni20B6" unicode="&#x20ca;" horiz-adv-x="1122" 
d="M467 1366h264q183 0 277 -96q84 -84 84 -230q0 -84 -27.5 -156.5t-73.5 -119.5q-111 -115 -346 -115h-176l-23 -184h342l-10 -82h-342l-47 -383h-90l45 381h-154l11 82h153l23 186h-154l13 82h153zM547 1284l-68 -553h180q167 0 252 80q82 78 82 225q0 104 -59 168
q-34 37 -81 56t-77.5 21.5t-83.5 2.5h-145z" />
    <glyph glyph-name="uni20B6" unicode="&#x20c9;" horiz-adv-x="1122" 
d="M467 1366h264q183 0 277 -96q84 -84 84 -230q0 -84 -27.5 -156.5t-73.5 -119.5q-111 -115 -346 -115h-176l-23 -184h342l-10 -82h-342l-47 -383h-90l45 381h-154l11 82h153l23 186h-154l13 82h153zM547 1284l-68 -553h180q167 0 252 80q82 78 82 225q0 104 -59 168
q-34 37 -81 56t-77.5 21.5t-83.5 2.5h-145z" />
    <glyph glyph-name="uni20B6" unicode="&#x20c8;" horiz-adv-x="1122" 
d="M467 1366h264q183 0 277 -96q84 -84 84 -230q0 -84 -27.5 -156.5t-73.5 -119.5q-111 -115 -346 -115h-176l-23 -184h342l-10 -82h-342l-47 -383h-90l45 381h-154l11 82h153l23 186h-154l13 82h153zM547 1284l-68 -553h180q167 0 252 80q82 78 82 225q0 104 -59 168
q-34 37 -81 56t-77.5 21.5t-83.5 2.5h-145z" />
    <glyph glyph-name="uni20B6" unicode="&#x20c7;" horiz-adv-x="1122" 
d="M467 1366h264q183 0 277 -96q84 -84 84 -230q0 -84 -27.5 -156.5t-73.5 -119.5q-111 -115 -346 -115h-176l-23 -184h342l-10 -82h-342l-47 -383h-90l45 381h-154l11 82h153l23 186h-154l13 82h153zM547 1284l-68 -553h180q167 0 252 80q82 78 82 225q0 104 -59 168
q-34 37 -81 56t-77.5 21.5t-83.5 2.5h-145z" />
    <glyph glyph-name="uni20B6" unicode="&#x20c6;" horiz-adv-x="1122" 
d="M467 1366h264q183 0 277 -96q84 -84 84 -230q0 -84 -27.5 -156.5t-73.5 -119.5q-111 -115 -346 -115h-176l-23 -184h342l-10 -82h-342l-47 -383h-90l45 381h-154l11 82h153l23 186h-154l13 82h153zM547 1284l-68 -553h180q167 0 252 80q82 78 82 225q0 104 -59 168
q-34 37 -81 56t-77.5 21.5t-83.5 2.5h-145z" />
    <glyph glyph-name="uni20B6" unicode="&#x20c5;" horiz-adv-x="1122" 
d="M467 1366h264q183 0 277 -96q84 -84 84 -230q0 -84 -27.5 -156.5t-73.5 -119.5q-111 -115 -346 -115h-176l-23 -184h342l-10 -82h-342l-47 -383h-90l45 381h-154l11 82h153l23 186h-154l13 82h153zM547 1284l-68 -553h180q167 0 252 80q82 78 82 225q0 104 -59 168
q-34 37 -81 56t-77.5 21.5t-83.5 2.5h-145z" />
    <glyph glyph-name="uni20B6" unicode="&#x20c4;" horiz-adv-x="1122" 
d="M467 1366h264q183 0 277 -96q84 -84 84 -230q0 -84 -27.5 -156.5t-73.5 -119.5q-111 -115 -346 -115h-176l-23 -184h342l-10 -82h-342l-47 -383h-90l45 381h-154l11 82h153l23 186h-154l13 82h153zM547 1284l-68 -553h180q167 0 252 80q82 78 82 225q0 104 -59 168
q-34 37 -81 56t-77.5 21.5t-83.5 2.5h-145z" />
    <glyph glyph-name="uni20B6" unicode="&#x20c3;" horiz-adv-x="1122" 
d="M467 1366h264q183 0 277 -96q84 -84 84 -230q0 -84 -27.5 -156.5t-73.5 -119.5q-111 -115 -346 -115h-176l-23 -184h342l-10 -82h-342l-47 -383h-90l45 381h-154l11 82h153l23 186h-154l13 82h153zM547 1284l-68 -553h180q167 0 252 80q82 78 82 225q0 104 -59 168
q-34 37 -81 56t-77.5 21.5t-83.5 2.5h-145z" />
    <glyph glyph-name="uni20B6" unicode="&#x20c2;" horiz-adv-x="1122" 
d="M467 1366h264q183 0 277 -96q84 -84 84 -230q0 -84 -27.5 -156.5t-73.5 -119.5q-111 -115 -346 -115h-176l-23 -184h342l-10 -82h-342l-47 -383h-90l45 381h-154l11 82h153l23 186h-154l13 82h153zM547 1284l-68 -553h180q167 0 252 80q82 78 82 225q0 104 -59 168
q-34 37 -81 56t-77.5 21.5t-83.5 2.5h-145z" />
    <glyph glyph-name="uni20B6" unicode="&#x20c1;" horiz-adv-x="1122" 
d="M467 1366h264q183 0 277 -96q84 -84 84 -230q0 -84 -27.5 -156.5t-73.5 -119.5q-111 -115 -346 -115h-176l-23 -184h342l-10 -82h-342l-47 -383h-90l45 381h-154l11 82h153l23 186h-154l13 82h153zM547 1284l-68 -553h180q167 0 252 80q82 78 82 225q0 104 -59 168
q-34 37 -81 56t-77.5 21.5t-83.5 2.5h-145z" />
    <glyph glyph-name="uni20B6" unicode="&#x20c0;" horiz-adv-x="1122" 
d="M467 1366h264q183 0 277 -96q84 -84 84 -230q0 -84 -27.5 -156.5t-73.5 -119.5q-111 -115 -346 -115h-176l-23 -184h342l-10 -82h-342l-47 -383h-90l45 381h-154l11 82h153l23 186h-154l13 82h153zM547 1284l-68 -553h180q167 0 252 80q82 78 82 225q0 104 -59 168
q-34 37 -81 56t-77.5 21.5t-83.5 2.5h-145z" />
    <glyph glyph-name="uni20B6" unicode="&#x20bf;" horiz-adv-x="1122" 
d="M467 1366h264q183 0 277 -96q84 -84 84 -230q0 -84 -27.5 -156.5t-73.5 -119.5q-111 -115 -346 -115h-176l-23 -184h342l-10 -82h-342l-47 -383h-90l45 381h-154l11 82h153l23 186h-154l13 82h153zM547 1284l-68 -553h180q167 0 252 80q82 78 82 225q0 104 -59 168
q-34 37 -81 56t-77.5 21.5t-83.5 2.5h-145z" />
    <glyph glyph-name="uni20B6" unicode="&#x20be;" horiz-adv-x="1122" 
d="M467 1366h264q183 0 277 -96q84 -84 84 -230q0 -84 -27.5 -156.5t-73.5 -119.5q-111 -115 -346 -115h-176l-23 -184h342l-10 -82h-342l-47 -383h-90l45 381h-154l11 82h153l23 186h-154l13 82h153zM547 1284l-68 -553h180q167 0 252 80q82 78 82 225q0 104 -59 168
q-34 37 -81 56t-77.5 21.5t-83.5 2.5h-145z" />
    <glyph glyph-name="uni20B6" unicode="&#x20bd;" horiz-adv-x="1122" 
d="M467 1366h264q183 0 277 -96q84 -84 84 -230q0 -84 -27.5 -156.5t-73.5 -119.5q-111 -115 -346 -115h-176l-23 -184h342l-10 -82h-342l-47 -383h-90l45 381h-154l11 82h153l23 186h-154l13 82h153zM547 1284l-68 -553h180q167 0 252 80q82 78 82 225q0 104 -59 168
q-34 37 -81 56t-77.5 21.5t-83.5 2.5h-145z" />
    <glyph glyph-name="uni20B6" unicode="&#x20bc;" horiz-adv-x="1122" 
d="M467 1366h264q183 0 277 -96q84 -84 84 -230q0 -84 -27.5 -156.5t-73.5 -119.5q-111 -115 -346 -115h-176l-23 -184h342l-10 -82h-342l-47 -383h-90l45 381h-154l11 82h153l23 186h-154l13 82h153zM547 1284l-68 -553h180q167 0 252 80q82 78 82 225q0 104 -59 168
q-34 37 -81 56t-77.5 21.5t-83.5 2.5h-145z" />
    <glyph glyph-name="uni20B6" unicode="&#x20bb;" horiz-adv-x="1122" 
d="M467 1366h264q183 0 277 -96q84 -84 84 -230q0 -84 -27.5 -156.5t-73.5 -119.5q-111 -115 -346 -115h-176l-23 -184h342l-10 -82h-342l-47 -383h-90l45 381h-154l11 82h153l23 186h-154l13 82h153zM547 1284l-68 -553h180q167 0 252 80q82 78 82 225q0 104 -59 168
q-34 37 -81 56t-77.5 21.5t-83.5 2.5h-145z" />
    <glyph glyph-name="uni20B6" unicode="&#x20ba;" horiz-adv-x="1122" 
d="M467 1366h264q183 0 277 -96q84 -84 84 -230q0 -84 -27.5 -156.5t-73.5 -119.5q-111 -115 -346 -115h-176l-23 -184h342l-10 -82h-342l-47 -383h-90l45 381h-154l11 82h153l23 186h-154l13 82h153zM547 1284l-68 -553h180q167 0 252 80q82 78 82 225q0 104 -59 168
q-34 37 -81 56t-77.5 21.5t-83.5 2.5h-145z" />
    <glyph glyph-name="uni20B6" unicode="&#x20b9;" horiz-adv-x="1122" 
d="M467 1366h264q183 0 277 -96q84 -84 84 -230q0 -84 -27.5 -156.5t-73.5 -119.5q-111 -115 -346 -115h-176l-23 -184h342l-10 -82h-342l-47 -383h-90l45 381h-154l11 82h153l23 186h-154l13 82h153zM547 1284l-68 -553h180q167 0 252 80q82 78 82 225q0 104 -59 168
q-34 37 -81 56t-77.5 21.5t-83.5 2.5h-145z" />
    <glyph glyph-name="uni20B6" unicode="&#x20b7;" horiz-adv-x="1122" 
d="M467 1366h264q183 0 277 -96q84 -84 84 -230q0 -84 -27.5 -156.5t-73.5 -119.5q-111 -115 -346 -115h-176l-23 -184h342l-10 -82h-342l-47 -383h-90l45 381h-154l11 82h153l23 186h-154l13 82h153zM547 1284l-68 -553h180q167 0 252 80q82 78 82 225q0 104 -59 168
q-34 37 -81 56t-77.5 21.5t-83.5 2.5h-145z" />
    <glyph glyph-name="uni20B8" unicode="&#x20b8;" horiz-adv-x="1122" 
d="M1098 1100h-355l-137 -1100h-90l137 1100h-354l10 82h799zM1118 1284h-799l11 82h798z" />
    <glyph glyph-name="afii61352" unicode="&#x2116;" horiz-adv-x="1927" 
d="M274 0h-90l170 1380l776 -1159l140 1145h90l-172 -1401l-776 1159zM1735 1366q120 0 198 -78q64 -67 64 -164q0 -129 -80 -209q-86 -86 -217 -86q-121 0 -195 78q-65 69 -65 170q0 120 80 203q86 86 215 86zM1708 903q90 0 145 51q62 56 62 160q0 82 -49 131
q-50 47 -137 47q-91 0 -144 -53q-63 -60 -63 -162q0 -74 49 -123q51 -51 137 -51zM1417 571l13 95h471l-13 -95h-471z" />
    <glyph glyph-name="uni2117" unicode="&#x2117;" horiz-adv-x="1515" 
d="M692 1034h146q110 0 168 -53q55 -51 55 -145q0 -95 -55 -150q-59 -59 -189 -59h-55v-351h-70v758zM762 971v-281h65q90 0 127 39q35 35 35 102q0 70 -35 105t-114 35h-78zM1544 684q0 -134 -55 -270.5t-158 -237.5q-92 -91 -217.5 -143.5t-271.5 -52.5q-147 0 -272.5 53
t-217.5 143q-103 101 -158 237.5t-55 270.5q0 132 55.5 268.5t157.5 237.5q92 90 217.5 143t272.5 53q146 0 271.5 -52.5t217.5 -143.5q102 -101 157.5 -237.5t55.5 -268.5zM842 1325q-118 0 -229.5 -43.5t-200.5 -128.5q-93 -89 -148 -214.5t-55 -254.5q0 -131 55 -256.5
t148 -214.5q89 -85 200.5 -128.5t229.5 -43.5t229.5 43.5t200.5 128.5q93 89 148 214.5t55 256.5q0 129 -55 254.5t-148 214.5q-89 85 -200.5 128.5t-229.5 43.5z" />
    <glyph glyph-name="trademark" unicode="&#x2122;" horiz-adv-x="1474" 
d="M621 1292h-191l-86 -704h-82l86 704h-190l10 74h463zM692 588h-78l197 839l246 -712l424 712l-13 -839h-77l6 567l-361 -612l-213 612z" />
    <glyph glyph-name="partialdiff" unicode="&#x2202;" horiz-adv-x="1042" 
d="M268 1303l11 75q282 -40 466 -211q131 -123 199 -297q72 -183 72 -381q0 -253 -135 -395q-114 -117 -279 -117q-103 0 -188 35t-142 97q-55 58 -90 145.5t-35 179.5q0 88 33.5 177.5t95.5 154.5q122 129 314 129t301 -160h4q-57 230 -205 367q-106 96 -219 145
q-102 43 -203 56zM930 440q0 178 -107 285q-96 92 -233 92q-76 0 -142.5 -28.5t-109.5 -75.5q-52 -55 -78.5 -132t-26.5 -155q0 -155 103 -264q102 -107 248 -107q131 0 229 92q117 114 117 293z" />
    <glyph glyph-name="product" unicode="&#x220f;" horiz-adv-x="1454" 
d="M184 1454v82h1250v-82h-158v-1884h158v-82h-414v82h166v1884h-756v-1884h164v-82h-410v82h156v1884h-156z" />
    <glyph glyph-name="summation" unicode="&#x2211;" horiz-adv-x="1355" 
d="M184 1536h1135v-440h-82v358h-952l518 -899l-524 -985h974v354h82v-436h-1151v94l516 975l-516 885v94z" />
    <glyph glyph-name="minus" unicode="&#x2212;" 
d="M145 635v78h889v-78h-889z" />
    <glyph glyph-name="uni2215" unicode="&#x2215;" horiz-adv-x="1179" 
d="M2 -324l1258 1846l61 -33l-1258 -1845z" />
    <glyph glyph-name="uni2219" unicode="&#x2219;" horiz-adv-x="409" 
d="M193 680q0 49 30 82q33 33 80 33q39 0 64 -25q22 -22 22 -57q0 -44 -31 -80q-32 -35 -79 -35q-39 0 -64 25q-22 22 -22 57z" />
    <glyph glyph-name="radical" unicode="&#x221a;" horiz-adv-x="1239" 
d="M954 1694h494v-78h-426l-500 -1616h-88l-196 645h-158v78h223l172 -586h6z" />
    <glyph glyph-name="infinity" unicode="&#x221e;" horiz-adv-x="1366" 
d="M811 698q44 -84 119 -153q44 -39 85.5 -58.5t98.5 -19.5q94 0 150 59q65 65 65 174q0 102 -69 168q-61 58 -150 58q-60 0 -102.5 -20.5t-85.5 -63.5q-58 -58 -111 -144zM770 639q-61 -99 -135 -162q-100 -84 -219 -84q-130 0 -209 86q-80 83 -80 217q0 135 84 222
q81 81 209 81q120 0 217 -81q75 -62 131 -162q56 100 131 162q97 81 219 81q128 0 209 -81q84 -87 84 -222q0 -134 -80 -217q-79 -86 -209 -86q-120 0 -221 84q-79 66 -131 162zM727 698q-53 86 -111 144q-43 43 -85.5 63.5t-102.5 20.5q-88 0 -149 -58q-70 -67 -70 -168
q0 -109 65 -174q56 -59 150 -59q57 0 98.5 19.5t85.5 58.5q74 69 119 153z" />
    <glyph glyph-name="integral" unicode="&#x222b;" horiz-adv-x="778" 
d="M715 1513l-25 -73q-37 22 -88 22q-50 0 -76 -26q-32 -32 -32 -140v-1568q0 -141 -54 -195q-52 -45 -129 -45q-63 0 -121 23l25 73q36 -22 86 -22q52 0 78 26q33 33 33 140v1589q0 115 53 170q45 49 131 49q60 0 119 -23z" />
    <glyph glyph-name="approxequal" unicode="&#x2248;" 
d="M147 399l-51 33q60 91 111 137q82 72 180 72q38 0 79 -13t66 -25.5t78 -41.5q9 -5 33 -19t31.5 -17.5t26.5 -13.5t28 -12.5t24.5 -7.5t29 -6.5t28.5 -1.5q90 0 156 66q35 35 73 94l54 -33q-44 -72 -90 -118q-83 -86 -199 -86q-56 0 -102 15.5t-142 70.5q-121 71 -186 71
q-79 0 -139 -55q-42 -39 -89 -109zM147 700l-51 33q60 91 111 137q82 72 180 72q38 0 79 -13t66 -25.5t78 -41.5q9 -5 33 -19t31.5 -17.5t26.5 -13.5t28 -12.5t24.5 -7.5t29 -6.5t28.5 -1.5q90 0 156 66q35 35 73 94l54 -33q-44 -72 -90 -118q-83 -86 -199 -86
q-56 0 -102 15.5t-142 70.5q-121 71 -186 71q-79 0 -139 -55q-42 -39 -89 -109z" />
    <glyph glyph-name="notequal" unicode="&#x2260;" 
d="M145 780v78h498l113 240h73l-112 -240h317v-78h-354l-100 -213h454v-78h-491l-119 -251h-74l119 251h-324v78h361l100 213h-461z" />
    <glyph glyph-name="lessequal" unicode="&#x2264;" 
d="M174 774l889 393v-84l-799 -348l799 -348v-84l-889 393v78zM174 242h889v-78h-889v78z" />
    <glyph glyph-name="greaterequal" unicode="&#x2265;" 
d="M1016 696l-889 -393v84l799 348l-799 348v84l889 -393v-78zM127 242h889v-78h-889v78z" />
    <glyph glyph-name="dotmath" unicode="&#x22c5;" horiz-adv-x="409" 
d="M193 680q0 49 30 82q33 33 80 33q39 0 64 -25q22 -22 22 -57q0 -44 -31 -80q-32 -35 -79 -35q-39 0 -64 25q-22 22 -22 57z" />
    <glyph glyph-name="lozenge" unicode="&#x25ca;" horiz-adv-x="1433" 
d="M268 684l533 737l532 -737l-532 -737zM1239 684l-438 602l-439 -602l439 -602z" />
    <glyph glyph-name="openbullet" unicode="&#x25e6;" horiz-adv-x="1028" 
d="M668 1366q120 0 198 -78q64 -67 64 -164q0 -129 -80 -209q-86 -86 -217 -86q-121 0 -195 78q-65 69 -65 170q0 120 80 203q86 86 215 86zM641 903q90 0 145 51q62 56 62 160q0 82 -49 131q-50 47 -137 47q-91 0 -144 -53q-63 -60 -63 -162q0 -74 49 -123q51 -51 137 -51z
" />
    <glyph glyph-name="uniF400" unicode="&#xf400;" horiz-adv-x="4" 
d="M-248 1270l82 -51l-248 -263l-57 33z" />
    <glyph glyph-name="uniF401" unicode="&#xf401;" horiz-adv-x="4" 
d="M-295 1749l96 -51l-307 -258l-59 37z" />
    </font>
</defs>
</svg>
